<svg width="170" height="50" viewBox="0 0 170 50" fill="none" xmlns="http://www.w3.org/2000/svg">
<g clip-path="url(#clip0_176_1736)">
<path d="M163.497 50H6.66232C3.40357 50 0.751068 47.34 0.751068 44.0837V5.9075C0.751068 2.65 3.40357 0 6.66232 0H163.497C166.755 0 169.501 2.65 169.501 5.9075V44.0837C169.501 47.34 166.755 50 163.497 50Z" fill="#A6A6A6"/>
<path d="M168.291 44.0848C168.291 46.7298 166.149 48.8723 163.499 48.8723H6.66231C4.01356 48.8723 1.86356 46.7298 1.86356 44.0848V5.90605C1.86356 3.2623 4.01356 1.1123 6.66231 1.1123H163.497C166.149 1.1123 168.29 3.2623 168.29 5.90605L168.291 44.0848Z" fill="black"/>
<path d="M38.4111 24.7302C38.3748 20.7015 41.7098 18.7415 41.8623 18.6502C39.9736 15.8965 37.0461 15.5202 36.0173 15.4902C33.5586 15.2315 31.1736 16.9615 29.9211 16.9615C28.6436 16.9615 26.7148 15.5152 24.6361 15.5577C21.9611 15.599 19.4586 17.1477 18.0861 19.5527C15.2536 24.4565 17.3661 31.6627 20.0798 35.6265C21.4373 37.5677 23.0236 39.7352 25.0998 39.659C27.1311 39.5752 27.8898 38.364 30.3411 38.364C32.7698 38.364 33.4823 39.659 35.5998 39.6102C37.7798 39.5752 39.1523 37.6602 40.4623 35.7015C42.0311 33.4765 42.6611 31.2852 42.6861 31.1727C42.6348 31.1552 38.4523 29.559 38.4111 24.7302Z" fill="white"/>
<path d="M34.4111 12.8827C35.5036 11.5165 36.2511 9.65773 36.0436 7.77148C34.4623 7.84148 32.4848 8.86523 31.3461 10.2015C30.3386 11.379 29.4386 13.309 29.6711 15.124C31.4473 15.2565 33.2711 14.2277 34.4111 12.8827Z" fill="white"/>
<path d="M67.8073 39.3801H64.9686L63.4136 34.4939H58.0086L56.5273 39.3801H53.7636L59.1186 22.7451H62.4261L67.8073 39.3801ZM62.9448 32.4439L61.5386 28.1001C61.3898 27.6564 61.1111 26.6114 60.6998 24.9664H60.6498C60.4861 25.6739 60.2223 26.7189 59.8598 28.1001L58.4786 32.4439H62.9448Z" fill="white"/>
<path d="M81.5786 33.2354C81.5786 35.2754 81.0273 36.8879 79.9248 38.0717C78.9373 39.1254 77.7111 39.6517 76.2473 39.6517C74.6673 39.6517 73.5323 39.0842 72.8411 37.9492H72.7911V44.2679H70.1261V31.3342C70.1261 30.0517 70.0923 28.7354 70.0273 27.3854H72.3711L72.5198 29.2867H72.5698C73.4586 27.8542 74.8073 27.1392 76.6173 27.1392C78.0323 27.1392 79.2136 27.6979 80.1586 28.8167C81.1061 29.9367 81.5786 31.4092 81.5786 33.2354ZM78.8636 33.3329C78.8636 32.1654 78.6011 31.2029 78.0736 30.4454C77.4973 29.6554 76.7236 29.2604 75.7536 29.2604C75.0961 29.2604 74.4986 29.4804 73.9648 29.9142C73.4298 30.3517 73.0798 30.9229 72.9161 31.6304C72.8336 31.9604 72.7923 32.2304 72.7923 32.4429V34.4429C72.7923 35.3154 73.0598 36.0517 73.5948 36.6529C74.1298 37.2542 74.8248 37.5542 75.6798 37.5542C76.6836 37.5542 77.4648 37.1667 78.0236 36.3942C78.5836 35.6204 78.8636 34.6004 78.8636 33.3329Z" fill="white"/>
<path d="M95.3748 33.2354C95.3748 35.2754 94.8236 36.8879 93.7198 38.0717C92.7336 39.1254 91.5073 39.6517 90.0436 39.6517C88.4636 39.6517 87.3286 39.0842 86.6386 37.9492H86.5886V44.2679H83.9236V31.3342C83.9236 30.0517 83.8898 28.7354 83.8248 27.3854H86.1686L86.3173 29.2867H86.3673C87.2548 27.8542 88.6036 27.1392 90.4148 27.1392C91.8286 27.1392 93.0098 27.6979 93.9573 28.8167C94.9011 29.9367 95.3748 31.4092 95.3748 33.2354ZM92.6598 33.3329C92.6598 32.1654 92.3961 31.2029 91.8686 30.4454C91.2923 29.6554 90.5211 29.2604 89.5498 29.2604C88.8911 29.2604 88.2948 29.4804 87.7598 29.9142C87.2248 30.3517 86.8761 30.9229 86.7123 31.6304C86.6311 31.9604 86.5886 32.2304 86.5886 32.4429V34.4429C86.5886 35.3154 86.8561 36.0517 87.3886 36.6529C87.9236 37.2529 88.6186 37.5542 89.4761 37.5542C90.4798 37.5542 91.2611 37.1667 91.8198 36.3942C92.3798 35.6204 92.6598 34.6004 92.6598 33.3329Z" fill="white"/>
<path d="M110.8 34.7152C110.8 36.1302 110.309 37.2815 109.322 38.1702C108.239 39.1415 106.73 39.6265 104.791 39.6265C103.001 39.6265 101.566 39.2815 100.48 38.5902L101.097 36.369C102.267 37.0765 103.551 37.4315 104.95 37.4315C105.954 37.4315 106.735 37.204 107.296 36.7515C107.855 36.299 108.134 35.6915 108.134 34.934C108.134 34.259 107.904 33.6902 107.442 33.229C106.984 32.7677 106.217 32.339 105.147 31.9427C102.235 30.8565 100.78 29.2652 100.78 27.1727C100.78 25.8052 101.29 24.684 102.311 23.8115C103.329 22.9377 104.686 22.5015 106.384 22.5015C107.897 22.5015 109.155 22.7652 110.159 23.2915L109.492 25.464C108.555 24.954 107.495 24.699 106.309 24.699C105.371 24.699 104.639 24.9302 104.114 25.3902C103.67 25.8015 103.447 26.3027 103.447 26.8965C103.447 27.554 103.701 28.0977 104.211 28.5252C104.655 28.9202 105.461 29.3477 106.631 29.809C108.062 30.3852 109.114 31.059 109.79 31.8315C110.464 32.6015 110.8 33.5652 110.8 34.7152Z" fill="white"/>
<path d="M119.611 29.3852H116.674V35.209C116.674 36.6902 117.191 37.4302 118.229 37.4302C118.705 37.4302 119.1 37.389 119.412 37.3065L119.486 39.3302C118.961 39.5265 118.27 39.6252 117.414 39.6252C116.361 39.6252 115.539 39.304 114.945 38.6627C114.354 38.0202 114.056 36.9427 114.056 35.429V29.3827H112.306V27.3827H114.056V25.1865L116.674 24.3965V27.3827H119.611V29.3852Z" fill="white"/>
<path d="M132.865 33.2839C132.865 35.1276 132.337 36.6414 131.285 37.8251C130.181 39.0439 128.716 39.6514 126.89 39.6514C125.13 39.6514 123.729 39.0676 122.684 37.9001C121.639 36.7326 121.116 35.2589 121.116 33.4826C121.116 31.6239 121.654 30.1014 122.732 28.9176C123.809 27.7326 125.261 27.1401 127.087 27.1401C128.847 27.1401 130.264 27.7239 131.332 28.8926C132.355 30.0264 132.865 31.4901 132.865 33.2839ZM130.1 33.3701C130.1 32.2639 129.864 31.3151 129.385 30.5239C128.826 29.5664 128.027 29.0889 126.992 29.0889C125.921 29.0889 125.107 29.5676 124.549 30.5239C124.07 31.3164 123.834 32.2801 123.834 33.4201C123.834 34.5264 124.07 35.4751 124.549 36.2651C125.125 37.2226 125.93 37.7001 126.969 37.7001C127.986 37.7001 128.785 37.2126 129.361 36.2401C129.852 35.4339 130.1 34.4751 130.1 33.3701Z" fill="white"/>
<path d="M141.527 29.7292C141.264 29.6804 140.982 29.6554 140.687 29.6554C139.75 29.6554 139.025 30.0092 138.515 30.7179C138.071 31.3429 137.849 32.1329 137.849 33.0867V39.3804H135.185L135.21 31.1629C135.21 29.7804 135.176 28.5217 135.11 27.3867H137.431L137.529 29.6817H137.602C137.884 28.8929 138.327 28.2579 138.935 27.7817C139.529 27.3529 140.17 27.1392 140.861 27.1392C141.107 27.1392 141.33 27.1567 141.527 27.1879V29.7292Z" fill="white"/>
<path d="M153.446 32.8154C153.446 33.2929 153.415 33.6954 153.349 34.0242H145.354C145.385 35.2092 145.771 36.1154 146.514 36.7404C147.187 37.2992 148.059 37.5792 149.129 37.5792C150.312 37.5792 151.392 37.3904 152.364 37.0117L152.781 38.8617C151.646 39.3567 150.306 39.6029 148.76 39.6029C146.9 39.6029 145.44 39.0554 144.377 37.9617C143.317 36.8679 142.786 35.3992 142.786 33.5567C142.786 31.7479 143.28 30.2417 144.269 29.0404C145.304 27.7579 146.702 27.1167 148.462 27.1167C150.191 27.1167 151.5 27.7579 152.389 29.0404C153.092 30.0592 153.446 31.3192 153.446 32.8154ZM150.905 32.1242C150.922 31.3342 150.749 30.6517 150.387 30.0754C149.926 29.3342 149.217 28.9642 148.264 28.9642C147.392 28.9642 146.684 29.3254 146.142 30.0504C145.699 30.6267 145.435 31.3179 145.354 32.1229L150.905 32.1242Z" fill="white"/>
<path d="M62.0636 12.5109C62.0636 13.9821 61.6223 15.0896 60.7411 15.8334C59.9248 16.5196 58.7648 16.8634 57.2623 16.8634C56.5173 16.8634 55.8798 16.8309 55.3461 16.7659V8.72713C56.0423 8.61463 56.7923 8.55713 57.6023 8.55713C59.0336 8.55713 60.1123 8.86838 60.8398 9.49088C61.6548 10.1946 62.0636 11.2009 62.0636 12.5109ZM60.6823 12.5471C60.6823 11.5934 60.4298 10.8621 59.9248 10.3521C59.4198 9.84338 58.6823 9.58838 57.7111 9.58838C57.2986 9.58838 56.9473 9.61588 56.6561 9.67338V15.7846C56.8173 15.8096 57.1123 15.8209 57.5411 15.8209C58.5436 15.8209 59.3173 15.5421 59.8623 14.9846C60.4073 14.4271 60.6823 13.6146 60.6823 12.5471Z" fill="white"/>
<path d="M69.3873 13.7963C69.3873 14.7026 69.1286 15.4451 68.6111 16.0276C68.0686 16.6263 67.3498 16.9251 66.4523 16.9251C65.5873 16.9251 64.8986 16.6388 64.3848 16.0638C63.8723 15.4901 63.6161 14.7663 63.6161 13.8938C63.6161 12.9813 63.8798 12.2326 64.4098 11.6513C64.9398 11.0701 65.6523 10.7788 66.5498 10.7788C67.4148 10.7788 68.1098 11.0651 68.6361 11.6388C69.1361 12.1963 69.3873 12.9163 69.3873 13.7963ZM68.0286 13.8388C68.0286 13.2951 67.9111 12.8288 67.6773 12.4401C67.4023 11.9701 67.0111 11.7351 66.5023 11.7351C65.9761 11.7351 65.5761 11.9701 65.3011 12.4401C65.0661 12.8288 64.9498 13.3026 64.9498 13.8626C64.9498 14.4063 65.0673 14.8726 65.3011 15.2613C65.5848 15.7313 65.9798 15.9663 66.4898 15.9663C66.9898 15.9663 67.3823 15.7276 67.6648 15.2488C67.9073 14.8526 68.0286 14.3826 68.0286 13.8388Z" fill="white"/>
<path d="M79.2073 10.8984L77.3636 16.7909H76.1636L75.3998 14.2322C75.2061 13.5934 75.0486 12.9584 74.9261 12.3284H74.9023C74.7886 12.9759 74.6311 13.6097 74.4286 14.2322L73.6173 16.7909H72.4036L70.6698 10.8984H72.0161L72.6823 13.6997C72.8436 14.3622 72.9761 14.9934 73.0823 15.5909H73.1061C73.2036 15.0984 73.3648 14.4709 73.5923 13.7122L74.4286 10.8997H75.4961L76.2973 13.6522C76.4911 14.3234 76.6486 14.9697 76.7698 15.5922H76.8061C76.8948 14.9859 77.0286 14.3397 77.2061 13.6522L77.9211 10.8997H79.2073V10.8984Z" fill="white"/>
<path d="M85.9986 16.7912H84.6886V13.4162C84.6886 12.3762 84.2936 11.8562 83.5011 11.8562C83.1123 11.8562 82.7986 11.9987 82.5548 12.2849C82.3136 12.5712 82.1911 12.9087 82.1911 13.2949V16.7899H80.8811V12.5824C80.8811 12.0649 80.8648 11.5037 80.8336 10.8962H81.9848L82.0461 11.8174H82.0823C82.2348 11.5312 82.4623 11.2949 82.7611 11.1062C83.1161 10.8862 83.5136 10.7749 83.9486 10.7749C84.4986 10.7749 84.9561 10.9524 85.3198 11.3087C85.7723 11.7449 85.9986 12.3962 85.9986 13.2612V16.7912Z" fill="white"/>
<path d="M89.6111 16.7911H88.3023V8.19482H89.6111V16.7911Z" fill="white"/>
<path d="M97.3236 13.7963C97.3236 14.7026 97.0648 15.4451 96.5473 16.0276C96.0048 16.6263 95.2848 16.9251 94.3886 16.9251C93.5223 16.9251 92.8336 16.6388 92.3211 16.0638C91.8086 15.4901 91.5523 14.7663 91.5523 13.8938C91.5523 12.9813 91.8161 12.2326 92.3461 11.6513C92.8761 11.0701 93.5886 10.7788 94.4848 10.7788C95.3511 10.7788 96.0448 11.0651 96.5723 11.6388C97.0723 12.1963 97.3236 12.9163 97.3236 13.7963ZM95.9636 13.8388C95.9636 13.2951 95.8461 12.8288 95.6123 12.4401C95.3386 11.9701 94.9461 11.7351 94.4386 11.7351C93.9111 11.7351 93.5111 11.9701 93.2373 12.4401C93.0023 12.8288 92.8861 13.3026 92.8861 13.8626C92.8861 14.4063 93.0036 14.8726 93.2373 15.2613C93.5211 15.7313 93.9161 15.9663 94.4261 15.9663C94.9261 15.9663 95.3173 15.7276 95.5998 15.2488C95.8436 14.8526 95.9636 14.3826 95.9636 13.8388Z" fill="white"/>
<path d="M103.664 16.7913H102.487L102.39 16.1126H102.354C101.951 16.6538 101.377 16.9251 100.632 16.9251C100.076 16.9251 99.6261 16.7463 99.2873 16.3913C98.9798 16.0688 98.8261 15.6676 98.8261 15.1913C98.8261 14.4713 99.1261 13.9226 99.7298 13.5426C100.332 13.1626 101.18 12.9763 102.271 12.9851V12.8751C102.271 12.0988 101.864 11.7113 101.047 11.7113C100.466 11.7113 99.9536 11.8576 99.5111 12.1476L99.2448 11.2876C99.7923 10.9488 100.469 10.7788 101.266 10.7788C102.806 10.7788 103.579 11.5913 103.579 13.2163V15.3863C103.579 15.9751 103.607 16.4438 103.664 16.7913ZM102.304 14.7663V13.8576C100.859 13.8326 100.136 14.2288 100.136 15.0451C100.136 15.3526 100.219 15.5826 100.387 15.7363C100.556 15.8901 100.771 15.9663 101.027 15.9663C101.315 15.9663 101.584 15.8751 101.829 15.6938C102.075 15.5113 102.226 15.2801 102.282 14.9963C102.296 14.9326 102.304 14.8551 102.304 14.7663Z" fill="white"/>
<path d="M111.107 16.7911H109.945L109.884 15.8448H109.847C109.476 16.5648 108.844 16.9248 107.955 16.9248C107.245 16.9248 106.654 16.6461 106.185 16.0886C105.716 15.5311 105.482 14.8073 105.482 13.9186C105.482 12.9648 105.736 12.1923 106.246 11.6023C106.74 11.0523 107.345 10.7773 108.065 10.7773C108.856 10.7773 109.41 11.0436 109.725 11.5773H109.75V8.19482H111.061V15.2036C111.061 15.7773 111.076 16.3061 111.107 16.7911ZM109.75 14.3061V13.3236C109.75 13.1536 109.737 13.0161 109.714 12.9111C109.64 12.5961 109.481 12.3311 109.24 12.1173C108.996 11.9036 108.702 11.7961 108.364 11.7961C107.875 11.7961 107.492 11.9898 107.211 12.3786C106.932 12.7673 106.791 13.2636 106.791 13.8698C106.791 14.4523 106.925 14.9248 107.194 15.2886C107.477 15.6761 107.86 15.8698 108.339 15.8698C108.769 15.8698 109.112 15.7086 109.374 15.3848C109.626 15.0861 109.75 14.7261 109.75 14.3061Z" fill="white"/>
<path d="M122.311 13.7963C122.311 14.7026 122.052 15.4451 121.535 16.0276C120.992 16.6263 120.275 16.9251 119.376 16.9251C118.512 16.9251 117.824 16.6388 117.309 16.0638C116.796 15.4901 116.54 14.7663 116.54 13.8938C116.54 12.9813 116.804 12.2326 117.334 11.6513C117.864 11.0701 118.576 10.7788 119.475 10.7788C120.339 10.7788 121.035 11.0651 121.56 11.6388C122.06 12.1963 122.311 12.9163 122.311 13.7963ZM120.954 13.8388C120.954 13.2951 120.836 12.8288 120.602 12.4401C120.326 11.9701 119.936 11.7351 119.426 11.7351C118.901 11.7351 118.501 11.9701 118.225 12.4401C117.99 12.8288 117.874 13.3026 117.874 13.8626C117.874 14.4063 117.991 14.8726 118.225 15.2613C118.509 15.7313 118.904 15.9663 119.414 15.9663C119.914 15.9663 120.307 15.7276 120.59 15.2488C120.831 14.8526 120.954 14.3826 120.954 13.8388Z" fill="white"/>
<path d="M129.355 16.7912H128.046V13.4162C128.046 12.3762 127.651 11.8562 126.857 11.8562C126.469 11.8562 126.155 11.9987 125.912 12.2849C125.67 12.5712 125.549 12.9087 125.549 13.2949V16.7899H124.237V12.5824C124.237 12.0649 124.222 11.5037 124.191 10.8962H125.341L125.402 11.8174H125.439C125.592 11.5312 125.82 11.2949 126.117 11.1062C126.474 10.8862 126.87 10.7749 127.306 10.7749C127.855 10.7749 128.312 10.9524 128.676 11.3087C129.13 11.7449 129.355 12.3962 129.355 13.2612V16.7912Z" fill="white"/>
<path d="M138.171 11.8799H136.729V14.7424C136.729 15.4699 136.985 15.8337 137.492 15.8337C137.727 15.8337 137.922 15.8137 138.076 15.7724L138.11 16.7662C137.851 16.8637 137.511 16.9124 137.092 16.9124C136.575 16.9124 136.172 16.7549 135.881 16.4399C135.589 16.1249 135.444 15.5949 135.444 14.8512V11.8799H134.582V10.8987H135.444V9.81865L136.727 9.43115V10.8974H138.17L138.171 11.8799Z" fill="white"/>
<path d="M145.106 16.7911H143.795V13.4411C143.795 12.3848 143.4 11.8561 142.609 11.8561C142.001 11.8561 141.586 12.1623 141.359 12.7748C141.32 12.9036 141.297 13.0611 141.297 13.2461V16.7898H139.989V8.19482H141.297V11.7461H141.322C141.735 11.0998 142.326 10.7773 143.092 10.7773C143.635 10.7773 144.084 10.9548 144.44 11.3111C144.884 11.7548 145.106 12.4148 145.106 13.2873V16.7911Z" fill="white"/>
<path d="M152.26 13.5658C152.26 13.8008 152.242 13.9983 152.211 14.1596H148.282C148.3 14.7421 148.487 15.1858 148.851 15.4933C149.184 15.7683 149.612 15.9058 150.137 15.9058C150.719 15.9058 151.249 15.8133 151.726 15.6271L151.931 16.5371C151.372 16.7796 150.715 16.9008 149.954 16.9008C149.041 16.9008 148.322 16.6321 147.802 16.0946C147.28 15.5571 147.021 14.8358 147.021 13.9308C147.021 13.0421 147.262 12.3021 147.749 11.7121C148.256 11.0821 148.942 10.7671 149.809 10.7671C150.656 10.7671 151.3 11.0821 151.735 11.7121C152.086 12.2121 152.26 12.8308 152.26 13.5658ZM151.01 13.2271C151.02 12.8383 150.934 12.5033 150.756 12.2208C150.529 11.8571 150.182 11.6746 149.714 11.6746C149.286 11.6746 148.937 11.8521 148.671 12.2083C148.454 12.4921 148.325 12.8308 148.282 13.2271H151.01Z" fill="white"/>
</g>
<defs>
<clipPath id="clip0_176_1736">
<rect width="168.75" height="50" fill="white" transform="translate(0.751068)"/>
</clipPath>
</defs>
</svg>
