<svg width="85" height="75" viewBox="0 0 85 75" fill="none" xmlns="http://www.w3.org/2000/svg">
<circle opacity="0.5" cx="47.5" cy="37.5" r="37.5" fill="#EDBABD"/>
<path d="M25.7394 40.325V63.9461C25.7394 66.0788 24.0354 68.107 21.9208 68.107C19.8098 68.107 18.113 66.0788 18.113 63.9461V40.5015C18.1164 39.9985 18.0203 39.4999 17.8303 39.0341C17.6404 38.5684 17.3603 38.1448 17.0061 37.7876C16.6519 37.4304 16.2307 37.1468 15.7666 36.9529C15.3025 36.759 14.8046 36.6587 14.3017 36.6577L29.4535 36.6613C27.3893 36.719 25.743 38.3256 25.743 40.3286L25.7394 40.325Z" fill="#FFD79F"/>
<path d="M14.3017 36.6541C16.4163 36.6541 18.113 38.3688 18.113 40.5015C18.1058 48.3187 18.113 56.1324 18.113 63.9461C18.113 66.0787 19.8098 68.1069 21.9208 68.1069C22.2522 68.1069 22.5692 68.0457 22.8755 67.952C21.2327 67.4549 20.0187 65.7437 20.0187 63.9461V40.5015C20.022 39.9982 19.9259 39.4992 19.7357 39.0332C19.5455 38.5673 19.265 38.1435 18.9105 37.7863C18.556 37.4291 18.1343 37.1454 17.6698 36.9518C17.2053 36.7581 16.707 36.6581 16.2037 36.6577L14.3017 36.6541Z" fill="#E7982A"/>
<path d="M23.8337 36.6868V63.9464C23.8337 65.7476 22.6161 67.4551 20.9698 67.9523C21.2774 68.0505 21.5979 68.1027 21.9208 68.1072C24.0354 68.1072 25.7394 66.079 25.7394 63.9464V36.6868H23.8337Z" fill="#E7982A"/>
<path d="M14.2981 36.6868C12.187 36.6868 10.4903 38.7185 10.4867 40.8476V64.2922C10.491 64.7958 10.3956 65.2952 10.206 65.7618C10.0165 66.2284 9.73656 66.6528 9.38231 67.0108C9.02806 67.3687 8.60651 67.653 8.14193 67.8474C7.67734 68.0417 7.1789 68.1423 6.67531 68.1432H21.8271V68.1324C19.7629 68.082 18.1166 66.4753 18.1166 64.4723L18.113 40.8476C18.113 38.7185 16.4091 36.6868 14.2945 36.6868H14.2981Z" fill="#FAF0E2"/>
<path d="M14.2981 36.6868C13.9738 36.6921 13.652 36.7456 13.3434 36.8453C14.9897 37.3424 16.2073 39.05 16.2037 40.8476L16.2073 65.4342C16.2073 66.5149 16.6973 67.4732 17.4682 68.1432H21.8271V68.1324C19.7629 68.082 18.1166 66.4753 18.1166 64.4723L18.113 40.8476C18.113 38.7185 16.4091 36.6868 14.2944 36.6868H14.2981Z" fill="#5348C8"/>
<path d="M10.4831 53.8413V63.9822C10.4831 66.1112 8.78273 68.143 6.6717 68.143C4.55707 68.143 2.86033 66.1112 2.86033 63.9822V53.8413H10.4831Z" fill="#FFD79F"/>
<path d="M25.7322 12.8603V64.4687C25.7322 66.4717 24.0823 68.082 22.0145 68.1288V68.1396H54.3319C56.4429 68.1396 58.1433 66.5005 58.1433 64.4687C58.1433 47.2635 58.1325 30.0619 58.1253 12.8567L25.7322 12.8603Z" fill="#FAF0E2"/>
<path d="M25.7322 12.8601V64.4686C25.7322 66.4715 24.0823 68.0818 22.0145 68.1286V68.1394H23.9238V68.1286C25.988 68.0818 27.6379 66.4715 27.6379 64.4686V12.8601H25.7322Z" fill="#F8F8F8"/>
<path d="M56.2196 12.8601C56.2268 30.0653 56.234 47.2669 56.234 64.4722C56.234 66.5039 54.5372 68.143 52.4262 68.143H54.3355C56.4429 68.143 58.1433 66.5039 58.1433 64.4722C58.1433 47.2669 58.1325 30.0653 58.1253 12.8601H56.2196Z" fill="#5348C8"/>
<path d="M29.5436 37.6418H35.2678V43.3589H29.54L29.5436 37.6418Z" fill="#FFD79F"/>
<path d="M29.5472 37.6418V43.3589H31.4564V37.6418H29.5472Z" fill="#F8F8F8"/>
<path d="M33.3585 37.6418V43.3589H35.2642V37.6418H33.3585ZM8.57739 53.842V63.9792C8.57739 65.7768 7.35977 67.4844 5.71346 67.9815C6.02208 68.0813 6.3438 68.1347 6.6681 68.14C8.77913 68.14 10.4831 66.1083 10.4795 63.9792V53.842H8.57739Z" fill="#E7982A"/>
<path d="M29.5436 47.1738H35.2678V52.8909H29.54L29.5436 47.1738ZM29.5436 56.7059H35.2678V62.4229H29.54L29.5436 56.7059Z" fill="#FFD79F"/>
<path d="M29.5472 47.1738V52.8909H31.4564V47.1774L29.5472 47.1738Z" fill="#F8F8F8"/>
<path d="M33.3585 47.1738V52.8909H35.2642V47.1774L33.3585 47.1738Z" fill="#E7982A"/>
<path d="M29.5472 56.7058V62.4229H31.4564V56.7058H29.5472Z" fill="#F8F8F8"/>
<path d="M33.3585 56.7058V62.4229H35.2642V56.7058H33.3585Z" fill="#E7982A"/>
<path d="M25.7327 11.9058C25.2084 11.9077 24.7833 12.3318 24.7814 12.8551V35.7379H14.297C13.6711 35.7361 13.051 35.8581 12.4723 36.0967C11.8937 36.3354 11.3679 36.686 10.9253 37.1285C10.4826 37.571 10.1317 38.0967 9.89281 38.6752C9.65392 39.2538 9.53172 39.8738 9.53323 40.4997V52.8904H2.85559C2.73042 52.8909 2.60658 52.9161 2.49113 52.9644C2.37569 53.0128 2.27089 53.0834 2.18274 53.1723C2.09459 53.2612 2.0248 53.3665 1.97736 53.4823C1.92993 53.5982 1.90577 53.7222 1.90627 53.8474C1.90818 57.3406 1.90627 60.8357 1.90627 64.3318C1.90565 64.9575 2.02845 65.5771 2.26765 66.1553C2.50685 66.7334 2.85776 67.2587 3.30026 67.701C3.74277 68.1434 4.26818 68.494 4.84642 68.733C5.42466 68.972 6.04435 69.0945 6.67003 69.0937H54.3323C54.9578 69.0942 55.5772 68.9713 56.1552 68.7322C56.7332 68.4931 57.2583 68.1424 57.7006 67.7001C58.1429 67.2578 58.4936 66.7327 58.7327 66.1547C58.9718 65.5767 59.0947 64.9573 59.0942 64.3318C59.0913 48.1248 59.0942 27.1559 59.0942 12.8551C59.0937 12.7299 59.0685 12.6061 59.0202 12.4906C58.9718 12.3752 58.9012 12.2704 58.8123 12.1822C58.7235 12.0941 58.6181 12.0243 58.5023 11.9769C58.3864 11.9294 58.2624 11.9053 58.1372 11.9058H25.7327ZM26.6877 13.8139H57.186C57.1898 32.4315 57.1879 46.2433 57.1879 64.3318C57.1887 64.707 57.1153 65.0787 56.9721 65.4255C56.8288 65.7723 56.6185 66.0874 56.3532 66.3527C56.0879 66.618 55.7728 66.8283 55.426 66.9716C55.0792 67.1148 54.7075 67.1882 54.3323 67.1874H25.7384C26.3602 66.3658 26.6939 65.3622 26.6877 64.3318V13.8139ZM33.3482 17.6112C33.223 17.6127 33.0994 17.6388 32.9843 17.6881C32.8692 17.7374 32.765 17.8089 32.6775 17.8984C32.5901 17.988 32.5212 18.0939 32.4746 18.2102C32.4281 18.3264 32.405 18.4506 32.4065 18.5758V19.5327H31.4495C30.6929 19.5362 29.9684 19.8385 29.4335 20.3737C28.8987 20.9088 28.597 21.6336 28.594 22.3902V24.2965C28.5972 25.0528 28.8991 25.7773 29.4339 26.3121C29.9688 26.8469 30.6932 27.1488 31.4495 27.1521H32.4065V30.9665H31.4495C31.3239 30.9699 31.199 30.9477 31.0823 30.9012C30.9655 30.8547 30.8595 30.7849 30.7707 30.696C30.6818 30.6072 30.612 30.5012 30.5655 30.3845C30.519 30.2677 30.4968 30.1428 30.5002 30.0172C30.5002 28.7457 28.594 28.7457 28.594 30.0172C28.5972 30.7735 28.8991 31.498 29.4339 32.0328C29.9688 32.5676 30.6932 32.8695 31.4495 32.8728H32.4065V33.8297C32.4065 35.1012 34.3127 35.1012 34.3127 33.8297V32.8728H35.264C36.0203 32.8695 36.7448 32.5676 37.2796 32.0328C37.8144 31.498 38.1163 30.7735 38.1196 30.0172V28.1109C38.1196 26.543 36.8319 25.2458 35.264 25.2458H34.3127V21.4409H35.264C35.3896 21.4375 35.5145 21.4597 35.6313 21.5062C35.748 21.5527 35.854 21.6225 35.9428 21.7113C36.0317 21.8002 36.1015 21.9062 36.148 22.0229C36.1945 22.1396 36.2167 22.2646 36.2133 22.3902C36.2133 23.6617 38.1196 23.6617 38.1196 22.3902C38.1166 21.6336 37.8148 20.9088 37.28 20.3737C36.7451 19.8385 36.0206 19.5362 35.264 19.5327H34.3127V18.5758C34.3143 18.4487 34.2904 18.3226 34.2425 18.2049C34.1945 18.0871 34.1235 17.9802 34.0337 17.8903C33.9438 17.8004 33.8368 17.7294 33.7191 17.6815C33.6014 17.6336 33.4753 17.6097 33.3482 17.6112ZM42.8909 19.5327C41.6633 19.5623 41.5718 21.358 42.8909 21.4409H54.3247C55.6048 21.4409 55.5971 19.5327 54.3247 19.5327H42.8909ZM31.4495 21.4409H32.4065V25.2458H31.4495C30.9053 25.2458 30.4926 24.8407 30.4926 24.2965V22.3902C30.4926 21.846 30.9053 21.4409 31.4495 21.4409ZM42.8909 25.2496C41.6481 25.2782 41.6481 27.1282 42.8909 27.1559H54.3247C55.6276 27.0873 55.5676 25.2992 54.3247 25.2496H42.8909ZM34.3127 27.1521H35.264C35.8082 27.1521 36.2133 27.5667 36.2133 28.1109V30.0172C36.2167 30.1428 36.1945 30.2677 36.148 30.3845C36.1015 30.5012 36.0317 30.6072 35.9428 30.696C35.854 30.7849 35.748 30.8547 35.6313 30.9012C35.5145 30.9477 35.3896 30.9699 35.264 30.9665H34.3127V27.1521ZM42.8909 30.9665C41.6328 31.0304 41.5994 32.8156 42.8909 32.8728H54.3247C55.6095 32.8156 55.5866 31.0161 54.3247 30.9665H42.8909ZM29.5433 36.6872C29.4181 36.6877 29.2943 36.7128 29.1788 36.7612C29.0634 36.8096 28.9586 36.8802 28.8704 36.9691C28.7823 37.0579 28.7125 37.1633 28.6651 37.2791C28.6176 37.3949 28.5935 37.519 28.594 37.6441V43.3572C28.5935 43.4824 28.6176 43.6064 28.6651 43.7222C28.7125 43.8381 28.7823 43.9434 28.8704 44.0323C28.9586 44.1212 29.0634 44.1918 29.1788 44.2401C29.2943 44.2885 29.4181 44.3137 29.5433 44.3142H35.264C35.3891 44.3137 35.513 44.2885 35.6284 44.2401C35.7439 44.1918 35.8487 44.1212 35.9368 44.0323C36.025 43.9434 36.0948 43.8381 36.1422 43.7222C36.1896 43.6064 36.2138 43.4824 36.2133 43.3572V37.6441C36.2138 37.519 36.1896 37.3949 36.1422 37.2791C36.0948 37.1633 36.025 37.0579 35.9368 36.9691C35.8487 36.8802 35.7439 36.8096 35.6284 36.7612C35.513 36.7128 35.3891 36.6877 35.264 36.6872H29.5433ZM14.297 37.6441C14.6726 37.6421 15.0448 37.7146 15.3922 37.8574C15.7395 38.0002 16.0551 38.2104 16.3207 38.476C16.5863 38.7416 16.7965 39.0572 16.9393 39.4045C17.0821 39.7519 17.1546 40.1242 17.1526 40.4997C17.1621 48.4574 17.1526 56.3741 17.1526 64.3318C17.1526 65.4079 17.5233 66.4154 18.1095 67.1874H10.4845C11.1092 66.3669 11.4456 65.3631 11.4414 64.3318V40.4997C11.4394 40.1242 11.5119 39.7519 11.6547 39.4045C11.7974 39.0572 12.0077 38.7416 12.2733 38.476C12.5388 38.2104 12.8544 38.0002 13.2018 37.8574C13.5492 37.7146 13.9214 37.6421 14.297 37.6441ZM18.0943 37.6441H24.7814L24.7795 64.3318C24.7803 64.707 24.7069 65.0787 24.5637 65.4255C24.4205 65.7723 24.2101 66.0874 23.9448 66.3527C23.6795 66.618 23.3644 66.8283 23.0176 66.9716C22.6708 67.1148 22.2992 67.1882 21.9239 67.1874C21.5483 67.1884 21.1762 67.1153 20.8288 66.9722C20.4815 66.8292 20.1658 66.619 19.8998 66.3537C19.6338 66.0885 19.4228 65.7733 19.2788 65.4264C19.1348 65.0794 19.0607 64.7075 19.0607 64.3318C19.0703 56.3741 19.0607 48.4526 19.0607 40.4997C19.0584 39.468 18.719 38.4652 18.0943 37.6441ZM30.4926 38.5935H34.307V42.4079H30.4926V38.5935ZM40.9847 39.5466C39.7342 39.6076 39.6856 41.3699 40.9627 41.4529H54.3257C55.5676 41.4243 55.5676 39.5742 54.3257 39.5466H40.9847ZM29.5433 46.2147C29.4181 46.2152 29.2943 46.2403 29.1788 46.2887C29.0634 46.3371 28.9586 46.4077 28.8704 46.4966C28.7823 46.5854 28.7125 46.6908 28.6651 46.8066C28.6176 46.9224 28.5935 47.0465 28.594 47.1716V52.8847C28.5935 53.0099 28.6176 53.1339 28.6651 53.2497C28.7125 53.3656 28.7823 53.4709 28.8704 53.5598C28.9586 53.6487 29.0634 53.7193 29.1788 53.7676C29.2943 53.816 29.4181 53.8412 29.5433 53.8417H35.264C35.3891 53.8412 35.513 53.816 35.6284 53.7676C35.7439 53.7193 35.8487 53.6487 35.9368 53.5598C36.025 53.4709 36.0948 53.3656 36.1422 53.2497C36.1896 53.1339 36.2138 53.0099 36.2133 52.8847V47.1716C36.2138 47.0465 36.1896 46.9224 36.1422 46.8066C36.0948 46.6908 36.025 46.5854 35.9368 46.4966C35.8487 46.4077 35.7439 46.3371 35.6284 46.2887C35.513 46.2403 35.3891 46.2152 35.264 46.2147H29.5433ZM30.4926 48.121H34.307V51.9354H30.4926V48.121ZM40.9847 49.076C39.6455 49.1618 39.7761 50.9842 40.9847 50.9842H54.3247C55.5971 50.9842 55.5971 49.076 54.3247 49.076H40.9847ZM3.81444 54.7967H9.53323V64.3318C9.53323 65.9331 8.23697 67.1874 6.67003 67.1874C6.29471 67.1885 5.92287 67.1155 5.5759 66.9723C5.22894 66.8292 4.91369 66.6189 4.6483 66.3535C4.38291 66.0882 4.17261 65.7729 4.0295 65.4259C3.8864 65.079 3.81331 64.7071 3.81444 64.3318C3.81635 61.1512 3.81444 57.9744 3.81444 54.7967ZM29.5433 55.746C29.4179 55.7465 29.294 55.7717 29.1784 55.8202C29.0628 55.8687 28.9579 55.9395 28.8698 56.0285C28.7816 56.1176 28.7118 56.2232 28.6645 56.3392C28.6172 56.4553 28.5932 56.5795 28.594 56.7049V62.4237C28.595 62.6751 28.6953 62.916 28.8731 63.0938C29.0509 63.2716 29.2918 63.372 29.5433 63.373H35.264C35.5154 63.372 35.7563 63.2716 35.9341 63.0938C36.1119 62.916 36.2123 62.6751 36.2133 62.4237V56.7049C36.214 56.5795 36.1901 56.4553 36.1428 56.3392C36.0954 56.2232 36.0257 56.1176 35.9375 56.0285C35.8493 55.9395 35.7444 55.8687 35.6289 55.8202C35.5133 55.7717 35.3893 55.7465 35.264 55.746H29.5433ZM30.4926 57.6542H34.307V61.4667H30.4926V57.6542ZM40.9847 58.6092C39.7132 58.6092 39.7132 60.5155 40.9847 60.5155H54.3571C54.9175 60.5155 55.2159 60.1409 55.2816 59.7263V59.3984C55.2159 58.9838 54.9175 58.6092 54.3571 58.6092H40.9847Z" fill="#B41C26"/>
</svg>
