<svg width="82" height="75" viewBox="0 0 82 75" fill="none" xmlns="http://www.w3.org/2000/svg">
<circle opacity="0.5" cx="27.5" cy="27.5" r="27.5" fill="#EDBABD"/>
<path d="M23.8 20.6699V29.1599V31.1099V33.9799V41.4999V51.2199V55.6899V59.2599H78.37V18.6899H44H40.04H36.56H27.56H24.51L23.8 20.6699Z" fill="#EDBABD"/>
<path d="M43.92 11.77C43.67 11.3 43.18 11 42.65 11H28.28C27.68 11 27.14 11.38 26.93 11.95L19.71 32.06C19.55 32.5 19.62 32.99 19.89 33.37C20.16 33.75 20.59 33.98 21.06 33.98H26.41L20.52 50.94C20.28 51.6 20.57 52.34 21.2 52.67C21.41 52.78 21.64 52.84 21.87 52.84C22.31 52.84 22.74 52.64 23.02 52.26L41.36 27.73C41.69 27.3 41.74 26.72 41.5 26.23C41.25 25.75 40.76 25.44 40.21 25.44H35.36L43.82 13.25C44.13 12.81 44.16 12.24 43.92 11.77ZM31.45 26.06C31.14 26.49 31.11 27.06 31.36 27.54C31.6 28.01 32.09 28.31 32.63 28.31H37.35L26.26 43.14L29.78 33.02C29.93 32.58 29.86 32.09 29.6 31.72C29.33 31.34 28.89 31.11 28.43 31.11H23.1L29.29 13.87H39.91L31.45 26.06Z" fill="black"/>
<path d="M32.63 28.3101H37.35L26.26 43.1401L29.78 33.0201C29.93 32.5801 29.86 32.0901 29.6 31.7201C29.33 31.3401 28.89 31.1101 28.43 31.1101H23.1L29.29 13.8701H39.91L31.45 26.0601C31.14 26.4901 31.11 27.0601 31.36 27.5401C31.6 28.0101 32.09 28.3101 32.63 28.3101Z" fill="#C61F2A"/>
<path d="M78.94 17.5601H45.4C44.61 17.5601 43.97 18.2001 43.97 18.9901C43.97 19.7901 44.61 20.4301 45.4 20.4301H77.51V58.4301H25.44V57.1001C25.44 56.3101 24.8 55.6701 24.01 55.6701C23.22 55.6701 22.57 56.3101 22.57 57.1001V73.5701C22.57 74.3601 23.22 75.0001 24.01 75.0001H78.94C79.73 75.0001 80.37 74.3601 80.37 73.5701V18.9901C80.37 18.2001 79.73 17.5601 78.94 17.5601ZM77.51 72.1301H25.44V61.3001H77.51V72.1301Z" fill="black"/>
<path d="M77.51 61.3H25.44V72.1301H77.51V61.3Z" fill="#FC424E"/>
</svg>
