<svg width="87" height="75" viewBox="0 0 87 75" fill="none" xmlns="http://www.w3.org/2000/svg">
<circle opacity="0.5" cx="49" cy="37.5" r="37.5" fill="#EDBABD"/>
<g clip-path="url(#clip0_176_2072)">
<path d="M15.9535 52.3094L22.3277 47.4285M19.1663 34.66L25.5405 39.539M46.3608 34.5704L39.9865 39.4495M49.5639 52.3492L43.1897 47.4702M32.7699 30.649V22.6426M32.7699 49.0523V53.8561" stroke="#C61F2A" stroke-width="2.0306" stroke-linecap="round" stroke-linejoin="round"/>
<path d="M47.7501 58.9211V58.3206C47.7501 57.7442 48.1986 57.2318 48.7111 56.9756C50.1948 56.1738 51.6919 55.3972 53.2019 54.6458L56.4562 54.6089C56.6484 54.737 58.5062 55.5697 61.2577 57.107C61.7702 57.4272 61.9624 57.9395 61.9624 58.5785V58.9581" fill="#FFFECB"/>
<path d="M47.7501 58.9211V58.3206C47.7501 57.7442 48.1986 57.2318 48.7111 56.9756C50.1948 56.1738 51.6919 55.3972 53.2019 54.6458L56.4562 54.6089C56.6484 54.737 58.5062 55.5697 61.2577 57.107C61.7702 57.4272 61.9624 57.9395 61.9624 58.5785V58.9581" stroke="#C61F2A" stroke-width="2.0306" stroke-linecap="round" stroke-linejoin="round"/>
<path d="M53.2019 54.6456L56.4562 54.6086M54.8194 47.3501C53.4581 47.3501 52.3642 48.4437 52.3642 49.8032V52.2067C52.3642 53.5678 53.764 54.6614 54.8194 54.6614C55.8749 54.6614 57.2746 53.5662 57.2746 52.2067V49.8048C57.2753 49.4823 57.2122 49.1627 57.089 48.8646C56.9659 48.5665 56.785 48.2957 56.5569 48.0677C56.3288 47.8396 56.0579 47.6587 55.7597 47.5356C55.4616 47.4125 55.142 47.3495 54.8194 47.3501Z" stroke="#C61F2A" stroke-width="2.0306" stroke-linecap="round" stroke-linejoin="round"/>
<path d="M49.7733 34.6047V34.0042C49.7733 33.4278 50.2217 32.9154 50.7342 32.6592C52.2179 31.8574 53.7151 31.0808 55.225 30.3294L58.4793 30.2925C58.6715 30.4206 60.5293 31.2533 63.2808 32.7906C63.7933 33.1108 63.9855 33.6231 63.9855 34.262V34.6416" fill="#4C42B6"/>
<path d="M49.7733 34.6047V34.0042C49.7733 33.4278 50.2217 32.9154 50.7342 32.6592C52.2179 31.8574 53.7151 31.0808 55.225 30.3294L58.4793 30.2925C58.6715 30.4206 60.5293 31.2533 63.2808 32.7906C63.7933 33.1108 63.9855 33.6231 63.9855 34.262V34.6416" stroke="#C61F2A" stroke-width="2.0306" stroke-linecap="round" stroke-linejoin="round"/>
<path d="M55.225 30.3296L58.4793 30.2927M56.8425 23.0342C55.4812 23.0342 54.3873 24.1278 54.3873 25.4873V27.8908C54.3873 29.2519 55.7871 30.3455 56.8425 30.3455C57.898 30.3455 59.2977 29.2503 59.2977 27.8908V25.4889C59.2984 25.1663 59.2353 24.8468 59.1121 24.5487C58.989 24.2506 58.8081 23.9798 58.58 23.7517C58.3519 23.5237 58.081 23.3428 57.7829 23.2197C57.4847 23.0965 57.1651 23.0336 56.8425 23.0342Z" stroke="#C61F2A" stroke-width="2.0306" stroke-linecap="round" stroke-linejoin="round"/>
<path d="M25.378 19.0881V18.4876C25.378 17.9112 25.8264 17.3988 26.3389 17.1426C27.8226 16.3408 29.3198 15.5642 30.8297 14.8128L34.084 14.7759C34.2762 14.904 36.134 15.7367 38.8855 17.274C39.398 17.5942 39.5902 18.1065 39.5902 18.7454V19.125" fill="#FFFECB"/>
<path d="M25.378 19.0881V18.4876C25.378 17.9112 25.8264 17.3988 26.3389 17.1426C27.8226 16.3408 29.3198 15.5642 30.8297 14.8128L34.084 14.7759C34.2762 14.904 36.134 15.7367 38.8855 17.274C39.398 17.5942 39.5902 18.1065 39.5902 18.7454V19.125" stroke="#C61F2A" stroke-width="2.0306" stroke-linecap="round" stroke-linejoin="round"/>
<path d="M30.8297 14.8128L34.084 14.7759M32.4472 7.51734C31.0859 7.51734 29.992 8.61098 29.992 9.97046V12.3739C29.992 13.735 31.3918 14.8286 32.4472 14.8286C33.5027 14.8286 34.9024 13.7334 34.9024 12.3739V9.97203C34.9031 9.64949 34.84 9.32994 34.7168 9.03183C34.5937 8.73372 34.4128 8.46297 34.1847 8.2349C33.9566 8.00683 33.6857 7.82598 33.3875 7.70284C33.0894 7.5797 32.7698 7.51671 32.4472 7.51734Z" stroke="#C61F2A" stroke-width="2.0306" stroke-linecap="round" stroke-linejoin="round"/>
<path d="M1.92717 34.6047V34.0042C1.92717 33.4278 2.37562 32.9154 2.88811 32.6592C4.37184 31.8574 5.86898 31.0808 7.37889 30.3294L10.6333 30.2925C10.8254 30.4206 12.6833 31.2533 15.4347 32.7906C15.9472 33.1108 16.1394 33.6231 16.1394 34.262V34.6416" fill="#4C42B6"/>
<path d="M1.92717 34.6047V34.0042C1.92717 33.4278 2.37562 32.9154 2.88811 32.6592C4.37184 31.8574 5.86898 31.0808 7.37889 30.3294L10.6333 30.2925C10.8254 30.4206 12.6833 31.2533 15.4347 32.7906C15.9472 33.1108 16.1394 33.6231 16.1394 34.262V34.6416" stroke="#C61F2A" stroke-width="2.0306" stroke-linecap="round" stroke-linejoin="round"/>
<path d="M7.37888 30.3296L10.6332 30.2927M8.99645 23.0342C7.63512 23.0342 6.54125 24.1278 6.54125 25.4873V27.8908C6.54125 29.2519 7.94102 30.3455 8.99645 30.3455C10.0519 30.3455 11.4516 29.2503 11.4516 27.8908V25.4889C11.4523 25.1663 11.3892 24.8468 11.266 24.5487C11.1429 24.2506 10.962 23.9798 10.7339 23.7517C10.5058 23.5237 10.2349 23.3428 9.93677 23.2197C9.63861 23.0965 9.31905 23.0336 8.99645 23.0342Z" stroke="#C61F2A" stroke-width="2.0306" stroke-linecap="round" stroke-linejoin="round"/>
<path d="M1.0192 57.9094V57.3089C1.0192 56.7325 1.46765 56.2201 1.98015 55.9639C3.46387 55.1621 4.96101 54.3854 6.47092 53.6341L9.72529 53.5972C9.91747 53.7253 11.7753 54.558 14.5268 56.0953C15.0393 56.4155 15.2315 56.9278 15.2315 57.5667V57.9463" fill="#FFFECB"/>
<path d="M1.0192 57.9094V57.3089C1.0192 56.7325 1.46765 56.2201 1.98015 55.9639C3.46387 55.1621 4.96101 54.3854 6.47092 53.6341L9.72529 53.5972C9.91747 53.7253 11.7753 54.558 14.5268 56.0953C15.0393 56.4155 15.2315 56.9278 15.2315 57.5667V57.9463" stroke="#C61F2A" stroke-width="2.0306" stroke-linecap="round" stroke-linejoin="round"/>
<path d="M6.47092 53.6338L9.72528 53.5969M8.08848 46.3384C6.72716 46.3384 5.63329 47.432 5.63329 48.7915V51.195C5.63329 52.5561 7.03306 53.6497 8.08848 53.6497C9.14391 53.6497 10.5437 52.5545 10.5437 51.195V48.7931C10.5443 48.4705 10.4812 48.151 10.3581 47.8529C10.2349 47.5548 10.0541 47.284 9.82597 47.0559C9.59785 46.8279 9.32697 46.647 9.0288 46.5239C8.73064 46.4007 8.41108 46.3378 8.08848 46.3384Z" stroke="#C61F2A" stroke-width="2.0306" stroke-linecap="round" stroke-linejoin="round"/>
<path d="M25.378 69.2317V68.6312C25.378 68.0547 25.8264 67.5424 26.3389 67.2862C27.8226 66.4844 29.3198 65.7077 30.8297 64.9564L34.084 64.9194C34.2762 65.0475 36.134 65.8803 38.8855 67.4175C39.398 67.7378 39.5902 68.2501 39.5902 68.889V69.2686" fill="#4C42B6"/>
<path d="M25.378 69.2317V68.6312C25.378 68.0547 25.8264 67.5424 26.3389 67.2862C27.8226 66.4844 29.3198 65.7077 30.8297 64.9564L34.084 64.9194C34.2762 65.0475 36.134 65.8803 38.8855 67.4175C39.398 67.7378 39.5902 68.2501 39.5902 68.889V69.2686" stroke="#C61F2A" stroke-width="2.0306" stroke-linecap="round" stroke-linejoin="round"/>
<path d="M30.8297 64.9561L34.084 64.9192M32.4472 57.6606C31.0859 57.6606 29.992 58.7543 29.992 60.1138V62.5173C29.992 63.8783 31.3918 64.9719 32.4472 64.9719C33.5027 64.9719 34.9024 63.8767 34.9024 62.5173V60.1153C34.9031 59.7928 34.84 59.4732 34.7168 59.1751C34.5937 58.877 34.4128 58.6063 34.1847 58.3782C33.9566 58.1501 33.6857 57.9693 33.3875 57.8461C33.0894 57.723 32.7698 57.66 32.4472 57.6606Z" stroke="#C61F2A" stroke-width="2.0306" stroke-linecap="round" stroke-linejoin="round"/>
<path d="M25.8492 46.6052V46.0047C25.8492 45.4283 26.2977 44.9159 26.8101 44.6597C28.2939 43.8579 29.791 43.0812 31.3009 42.3299L34.5553 42.293C34.7475 42.4211 36.6053 43.2538 39.3568 44.7911C39.8693 45.1113 40.0615 45.6236 40.0615 46.2625V46.6421" stroke="#C61F2A" stroke-width="2.0306" stroke-linecap="round" stroke-linejoin="round"/>
<path d="M31.3009 42.3301L34.5553 42.2932M32.9185 35.0347C31.5572 35.0347 30.4633 36.1283 30.4633 37.4878V39.8913C30.4633 41.2524 31.8631 42.346 32.9185 42.346C33.9739 42.346 35.3737 41.2508 35.3737 39.8913V37.4894C35.3743 37.1668 35.3112 36.8473 35.1881 36.5492C35.0649 36.251 34.8841 35.9803 34.656 35.7522C34.4278 35.5242 34.157 35.3433 33.8588 35.2202C33.5606 35.097 33.2411 35.034 32.9185 35.0347Z" stroke="#C61F2A" stroke-width="2.0306" stroke-linecap="round" stroke-linejoin="round"/>
</g>
<defs>
<clipPath id="clip0_176_2072">
<rect width="65" height="65" fill="white" transform="translate(0 6.5)"/>
</clipPath>
</defs>
</svg>
