<svg width="97" height="77" viewBox="0 0 97 77" fill="none" xmlns="http://www.w3.org/2000/svg">
<circle opacity="0.5" cx="27.5" cy="27.5" r="27.5" fill="#EDBABD"/>
<g clip-path="url(#clip0_176_2045)">
<path d="M92.5 40.5547H71.1719C69.515 40.5547 68.1719 41.8978 68.1719 43.5547V70.3672C68.1719 72.024 69.515 73.3672 71.1719 73.3672H92.5C94.1569 73.3672 95.5 72.024 95.5 70.3672V43.5547C95.5 41.8978 94.1569 40.5547 92.5 40.5547Z" fill="#E2434B"/>
<path d="M81.8359 16.2266L52.6797 26.7969L23.5 16.2266L52.6797 5.63281L81.8359 16.2266Z" fill="#E2434B"/>
<path d="M93.625 42.8047H72.2969C71.2613 42.8047 70.4219 43.6442 70.4219 44.6797V71.4922C70.4219 72.5277 71.2613 73.3672 72.2969 73.3672H93.625C94.6605 73.3672 95.5 72.5277 95.5 71.4922V44.6797C95.5 43.6442 94.6605 42.8047 93.625 42.8047Z" fill="#FEE9D7"/>
<path d="M81.0156 47.9844H74.5469C74.4174 47.9844 74.3125 48.0893 74.3125 48.2187V54.6875C74.3125 54.8169 74.4174 54.9219 74.5469 54.9219H81.0156C81.1451 54.9219 81.25 54.8169 81.25 54.6875V48.2187C81.25 48.0893 81.1451 47.9844 81.0156 47.9844Z" fill="#E2434B"/>
<path d="M25.75 52.3438V18.9453L52.6797 28.6953V64.3203L25.75 52.3438Z" fill="#E2434B"/>
<path d="M36.3672 57.0781L36.3906 22.8125L42.0156 24.8516L41.9922 59.5625L36.3672 57.0781Z" fill="#FEE9D7"/>
<path d="M54.9297 28.6953L81.8359 18.9453V40.5547H72.2734C71.7328 40.5547 71.1976 40.6615 70.6984 40.8691C70.1992 41.0767 69.7461 41.3809 69.3649 41.7643C68.9837 42.1476 68.6821 42.6026 68.4773 43.1029C68.2726 43.6032 68.1688 44.1391 68.1719 44.6797V58.4375L54.9297 64.3203V28.6953Z" fill="#E2434B"/>
<path d="M27.9297 17.3516L53.8047 7.95312L79.6562 17.3516L53.8047 26.7266L27.9297 17.3516Z" fill="#FEE9D7"/>
<path d="M92.5 40.5547H71.1719C69.515 40.5547 68.1719 41.8978 68.1719 43.5547V70.3672C68.1719 72.024 69.515 73.3672 71.1719 73.3672H92.5C94.1569 73.3672 95.5 72.024 95.5 70.3672V43.5547C95.5 41.8978 94.1569 40.5547 92.5 40.5547Z" stroke="#34222E" stroke-width="2.25" stroke-linecap="round" stroke-linejoin="round" stroke-dasharray="11.25 3.38 119.25 4.5"/>
<path d="M79.8906 45.7344H73.4219C72.6711 45.7344 72.0625 46.343 72.0625 47.0937V53.5625C72.0625 54.3133 72.6711 54.9219 73.4219 54.9219H79.8906C80.6414 54.9219 81.25 54.3133 81.25 53.5625V47.0937C81.25 46.343 80.6414 45.7344 79.8906 45.7344Z" stroke="#34222E" stroke-width="2.25" stroke-linecap="round" stroke-linejoin="round"/>
<path d="M84.9297 45.7344H91.6094" stroke="#34222E" stroke-width="2.25" stroke-linecap="round" stroke-linejoin="round"/>
<path d="M84.9297 50.2578H91.6094" stroke="#F9BF8F" stroke-width="2.25" stroke-linecap="round" stroke-linejoin="round"/>
<path d="M84.9297 54.7578H91.6094" stroke="#34222E" stroke-width="2.25" stroke-linecap="round" stroke-linejoin="round"/>
<path d="M72.0625 59.2578H91.6094" stroke="#F9BF8F" stroke-width="2.25" stroke-linecap="round" stroke-linejoin="round"/>
<path d="M72.0625 63.7812H91.6094" stroke="#34222E" stroke-width="2.25" stroke-linecap="round" stroke-linejoin="round"/>
<path d="M72.0625 68.2812H91.6094" stroke="#F9BF8F" stroke-width="2.25" stroke-linecap="round" stroke-linejoin="round"/>
<path d="M52.6797 26.7969V64.9297L23.5 51.9453V16.2266L52.6797 26.7969Z" stroke="#34222E" stroke-width="2.25" stroke-linecap="round" stroke-linejoin="round"/>
<path d="M41.9922 60.1719L42.0156 22.9297L34.1641 20.0703L34.1172 56.6797L41.9922 60.1719ZM81.8359 16.2266V40.5547H71.2187C70.8259 40.5547 70.4369 40.6324 70.0742 40.7835C69.7116 40.9345 69.3824 41.1559 69.1057 41.4348C68.829 41.7137 68.6102 42.0446 68.462 42.4084C68.3138 42.7723 68.2391 43.1618 68.2422 43.5547V58.0391L52.75 64.9297V26.7969L81.8359 16.2266Z" stroke="#34222E" stroke-width="2.25" stroke-linecap="round" stroke-linejoin="round"/>
<path d="M81.8359 16.2266L52.6797 26.7969L23.5 16.2266L52.6797 5.63281L81.8359 16.2266Z" stroke="#34222E" stroke-width="2.25" stroke-linecap="round" stroke-linejoin="round"/>
</g>
<defs>
<clipPath id="clip0_176_2045">
<rect width="75" height="75" fill="white" transform="translate(22 2)"/>
</clipPath>
</defs>
</svg>
