<svg width="100" height="100" viewBox="0 0 100 100" fill="none" xmlns="http://www.w3.org/2000/svg">
<path d="M76.937 29.5V28.5C76.937 25.2 74.237 22.5 70.937 22.5H64.187C60.887 22.5 58.187 25.2 58.187 28.5V29.5H76.937Z" fill="#B1A4A5"/>
<path d="M83 29.5002H46V85.5002H89V35.5002C89 32.2002 86.3 29.5002 83 29.5002Z" fill="#E0DADA"/>
<path d="M46.042 29.5002H46V85.5002H89V72.3762L46.042 29.5002Z" fill="#D2C7C8"/>
<path d="M92.5 85.5002H7.5C7.10218 85.5002 6.72064 85.6583 6.43934 85.9396C6.15804 86.2209 6 86.6024 6 87.0002C6 87.3981 6.15804 87.7796 6.43934 88.0609C6.72064 88.3422 7.10218 88.5002 7.5 88.5002H92.5C92.8978 88.5002 93.2794 88.3422 93.5607 88.0609C93.842 87.7796 94 87.3981 94 87.0002C94 86.6024 93.842 86.2209 93.5607 85.9396C93.2794 85.6583 92.8978 85.5002 92.5 85.5002Z" fill="#C61F2A"/>
<path d="M46 85.5002V17.5002C46 14.2002 43.3 11.5002 40 11.5002H17C13.7 11.5002 11 14.2002 11 17.5002V85.5002H46Z" fill="#EA1B29"/>
<path d="M21 75H36C36.3978 75 36.7794 74.842 37.0607 74.5607C37.342 74.2794 37.5 73.8978 37.5 73.5C37.5 73.1022 37.342 72.7206 37.0607 72.4393C36.7794 72.158 36.3978 72 36 72H21C20.6022 72 20.2206 72.158 19.9393 72.4393C19.658 72.7206 19.5 73.1022 19.5 73.5C19.5 73.8978 19.658 74.2794 19.9393 74.5607C20.2206 74.842 20.6022 75 21 75ZM21 65H36C36.3978 65 36.7794 64.842 37.0607 64.5607C37.342 64.2794 37.5 63.8978 37.5 63.5C37.5 63.1022 37.342 62.7206 37.0607 62.4393C36.7794 62.158 36.3978 62 36 62H21C20.6022 62 20.2206 62.158 19.9393 62.4393C19.658 62.7206 19.5 63.1022 19.5 63.5C19.5 63.8978 19.658 64.2794 19.9393 64.5607C20.2206 64.842 20.6022 65 21 65ZM21 55H36C36.3978 55 36.7794 54.842 37.0607 54.5607C37.342 54.2794 37.5 53.8978 37.5 53.5C37.5 53.1022 37.342 52.7206 37.0607 52.4393C36.7794 52.158 36.3978 52 36 52H21C20.6022 52 20.2206 52.158 19.9393 52.4393C19.658 52.7206 19.5 53.1022 19.5 53.5C19.5 53.8978 19.658 54.2794 19.9393 54.5607C20.2206 54.842 20.6022 55 21 55ZM21 45H36C36.3978 45 36.7794 44.842 37.0607 44.5607C37.342 44.2794 37.5 43.8978 37.5 43.5C37.5 43.1022 37.342 42.7206 37.0607 42.4393C36.7794 42.158 36.3978 42 36 42H21C20.6022 42 20.2206 42.158 19.9393 42.4393C19.658 42.7206 19.5 43.1022 19.5 43.5C19.5 43.8978 19.658 44.2794 19.9393 44.5607C20.2206 44.842 20.6022 45 21 45ZM21 35H36C36.3978 35 36.7794 34.842 37.0607 34.5607C37.342 34.2794 37.5 33.8978 37.5 33.5C37.5 33.1022 37.342 32.7206 37.0607 32.4393C36.7794 32.158 36.3978 32 36 32H21C20.6022 32 20.2206 32.158 19.9393 32.4393C19.658 32.7206 19.5 33.1022 19.5 33.5C19.5 33.8978 19.658 34.2794 19.9393 34.5607C20.2206 34.842 20.6022 35 21 35ZM21 25H36C36.197 25 36.392 24.9612 36.574 24.8858C36.756 24.8104 36.9214 24.6999 37.0607 24.5607C37.1999 24.4214 37.3104 24.256 37.3858 24.074C37.4612 23.892 37.5 23.697 37.5 23.5C37.5 23.303 37.4612 23.108 37.3858 22.926C37.3104 22.744 37.1999 22.5786 37.0607 22.4393C36.9214 22.3001 36.756 22.1896 36.574 22.1142C36.392 22.0388 36.197 22 36 22H21C20.803 22 20.608 22.0388 20.426 22.1142C20.244 22.1896 20.0786 22.3001 19.9393 22.4393C19.8001 22.5786 19.6896 22.744 19.6142 22.926C19.5388 23.108 19.5 23.303 19.5 23.5C19.5 23.697 19.5388 23.892 19.6142 24.074C19.6896 24.256 19.8001 24.4214 19.9393 24.5607C20.0786 24.6999 20.244 24.8104 20.426 24.8858C20.608 24.9612 20.803 25 21 25ZM54 75H61C61.3978 75 61.7794 74.842 62.0607 74.5607C62.342 74.2794 62.5 73.8978 62.5 73.5C62.5 73.1022 62.342 72.7206 62.0607 72.4393C61.7794 72.158 61.3978 72 61 72H54C53.6022 72 53.2206 72.158 52.9393 72.4393C52.658 72.7206 52.5 73.1022 52.5 73.5C52.5 73.8978 52.658 74.2794 52.9393 74.5607C53.2206 74.842 53.6022 75 54 75ZM54 65H61C61.3978 65 61.7794 64.842 62.0607 64.5607C62.342 64.2794 62.5 63.8978 62.5 63.5C62.5 63.1022 62.342 62.7206 62.0607 62.4393C61.7794 62.158 61.3978 62 61 62H54C53.6022 62 53.2206 62.158 52.9393 62.4393C52.658 62.7206 52.5 63.1022 52.5 63.5C52.5 63.8978 52.658 64.2794 52.9393 64.5607C53.2206 64.842 53.6022 65 54 65ZM54 55H61C61.3978 55 61.7794 54.842 62.0607 54.5607C62.342 54.2794 62.5 53.8978 62.5 53.5C62.5 53.1022 62.342 52.7206 62.0607 52.4393C61.7794 52.158 61.3978 52 61 52H54C53.6022 52 53.2206 52.158 52.9393 52.4393C52.658 52.7206 52.5 53.1022 52.5 53.5C52.5 53.8978 52.658 54.2794 52.9393 54.5607C53.2206 54.842 53.6022 55 54 55ZM54 45H61C61.3978 45 61.7794 44.842 62.0607 44.5607C62.342 44.2794 62.5 43.8978 62.5 43.5C62.5 43.1022 62.342 42.7206 62.0607 42.4393C61.7794 42.158 61.3978 42 61 42H54C53.6022 42 53.2206 42.158 52.9393 42.4393C52.658 42.7206 52.5 43.1022 52.5 43.5C52.5 43.8978 52.658 44.2794 52.9393 44.5607C53.2206 44.842 53.6022 45 54 45ZM70 75H77C77.3978 75 77.7794 74.842 78.0607 74.5607C78.342 74.2794 78.5 73.8978 78.5 73.5C78.5 73.1022 78.342 72.7206 78.0607 72.4393C77.7794 72.158 77.3978 72 77 72H70C69.6022 72 69.2206 72.158 68.9393 72.4393C68.658 72.7206 68.5 73.1022 68.5 73.5C68.5 73.8978 68.658 74.2794 68.9393 74.5607C69.2206 74.842 69.6022 75 70 75ZM70 65H77C77.3978 65 77.7794 64.842 78.0607 64.5607C78.342 64.2794 78.5 63.8978 78.5 63.5C78.5 63.1022 78.342 62.7206 78.0607 62.4393C77.7794 62.158 77.3978 62 77 62H70C69.6022 62 69.2206 62.158 68.9393 62.4393C68.658 62.7206 68.5 63.1022 68.5 63.5C68.5 63.8978 68.658 64.2794 68.9393 64.5607C69.2206 64.842 69.6022 65 70 65ZM70 55H77C77.3978 55 77.7794 54.842 78.0607 54.5607C78.342 54.2794 78.5 53.8978 78.5 53.5C78.5 53.1022 78.342 52.7206 78.0607 52.4393C77.7794 52.158 77.3978 52 77 52H70C69.6022 52 69.2206 52.158 68.9393 52.4393C68.658 52.7206 68.5 53.1022 68.5 53.5C68.5 53.8978 68.658 54.2794 68.9393 54.5607C69.2206 54.842 69.6022 55 70 55ZM70 45H77C77.3978 45 77.7794 44.842 78.0607 44.5607C78.342 44.2794 78.5 43.8978 78.5 43.5C78.5 43.1022 78.342 42.7206 78.0607 42.4393C77.7794 42.158 77.3978 42 77 42H70C69.6022 42 69.2206 42.158 68.9393 42.4393C68.658 42.7206 68.5 43.1022 68.5 43.5C68.5 43.8978 68.658 44.2794 68.9393 44.5607C69.2206 44.842 69.6022 45 70 45Z" fill="#541F22"/>
</svg>
