<svg width="50" height="44" viewBox="0 0 50 44" fill="none" xmlns="http://www.w3.org/2000/svg">
<g clip-path="url(#clip0_281_657)">
<path d="M24.9363 27.4511V35.1208C24.945 35.4561 24.8854 35.7897 24.7611 36.1013C24.6367 36.4128 24.4503 36.6958 24.2131 36.933C23.9759 37.1702 23.6929 37.3566 23.3814 37.4809C23.0698 37.6053 22.7362 37.6649 22.4009 37.6562H14.034L8.45615 43.7412L7.06167 37.6562H3.25855C2.58612 37.6562 1.94123 37.3891 1.46575 36.9136C0.990267 36.4381 0.723145 35.7932 0.723145 35.1208V23.3311C0.723145 22.6587 0.990267 22.0138 1.46575 21.5383C1.94123 21.0628 2.58612 20.7957 3.25855 20.7957H10.0408V22.3803C10.0408 23.7252 10.575 25.015 11.526 25.9659C12.4769 26.9169 13.7667 27.4511 15.1116 27.4511H24.9363Z" fill="#EA959B"/>
<path d="M24.7456 27.7047H14.9209C13.5761 27.7047 12.2863 27.1704 11.3353 26.2195C10.3843 25.2685 9.8501 23.9787 9.8501 22.6339V5.32966C9.8501 3.98479 10.3843 2.695 11.3353 1.74404C12.2863 0.793074 13.5761 0.258827 14.9209 0.258827H44.2049C45.5498 0.258827 46.8396 0.793074 47.7905 1.74404C48.7415 2.695 49.2757 3.98479 49.2757 5.32966V22.6339C49.2757 23.9787 48.7415 25.2685 47.7905 26.2195C46.8396 27.1704 45.5498 27.7047 44.2049 27.7047H39.0073L36.7254 37.6562L27.6614 27.7047H24.7456Z" fill="#EF0011"/>
<path d="M31.7814 11.3513H16.569C16.2328 11.3513 15.9103 11.2177 15.6726 10.98C15.4348 10.7422 15.3013 10.4198 15.3013 10.0836C15.3013 9.74734 15.4348 9.42489 15.6726 9.18715C15.9103 8.94941 16.2328 8.81585 16.569 8.81585H31.7814C32.1177 8.81585 32.4401 8.94941 32.6778 9.18715C32.9156 9.42489 33.0491 9.74734 33.0491 10.0836C33.0491 10.4198 32.9156 10.7422 32.6778 10.98C32.4401 11.2177 32.1177 11.3513 31.7814 11.3513ZM41.9231 18.9575H16.569C16.2328 18.9575 15.9103 18.8239 15.6726 18.5862C15.4348 18.3485 15.3013 18.026 15.3013 17.6898C15.3013 17.3536 15.4348 17.0311 15.6726 16.7934C15.9103 16.5557 16.2328 16.4221 16.569 16.4221H41.9231C42.2593 16.4221 42.5817 16.5557 42.8195 16.7934C43.0572 17.0311 43.1908 17.3536 43.1908 17.6898C43.1908 18.026 43.0572 18.3485 42.8195 18.5862C42.5817 18.8239 42.2593 18.9575 41.9231 18.9575Z" fill="#EA959B"/>
</g>
<defs>
<clipPath id="clip0_281_657">
<rect width="49.1764" height="44" fill="white" transform="translate(0.411621)"/>
</clipPath>
</defs>
</svg>
