<svg width="48" height="48" viewBox="0 0 48 48" fill="none" xmlns="http://www.w3.org/2000/svg">
<path d="M44.28 15.225L24.78 3.225C24.552 3.09335 24.2933 3.02404 24.03 3.02404C23.7667 3.02404 23.508 3.09335 23.28 3.225L3.78 15.225C3.54987 15.3508 3.35675 15.5347 3.21988 15.7584C3.08302 15.9821 3.00721 16.2378 3 16.5V43.5C3 43.8978 3.15804 44.2794 3.43934 44.5607C3.72064 44.842 4.10218 45 4.5 45H43.5C43.8978 45 44.2794 44.842 44.5607 44.5607C44.842 44.2794 45 43.8978 45 43.5V16.5C44.9989 16.2437 44.9322 15.9919 44.8061 15.7687C44.6801 15.5455 44.499 15.3583 44.28 15.225Z" fill="#FF8C94"/>
<path d="M44.28 15.225L24.78 3.225C24.5456 3.07973 24.2757 3.00188 24 3V45H43.5C43.8978 45 44.2794 44.842 44.5607 44.5607C44.842 44.2794 45 43.8978 45 43.5V16.5C44.9989 16.2437 44.9322 15.9919 44.8061 15.7687C44.6801 15.5455 44.499 15.3583 44.28 15.225Z" fill="#F95F69"/>
<path d="M44.2801 15.225L24.7801 3.225C24.5521 3.09335 24.2934 3.02404 24.0301 3.02404C23.7668 3.02404 23.5082 3.09335 23.2801 3.225L3.78014 15.225C3.56307 15.3595 3.38395 15.5472 3.25973 15.7704C3.13551 15.9935 3.07031 16.2446 3.07031 16.5C3.07031 16.7554 3.13551 17.0065 3.25973 17.2296C3.38395 17.4528 3.56307 17.6405 3.78014 17.775L23.2801 29.775C23.5082 29.9067 23.7668 29.976 24.0301 29.976C24.2934 29.976 24.5521 29.9067 24.7801 29.775L44.2801 17.775C44.4972 17.6405 44.6763 17.4528 44.8005 17.2296C44.9248 17.0065 44.99 16.7554 44.99 16.5C44.99 16.2446 44.9248 15.9935 44.8005 15.7704C44.6763 15.5472 44.4972 15.3595 44.2801 15.225Z" fill="#F95F69"/>
<path d="M44.28 15.225L24.78 3.225C24.5456 3.07973 24.2757 3.00188 24 3V30C24.2757 29.9981 24.5456 29.9203 24.78 29.775L44.28 17.775C44.4971 17.6405 44.6762 17.4528 44.8004 17.2296C44.9246 17.0065 44.9898 16.7554 44.9898 16.5C44.9898 16.2446 44.9246 15.9935 44.8004 15.7704C44.6762 15.5472 44.4971 15.3595 44.28 15.225Z" fill="#ED404B"/>
</svg>
