<svg width="130" height="32" viewBox="0 0 130 32" fill="none" xmlns="http://www.w3.org/2000/svg">
<path d="M27.0556 0.984634C27.0927 1.54213 27.0187 2.10152 26.8377 2.63015C26.6568 3.15879 26.3725 3.64614 26.0015 4.06406C25.6305 4.48199 25.1801 4.82197 24.6765 5.06445C24.1729 5.30694 23.6262 5.44685 23.068 5.47635C23.068 5.47635 17.1814 6.0038 13.5102 6.76301C9.83897 7.52221 8.27761 8.87191 6.5475 13.0897C6.23464 11.1572 6.59384 9.17557 7.56517 7.47558C8.53649 5.7756 10.0613 4.46003 11.8855 3.74742C13.7478 3.26347 15.6355 2.8832 17.54 2.60853C20.7445 2.27959 23.9235 1.73706 27.0556 0.984634Z" fill="white"/>
<path d="M24.2283 7.37466C21.6273 8.0278 18.9932 8.54166 16.3374 8.91412C14.7599 9.13582 13.1962 9.44549 11.6534 9.84192C10.3789 10.2897 9.26864 11.1105 8.46713 12.1974C7.66562 13.2844 7.20995 14.5876 7.15933 15.9369C7.15933 15.9369 7.15933 16.0843 7.15933 16.1686C7.15933 16.5904 7.15933 16.9278 7.15933 17.1809C7.15933 20.3442 7.30702 27.7254 7.15933 28.2737C7.15933 28.2737 7.15934 29.7078 4.92285 30.9943C4.92285 30.9943 10.1132 30.8678 10.1132 27.3459C10.1132 27.3459 10.282 19.1636 10.4086 16.4642C10.4369 15.8661 10.6344 15.2883 10.9782 14.798C11.5238 14.0288 12.2241 13.3817 13.0344 12.8987C13.8446 12.4157 14.7469 12.1072 15.6833 11.993L16.7593 11.8453L20.9791 11.318C21.9272 11.2116 22.7966 10.7407 23.4031 10.0046C24.0096 9.26849 24.3056 8.32515 24.2283 7.37466Z" fill="white"/>
<path d="M14.6705 14.3975C17.0072 14.2419 19.3282 13.9029 21.612 13.3847C21.6349 13.9323 21.5463 14.4788 21.3516 14.9911C21.157 15.5034 20.8603 15.971 20.4796 16.3653C20.0988 16.7597 19.642 17.0727 19.1367 17.2854C18.6314 17.4981 18.0882 17.6059 17.5399 17.6025H16.2107H16.063C15.9546 17.6155 15.8498 17.6501 15.7548 17.704C15.6599 17.7578 15.5766 17.8302 15.5098 17.9166C15.4431 18.003 15.3941 18.1015 15.3659 18.207C15.3377 18.3124 15.3309 18.4227 15.3456 18.5308C15.3456 19.3955 15.1979 25.3427 15.1768 26.5026C15.1663 26.6007 15.1663 26.6994 15.1768 26.7976C15.1768 27.2826 15.1768 29.8767 10.1553 30.0665C10.7454 29.7509 11.2405 29.2834 11.5891 28.7124C11.9378 28.1414 12.1275 27.4876 12.1386 26.8187V17.6025C12.11 16.872 12.3273 16.1531 12.7557 15.5606C13.184 14.968 13.7988 14.5364 14.5017 14.3342H14.6916L14.6705 14.3975Z" fill="white"/>
<path d="M36.2773 10.1953H46.5664V13.6055H39.8281V17.1094H45.8281V20.5195H39.8281V27H36.2773V10.1953ZM56.4922 15.2109H59.8789V27H56.4922V25.3242C55.6328 26.5977 54.3828 27.2344 52.7422 27.2344C51.7422 27.2344 50.8203 26.9609 49.9766 26.4141C49.1406 25.8594 48.4805 25.1133 47.9961 24.1758C47.5117 23.2305 47.2695 22.2031 47.2695 21.0938C47.2695 19.9844 47.5117 18.9609 47.9961 18.0234C48.4805 17.0781 49.1406 16.3359 49.9766 15.7969C50.8203 15.25 51.7422 14.9766 52.7422 14.9766C54.3828 14.9766 55.6328 15.6172 56.4922 16.8984V15.2109ZM53.5391 24C54.3672 24 55.0664 23.7227 55.6367 23.168C56.207 22.6055 56.4922 21.9141 56.4922 21.0938C56.4922 20.2812 56.207 19.5938 55.6367 19.0312C55.0664 18.4688 54.3672 18.1875 53.5391 18.1875C52.7266 18.1875 52.0312 18.4727 51.4531 19.043C50.875 19.6055 50.5859 20.2891 50.5859 21.0938C50.5859 21.9062 50.8711 22.5938 51.4414 23.1562C52.0195 23.7188 52.7188 24 53.5391 24ZM70.9531 15.1875H74.3398V26.4961C74.3398 27.582 74.0664 28.5352 73.5195 29.3555C72.9727 30.1758 72.2383 30.7969 71.3164 31.2188C70.4023 31.6406 69.375 31.8516 68.2344 31.8516C67.75 31.8516 67.2617 31.8164 66.7695 31.7461C66.2852 31.6758 65.7617 31.5391 65.1992 31.3359C64.6367 31.1328 64.1406 30.875 63.7109 30.5625C63.2812 30.25 62.9141 29.8242 62.6094 29.2852C62.3047 28.7539 62.1328 28.1445 62.0938 27.457H65.4805C65.5273 27.9648 65.8008 28.3555 66.3008 28.6289C66.8008 28.9023 67.4062 29.0391 68.1172 29.0391C68.875 29.0391 69.5352 28.8125 70.0977 28.3594C70.668 27.9062 70.9531 27.332 70.9531 26.6367V24.9375C70.1094 26.1719 68.8594 26.7891 67.2031 26.7891C66.2031 26.7891 65.2812 26.5234 64.4375 25.9922C63.6016 25.4609 62.9414 24.7422 62.457 23.8359C61.9727 22.9297 61.7305 21.9453 61.7305 20.8828C61.7305 19.8125 61.9727 18.8242 62.457 17.918C62.9414 17.0117 63.6016 16.2969 64.4375 15.7734C65.2812 15.2422 66.2031 14.9766 67.2031 14.9766C68.8594 14.9766 70.1094 15.5938 70.9531 16.8281V15.1875ZM68 23.6602C68.8281 23.6602 69.5273 23.3945 70.0977 22.8633C70.668 22.332 70.9531 21.6719 70.9531 20.8828C70.9531 20.0938 70.668 19.4297 70.0977 18.8906C69.5273 18.3438 68.8281 18.0703 68 18.0703C67.1875 18.0703 66.4922 18.3438 65.9141 18.8906C65.3359 19.4375 65.0469 20.1016 65.0469 20.8828C65.0469 21.6562 65.332 22.3125 65.9023 22.8516C66.4805 23.3906 67.1797 23.6602 68 23.6602ZM82.3203 14.9766C83.1719 14.9766 83.9727 15.1328 84.7227 15.4453C85.4805 15.7578 86.1289 16.1875 86.668 16.7344C87.2148 17.2734 87.6445 17.9258 87.957 18.6914C88.2773 19.4492 88.4375 20.2578 88.4375 21.1172C88.4375 22.2656 88.168 23.3086 87.6289 24.2461C87.0977 25.1836 86.3633 25.918 85.4258 26.4492C84.4961 26.9727 83.4609 27.2344 82.3203 27.2344C80.5781 27.2344 79.1211 26.6523 77.9492 25.4883C76.7773 24.3242 76.1914 22.8672 76.1914 21.1172C76.1914 19.3672 76.7773 17.9062 77.9492 16.7344C79.1211 15.5625 80.5781 14.9766 82.3203 14.9766ZM82.3203 18.2109C81.5156 18.2109 80.8438 18.4883 80.3047 19.043C79.7734 19.5898 79.5078 20.2812 79.5078 21.1172C79.5078 21.9297 79.7734 22.6133 80.3047 23.168C80.8438 23.7227 81.5156 24 82.3203 24C83.1094 24 83.7734 23.7227 84.3125 23.168C84.8516 22.6133 85.1211 21.9297 85.1211 21.1172C85.1211 20.2812 84.8516 19.5898 84.3125 19.043C83.7812 18.4883 83.1172 18.2109 82.3203 18.2109ZM96.8164 10.1953C98.4648 10.1953 99.8242 10.7031 100.895 11.7188C101.973 12.7344 102.512 14.0195 102.512 15.5742C102.512 17.1445 101.973 18.4453 100.895 19.4766C99.8242 20.5078 98.4648 21.0234 96.8164 21.0234H93.9688V27H90.418V10.1953H96.8164ZM96.8164 17.6133C97.4258 17.6133 97.9297 17.4219 98.3281 17.0391C98.7344 16.6484 98.9375 16.1602 98.9375 15.5742C98.9375 15.0117 98.7344 14.543 98.3281 14.168C97.9297 13.793 97.4258 13.6055 96.8164 13.6055H93.9688V17.6133H96.8164ZM112.156 15.2109H115.543V27H112.156V25.3242C111.297 26.5977 110.047 27.2344 108.406 27.2344C107.406 27.2344 106.484 26.9609 105.641 26.4141C104.805 25.8594 104.145 25.1133 103.66 24.1758C103.176 23.2305 102.934 22.2031 102.934 21.0938C102.934 19.9844 103.176 18.9609 103.66 18.0234C104.145 17.0781 104.805 16.3359 105.641 15.7969C106.484 15.25 107.406 14.9766 108.406 14.9766C110.047 14.9766 111.297 15.6172 112.156 16.8984V15.2109ZM109.203 24C110.031 24 110.73 23.7227 111.301 23.168C111.871 22.6055 112.156 21.9141 112.156 21.0938C112.156 20.2812 111.871 19.5938 111.301 19.0312C110.73 18.4688 110.031 18.1875 109.203 18.1875C108.391 18.1875 107.695 18.4727 107.117 19.043C106.539 19.6055 106.25 20.2891 106.25 21.0938C106.25 21.9062 106.535 22.5938 107.105 23.1562C107.684 23.7188 108.383 24 109.203 24ZM125.773 15.2109H129.418L122.867 30.9141H119.246L121.426 26.0391L116.891 15.2109H120.547L123.16 22.1016L125.773 15.2109Z" fill="white"/>
</svg>
