<svg width="48" height="48" viewBox="0 0 48 48" fill="none" xmlns="http://www.w3.org/2000/svg">
<g clip-path="url(#clip0_281_675)">
<path d="M1.84619 21.0185V46.1538L16.6154 40.6154V15.48L1.84619 21.0185Z" fill="#EA959B"/>
<path d="M16.6152 15.48V40.6154L31.3845 46.1538V21.0185L16.6152 15.48Z" fill="#EA959B"/>
<path d="M46.1574 15.4772V40.6126L31.3882 46.1511V21.0157L41.3113 17.2957L46.1574 15.4772Z" fill="#EA959B"/>
<path opacity="0.05" d="M16.6188 35.2495V40.6126L1.84961 46.1511V40.788L16.6188 35.2495Z" fill="black"/>
<path opacity="0.05" d="M31.3884 40.788V46.1511L16.6191 40.6126V35.2495L31.3884 40.788Z" fill="black"/>
<path opacity="0.05" d="M46.1579 15.4773V40.6127L31.3887 46.1512V40.7881L36.1056 39.0158C39.2348 37.8435 41.3117 34.8527 41.3117 31.5112V17.2958L46.1579 15.4773Z" fill="black"/>
<path d="M41.7507 12.2214C41.7507 21.4936 31.3813 29.1343 31.3813 29.1343C26.9095 24.9053 21.0176 19.895 21.0176 12.2214C21.0176 6.49662 25.6679 1.8463 31.3813 1.8463C37.1273 1.8463 41.7507 6.5277 41.7507 12.2214Z" fill="#FF2F3E"/>
<path opacity="0.05" d="M41.7549 12.2189C41.7549 21.4958 31.3794 29.1297 31.3794 29.1297C31.3794 29.1297 30.8164 28.7235 29.9579 27.9758C29.7179 27.7635 29.4502 27.5235 29.1641 27.2558C31.1671 25.6589 39.0779 18.8004 39.0779 10.705C39.0779 7.38197 37.5179 4.42811 35.0902 2.53581C35.1733 2.56348 35.2656 2.60044 35.3487 2.63734C39.1056 4.19734 41.7549 7.90813 41.7549 12.2189Z" fill="black"/>
<path d="M46.6792 14.7219C46.4313 14.5497 46.114 14.5096 45.8291 14.616L42.1575 15.9928C42.4823 14.7789 42.6741 13.5184 42.6741 12.2213C42.6741 5.9159 37.5572 0.92308 31.3817 0.92308C25.1581 0.92308 20.0947 5.99144 20.0947 12.2213C20.0947 13.518 20.2973 14.7804 20.6295 15.9997L16.9397 14.616C16.7467 14.5441 16.4844 14.5438 16.2906 14.616L1.5214 20.1545C1.16173 20.2897 0.922852 20.634 0.922852 21.0189V46.1539C0.922852 46.4567 1.07159 46.7402 1.32038 46.9124C1.56501 47.0828 1.88187 47.1256 2.17045 47.0183L16.6152 41.6016L31.0599 47.0183C31.0679 47.0213 31.0766 47.0201 31.0847 47.0228C31.2888 47.0933 31.4711 47.0964 31.6841 47.0228C31.6922 47.0201 31.7009 47.0213 31.7089 47.0183L46.4781 41.4799C46.8378 41.3447 47.0767 41.0003 47.0767 40.6154V15.4805C47.0767 15.1776 46.928 14.8941 46.6792 14.7219ZM15.6921 39.9758L2.76901 44.822V21.6585L15.6921 16.8124V39.9758ZM31.3817 2.76924C36.5507 2.76924 40.8279 6.95122 40.8279 12.2213C40.8279 19.7159 33.4676 26.2563 31.3799 27.9605C26.816 24.27 21.9409 18.1973 21.9409 12.2213C21.9409 7.00963 26.1759 2.76924 31.3817 2.76924ZM17.5382 39.9758V16.8124L21.4225 18.269C23.2492 22.5725 26.9629 26.8309 30.4613 29.5894V44.822L17.5382 39.9758ZM45.2305 39.9758L32.3075 44.822V29.5872C33.7697 28.4368 38.9455 24.0774 41.3844 18.2546L45.2305 16.8124V39.9758Z" fill="#C61F2A"/>
<path d="M31.3846 17.9418C34.7279 17.9418 37.4381 15.2316 37.4381 11.8883C37.4381 8.54502 34.7279 5.83476 31.3846 5.83476C28.0413 5.83476 25.3311 8.54502 25.3311 11.8883C25.3311 15.2316 28.0413 17.9418 31.3846 17.9418Z" fill="white"/>
<path opacity="0.05" d="M37.4346 11.8866C37.4346 15.2281 34.73 17.942 31.3885 17.942C29.1915 17.942 27.2716 16.7789 26.2192 15.0343C27.1331 15.5882 28.1946 15.902 29.3392 15.902C32.6808 15.902 35.3946 13.1881 35.3946 9.84658C35.3946 8.70197 35.0715 7.62199 34.5177 6.7081C36.2623 7.76966 37.4346 9.68967 37.4346 11.8866Z" fill="black"/>
<path d="M31.3844 18.8649C27.537 18.8649 24.4072 15.7356 24.4072 11.8887C24.4072 8.04178 27.537 4.91197 31.3844 4.91197C35.2308 4.91197 38.3607 8.04178 38.3607 11.8887C38.3607 15.7356 35.2308 18.8649 31.3844 18.8649ZM31.3844 6.75813C28.5548 6.75813 26.2534 9.0595 26.2534 11.8887C26.2534 14.7174 28.5548 17.0188 31.3844 17.0188C34.2131 17.0188 36.5145 14.7174 36.5145 11.8887C36.5145 9.0595 34.2131 6.75813 31.3844 6.75813Z" fill="#C61F2A"/>
</g>
<defs>
<clipPath id="clip0_281_675">
<rect width="48" height="48" fill="white"/>
</clipPath>
</defs>
</svg>
