<svg width="1070" height="1070" viewBox="0 0 1070 1070" fill="none" xmlns="http://www.w3.org/2000/svg">
<mask id="mask0_176_1427" style="mask-type:alpha" maskUnits="userSpaceOnUse" x="0" y="0" width="1070" height="1070">
<circle cx="535" cy="535" r="535" fill="url(#paint0_radial_176_1427)"/>
</mask>
<g mask="url(#mask0_176_1427)">
<path d="M2.1511 843.137C-3.98373 840.888 -5.72196 838.638 -4.29049 834.753C-3.57476 833.015 -2.34778 831.481 -1.42755 831.481C-0.50733 831.481 3.48029 833.526 7.46793 836.082C11.4556 838.638 16.2612 841.297 18.2039 842.012L21.7825 843.342L17.3859 843.444C14.932 843.546 11.4556 843.751 9.51288 844.057C7.67243 844.466 4.29829 843.955 2.1511 843.137ZM-11.7545 831.379C-12.8792 830.765 -14.822 830.561 -16.0489 830.867C-17.5826 831.379 -18.7073 830.663 -19.832 828.516C-20.7523 826.88 -22.286 825.244 -23.4107 824.835C-25.8646 824.017 -30.8748 815.735 -33.7377 808.066C-35.1691 804.181 -37.1118 801.523 -39.3613 800.193C-43.4512 797.944 -43.6557 796.819 -40.5882 795.899C-37.0096 794.774 -36.2939 788.435 -39.3613 784.243C-40.7927 782.198 -41.5085 779.846 -41.0995 778.721C-40.5882 777.392 -42.0197 775.04 -45.3938 771.564C-49.6882 767.167 -50.5062 765.531 -50.7107 760.93C-50.813 757.965 -51.5287 754.693 -52.3467 753.773C-53.2669 752.648 -53.4714 748.456 -52.9602 740.174C-52.3467 731.176 -52.7557 725.655 -54.2894 717.987C-56.641 706.535 -57.7658 685.165 -57.1523 665.738C-57.05 661.546 -57.5613 655.922 -58.3793 653.06C-60.3219 646.209 -69.1152 637.518 -79.9534 631.792C-87.7242 627.702 -88.8489 626.68 -91.9163 620.34C-93.7568 616.557 -97.2332 610.831 -99.7894 607.662C-102.243 604.492 -104.902 599.891 -105.72 597.437C-108.276 589.462 -112.775 581.487 -115.944 579.544C-117.58 578.419 -119.421 575.658 -120.137 573.307C-121.159 569.524 -120.955 568.501 -117.58 563.696C-114.002 558.481 -114.002 558.276 -116.353 557.663C-122.284 556.129 -119.728 548.256 -109.196 534.862C-102.141 525.966 -100.096 519.218 -102.039 511.345C-102.755 508.38 -103.47 505.21 -103.47 504.392C-103.573 503.574 -104.084 502.858 -104.595 502.858C-105.208 502.858 -105.106 501.734 -104.39 500.405C-103.266 498.36 -103.572 497.746 -106.231 496.519C-110.116 494.781 -115.842 496.519 -115.944 499.382C-115.944 502.858 -117.478 503.165 -122.59 500.507C-125.249 499.075 -128.112 497.951 -128.828 497.951C-129.543 497.951 -132.406 496.008 -135.167 493.656C-137.928 491.305 -140.79 488.851 -141.608 488.135C-142.426 487.521 -143.142 485.681 -143.142 484.147C-143.142 482.614 -144.165 480.364 -145.494 479.239C-146.823 478.012 -148.459 475.252 -149.277 472.9C-150.299 469.833 -151.015 469.117 -151.935 470.037C-153.878 471.98 -156.843 471.673 -164.001 468.503C-167.784 466.867 -171.669 464.005 -173.203 461.857C-174.737 459.812 -177.497 457.256 -179.542 456.234C-182.814 454.496 -183.632 454.598 -188.438 456.336L-193.652 458.381L-209.807 450.61C-219.725 445.805 -227.394 441.203 -229.746 438.749C-233.426 434.864 -233.529 434.455 -232.302 429.547C-231.177 425.151 -231.382 423.719 -233.835 418.709C-235.369 415.539 -238.743 410.631 -241.299 407.871C-243.856 405.11 -245.696 402.349 -245.287 401.736C-244.98 401.122 -246.719 397.237 -249.275 393.045C-252.24 388.342 -254.285 383.229 -254.796 379.446C-255.41 374.64 -256.228 373.209 -258.682 372.084C-261.238 370.96 -261.953 371.062 -263.487 373.107C-265.532 375.97 -265.021 378.935 -260.42 388.853C-258.579 392.84 -256.637 398.873 -256.125 402.145C-255.614 405.417 -254.183 410.12 -252.956 412.676C-249.888 418.607 -251.933 418.505 -256.637 412.472C-259.499 408.893 -260.215 406.951 -259.704 404.701C-259.09 402.349 -259.704 401.122 -262.669 398.975C-267.066 395.703 -268.088 393.556 -266.452 390.489C-265.532 388.751 -265.941 386.808 -268.395 382.002C-270.849 377.197 -271.36 374.845 -270.747 371.266C-269.724 365.438 -272.383 360.121 -277.29 358.076C-280.153 356.952 -281.074 355.622 -281.687 352.146C-282.096 349.692 -282.914 346.011 -283.425 343.864C-284.039 341.615 -283.937 339.672 -283.323 339.263C-282.71 338.854 -283.119 337.218 -284.243 335.582C-285.879 333.128 -285.982 332.003 -284.857 329.549C-284.039 327.913 -283.834 325.971 -284.243 325.255C-284.652 324.539 -283.63 322.597 -281.994 320.858C-280.358 319.12 -278.108 315.542 -277.086 312.985C-276.064 310.429 -272.792 305.726 -269.929 302.454C-267.066 299.182 -263.385 293.558 -261.749 289.878C-259.499 284.765 -258.273 283.231 -256.228 283.129C-254.796 283.129 -253.671 283.743 -253.774 284.663C-254.183 288.139 -251.422 287.015 -248.355 282.516C-246.514 279.857 -245.594 277.506 -246.207 277.301C-246.821 277.097 -247.332 276.074 -247.332 275.052C-247.332 274.029 -249.786 270.757 -252.853 267.792C-257.966 262.884 -258.273 262.169 -256.534 260.328C-255.205 258.794 -255.001 257.67 -255.921 256.136C-257.557 253.273 -255.001 246.831 -252.24 246.831C-251.115 246.831 -250.808 246.422 -251.524 245.911C-253.058 244.787 -253.774 242.128 -253.569 238.345C-253.262 232.312 -254.592 229.756 -258.988 227.916C-261.442 226.893 -265.123 224.746 -267.168 223.212C-269.315 221.576 -271.974 220.349 -273.098 220.349C-274.223 220.349 -279.54 219.225 -284.755 217.896C-293.241 215.748 -294.673 215.646 -297.638 217.18C-303.67 220.349 -310.112 221.576 -312.77 220.145C-314.713 219.122 -316.86 219.736 -324.324 223.621C-329.334 226.28 -335.367 228.836 -337.719 229.347C-340.07 229.858 -344.467 231.494 -347.637 233.13C-356.43 237.629 -369.108 242.026 -372.585 242.026C-374.834 241.924 -373.301 241.003 -367.268 238.652C-357.043 234.562 -346.614 229.347 -345.592 227.711C-344.365 225.769 -347.023 225.053 -350.09 226.484C-352.34 227.507 -353.771 227.404 -356.43 226.075L-359.804 224.337L-356.123 222.394C-351.931 220.247 -350.602 217.793 -351.624 213.908C-352.544 210.227 -347.432 207.466 -336.389 205.83C-330.459 204.91 -325.96 203.479 -322.893 201.331C-317.576 197.651 -318.496 194.89 -324.222 197.344C-326.983 198.469 -328.925 198.469 -333.015 197.446C-337.923 196.117 -338.128 195.912 -335.878 194.276C-332.197 191.618 -324.529 189.982 -319.519 190.8C-316.349 191.311 -313.793 191.005 -311.032 189.573L-307.147 187.63L-309.703 184.972C-311.134 183.438 -312.259 181.905 -312.259 181.598C-312.259 180.473 -304.999 178.224 -301.319 178.224C-299.478 178.224 -294.57 176.894 -290.276 175.258C-285.982 173.622 -276.166 171.475 -268.395 170.351C-255.819 168.612 -253.16 168.612 -243.651 170.146C-237.823 171.066 -229.848 172.293 -225.86 172.702C-221.873 173.111 -214.817 174.543 -210.216 175.77C-199.48 178.735 -192.425 178.735 -180.36 175.667C-175.043 174.338 -169.726 173.52 -168.397 173.929C-167.17 174.338 -165.023 174.031 -163.694 173.316C-161.853 172.293 -160.422 172.396 -157.764 173.827C-155.412 175.054 -152.447 175.463 -148.357 174.952C-144.165 174.44 -140.381 174.952 -134.962 176.792C-130.873 178.224 -126.271 179.348 -124.738 179.348C-122.079 179.348 -122.079 179.348 -124.431 181.087C-126.68 182.722 -126.68 182.825 -124.533 183.643C-123.306 184.154 -119.114 184.154 -115.229 183.745C-108.174 183.029 -108.071 183.029 -106.129 186.812L-104.186 190.698L-101.63 187.426C-100.096 185.585 -96.6197 183.438 -93.3478 182.518C-88.3377 180.984 -86.9062 180.984 -81.8961 182.518C-78.4197 183.643 -74.1253 183.949 -71.0579 183.54C-67.0703 182.927 -65.2298 183.336 -62.5714 185.176C-59.2995 187.528 -59.1972 187.528 -56.2321 185.279C-54.5961 184.052 -51.222 182.416 -48.768 181.7C-42.8377 180.064 -40.7927 176.485 -44.3714 174.031C-46.9276 172.293 -46.8253 172.089 -40.1793 168.919C-35.2714 166.465 -33.022 165.954 -31.9995 166.874C-31.0793 167.794 -31.0793 168.919 -31.9995 170.76C-33.6354 173.929 -31.5905 178.633 -28.9321 177.712C-28.0118 177.303 -26.3759 177.406 -25.4556 177.712C-23.9219 178.326 -23.9219 178.837 -25.6602 181.393C-30.2613 188.448 -19.9343 186.506 -12.8793 178.939C-10.0163 175.872 -5.61969 174.952 -1.42755 176.485C1.23087 177.508 1.02638 178.326 -3.4725 183.234C-8.78935 189.062 -11.4478 190.187 -19.4231 190.187C-23.3085 190.187 -27.8074 191.005 -29.9545 192.129C-32.9197 193.663 -34.3512 193.765 -36.6006 192.743C-40.895 190.8 -42.4287 192.436 -39.3613 195.708L-36.7028 198.469L-41.9174 200.002C-44.7804 200.82 -49.586 201.536 -52.6534 201.638C-56.9478 201.74 -58.0725 202.252 -58.0725 203.99C-58.0725 205.421 -60.2197 206.955 -64.7186 208.898C-79.3399 214.93 -91.8141 225.666 -87.3152 228.529C-86.4972 229.04 -85.168 230.983 -84.35 232.824C-83.4298 234.869 -81.6916 236.402 -79.5444 236.811C-77.704 237.22 -72.8983 239.061 -68.9107 241.003C-64.9231 242.946 -60.0152 244.889 -58.0725 245.4C-52.5512 246.627 -52.5511 246.729 -55.1073 253.171C-57.2545 258.692 -57.3568 259.51 -55.6186 262.782C-54.5961 264.725 -53.0624 266.361 -52.2444 266.258C-48.2568 266.156 -44.5759 262.475 -42.2242 256.443C-40.077 250.717 -39.0545 249.592 -32.7152 246.218C-23.4107 241.208 -19.5253 236.3 -20.5478 230.881C-21.2635 227.302 -20.8545 226.484 -17.7871 224.235C-15.8444 222.906 -13.2883 219.531 -12.0613 216.873C-9.40286 210.943 -5.10845 208.898 2.1511 210.125C8.59267 211.147 16.1589 215.237 17.0792 218.1C17.4882 219.327 17.1814 221.372 16.3635 222.803C15.2387 224.951 15.4432 225.871 17.6927 228.222L20.3511 231.085L24.7477 228.836C27.2016 227.609 30.9848 225.155 33.3365 223.417L37.5286 220.247L38.5511 222.906C39.0623 224.337 39.2668 226.28 38.8578 227.2C38.5511 228.12 38.7556 229.961 39.4713 231.188C40.2893 232.619 40.2893 234.255 39.6758 235.482C38.9601 236.811 39.4713 238.958 41.414 242.333C44.1747 247.24 44.1747 247.24 41.7207 248.979C38.5511 251.228 40.596 253.58 44.0724 251.739C47.5488 249.899 51.6387 250.103 54.0927 252.353C57.7736 255.625 54.7061 259.612 44.9927 264.213C34.4612 269.224 29.7578 270.144 15.9545 270.246C5.72975 270.348 4.40054 270.655 -5.51744 275.358C-11.3455 278.119 -16.0489 280.88 -16.0489 281.493C-16.0489 283.947 -14.2085 283.743 -7.1534 280.471C-3.06352 278.528 2.35557 276.994 4.91175 276.994C9.20613 276.994 9.41064 277.097 8.08142 279.653C7.26344 281.084 5.62748 283.129 4.29826 284.254C2.25332 285.89 2.15108 286.606 3.37804 289.366C5.32074 293.558 10.2286 295.501 16.1589 294.581L20.8623 293.763L17.2837 296.217C15.341 297.546 12.0691 299.08 10.0241 299.489C7.97917 299.898 3.88928 301.534 0.821865 303.067C-2.24555 304.601 -5.31295 305.419 -6.13093 304.908C-8.07363 303.681 -6.0287 301.943 0.208375 299.387C5.72972 297.035 4.80951 294.581 -1.12083 295.706C-3.47251 296.115 -10.9365 298.978 -17.7871 302.045C-28.5231 306.748 -30.3635 307.975 -30.977 310.838C-31.795 314.315 -34.3512 315.951 -43.5534 318.813C-46.5186 319.734 -50.3017 321.881 -52.0399 323.619C-53.7781 325.357 -57.05 328.016 -59.2995 329.447C-61.5489 330.879 -63.7984 333.435 -64.2074 335.071C-64.8208 337.831 -65.0253 337.831 -65.8433 335.787C-67.377 331.901 -69.6264 335.684 -69.7287 342.433C-69.8309 349.283 -73.3073 353.987 -80.9759 357.565C-88.8489 361.246 -99.9939 369.937 -102.243 374.129C-104.186 377.81 -104.288 379.242 -103.061 388.751C-101.937 397.646 -101.937 399.896 -103.47 402.758C-104.595 404.906 -105.924 405.928 -107.049 405.519C-109.605 404.497 -112.775 393.863 -111.957 389.16C-111.343 385.888 -111.752 384.661 -114.206 382.309C-116.149 380.469 -117.989 379.753 -119.523 380.264C-120.852 380.673 -124.431 379.855 -127.703 378.526C-132.611 376.481 -134.144 376.276 -137.621 377.401C-139.973 378.219 -142.324 380.06 -143.142 381.696C-144.267 384.252 -145.085 384.558 -148.152 383.843C-150.197 383.434 -153.367 382.309 -155.105 381.389C-159.502 379.139 -161.956 379.242 -166.966 382.105C-169.317 383.434 -174.021 385.99 -177.497 387.728C-181.485 389.773 -184.246 392.125 -184.961 394.067C-185.575 395.806 -187.824 402.452 -189.869 408.791L-193.652 420.447L-191.71 428.014C-188.131 441.817 -183.121 446.009 -172.794 443.76C-164.921 442.124 -160.32 438.647 -158.581 433.433C-157.457 430.058 -156.332 429.036 -152.753 428.014C-147.437 426.582 -145.187 426.48 -143.142 427.809C-141.404 428.831 -142.017 430.672 -149.584 447.031C-154.798 458.279 -154.389 459.301 -145.494 457.972C-137.416 456.847 -129.952 457.665 -129.134 459.915C-128.828 460.835 -129.339 466.765 -130.361 473.105C-132.202 484.454 -132.202 484.761 -129.543 488.953C-128.112 491.305 -125.351 494.065 -123.511 494.985C-120.546 496.519 -119.625 496.519 -115.842 494.985C-109.81 492.531 -106.64 492.736 -102.448 496.11C-99.1759 498.769 -98.6646 498.871 -96.0062 497.133C-94.4725 496.11 -92.3253 493.554 -91.3029 491.509C-88.9512 486.908 -85.0658 483.636 -81.6916 483.534C-80.3624 483.534 -77.9085 482.102 -76.3748 480.466C-73.2051 477.092 -67.5815 475.967 -70.3422 479.239C-72.5916 482 -73.9208 490.896 -72.4894 493.656C-71.2624 495.906 -71.1601 495.906 -68.9107 493.145C-67.2747 491.202 -66.968 489.873 -67.8882 489.055C-69.9332 487.01 -69.3197 485.272 -65.4343 482.409C-61.4467 479.444 -58.277 479.751 -54.9029 483.431C-52.3467 486.09 -38.85 489.771 -34.9647 488.851C-29.0343 487.317 -13.0837 497.03 -7.05115 505.824C-4.18823 510.016 4.91175 514.106 8.89939 513.185C17.1814 511.14 28.4286 519.422 31.087 529.443C31.905 532.408 33.0297 535.169 33.7455 535.68C35.4837 536.805 32.8252 541.099 27.0994 546.62C23.4185 550.097 22.4983 551.63 23.5208 552.653C24.5432 553.675 26.2814 552.755 30.3713 548.972C36.3016 543.451 38.3466 542.939 41.3118 545.905C43.1522 547.745 43.0499 548.052 40.596 550.71C39.1646 552.244 37.0174 553.573 35.9949 553.675C34.8702 553.675 35.3814 554.289 37.0174 554.902C39.369 555.822 40.596 555.618 43.05 553.573C49.3893 548.461 50.923 548.154 56.5466 551.324C60.2275 553.369 61.6589 554.902 61.5567 556.64C61.0455 561.242 62.1702 562.264 65.3398 560.219C67.896 558.583 69.6342 558.481 78.1207 559.606C87.1185 560.833 88.3455 561.344 92.6399 565.638C95.8095 568.808 99.4904 570.955 103.989 572.284C110.124 574.022 110.738 574.636 111.862 578.726C113.498 584.656 111.556 591.302 106.545 597.539C104.398 600.198 101.74 604.185 100.615 606.333C99.4904 608.48 97.241 611.649 95.5028 613.388C92.5376 616.353 92.4354 617.069 93.1511 624.021C94.5826 637.62 87.9365 662.978 81.4949 668.397C79.4499 670.135 77.6095 670.544 74.3376 670.033C71.5769 669.624 69.6342 669.93 69.123 670.748C68.6118 671.464 66.0556 673.1 63.2949 674.327C60.5342 675.554 56.4443 678.11 54.1949 680.053C50.3095 683.427 50.2073 683.734 51.4342 687.721C52.9679 692.323 51.9455 697.742 48.6736 702.343C47.6511 703.876 46.7308 706.433 46.7308 707.966C46.7308 709.602 45.5039 712.567 43.9702 714.612C42.4365 716.657 39.4713 721.361 37.3241 725.042C32.2118 734.142 29.0421 735.675 21.5781 733.017C15.1365 730.665 11.6601 730.461 11.6601 732.199C11.6601 732.915 12.9893 734.039 14.523 734.755C16.0567 735.471 18.5106 738.436 19.9421 741.299C22.0893 745.593 22.2938 747.025 21.169 749.479C19.4308 753.262 12.8871 756.432 6.75222 756.432C1.33312 756.432 0.0038874 757.761 1.84434 761.237C2.96906 763.384 2.25334 766.861 0.00389983 769.519C-0.200595 769.724 -2.04105 769.008 -4.18824 767.883C-9.3006 765.225 -11.0388 766.963 -8.48264 771.871C-7.46016 773.916 -5.4152 775.858 -4.08599 776.37C-1.7343 777.085 -1.63206 777.29 -3.57475 779.437C-4.69947 780.664 -5.31297 782.607 -4.90398 783.629C-4.495 784.754 -5.41521 787.31 -7.35791 789.662C-10.4253 793.649 -10.4253 793.956 -8.48264 796.921C-7.35792 798.66 -5.6197 800.296 -4.59722 800.705C-0.916325 802.136 -0.405095 806.839 -3.16577 812.258C-5.92644 817.678 -6.33543 823.199 -4.18824 825.755C-2.24554 828.414 -8.78936 833.015 -11.7545 831.379ZM-100.71 308.384C-97.4377 301.636 -91.5073 296.626 -86.5995 296.626C-83.1231 296.626 -83.1231 297.239 -86.2927 301.227L-88.8489 304.397L-86.2927 306.442C-84.2478 308.078 -83.1231 308.282 -80.7714 307.157C-79.1354 306.442 -77.4995 304.806 -77.0905 303.476C-76.5792 301.738 -75.659 301.329 -73.5118 301.84C-71.5691 302.352 -70.3422 301.943 -69.5242 300.511C-67.0703 296.115 -73.3073 290.491 -77.9085 292.945C-81.1804 294.683 -85.4748 291.207 -84.5545 287.526C-84.2478 286.197 -84.9635 283.743 -86.0882 282.209C-88.5422 278.937 -92.4276 278.528 -100.71 280.88C-103.675 281.698 -107.151 282.311 -108.276 282.311C-109.503 282.311 -110.116 282.72 -109.707 283.334C-109.298 283.947 -109.401 284.458 -110.014 284.458C-110.525 284.458 -112.366 285.481 -114.002 286.81L-116.967 289.162L-113.593 290.491C-110.934 291.513 -109.401 291.309 -106.435 289.878C-102.959 288.139 -102.346 288.139 -98.5624 289.878C-96.3129 291.002 -93.2455 291.513 -91.6096 291.105C-90.0759 290.696 -88.4399 290.9 -88.0309 291.616C-87.6219 292.331 -89.3601 293.149 -91.9163 293.558C-98.9714 294.785 -102.652 297.648 -107.765 306.237C-112.059 313.394 -112.264 314.315 -110.628 316.155C-108.992 317.996 -108.48 317.996 -106.231 316.462C-104.902 315.439 -102.448 311.861 -100.71 308.384ZM-78.8287 315.848C-74.5343 313.701 -74.1253 313.088 -75.659 311.554C-77.1927 310.02 -78.113 310.122 -83.0208 312.27C-88.8489 314.826 -90.6894 318.302 -86.1905 318.302C-84.8613 318.302 -81.4871 317.178 -78.8287 315.848ZM-57.3568 306.646C-54.8006 304.908 -54.6984 304.499 -56.5388 303.579C-59.1972 302.147 -66.8658 304.601 -66.8658 306.953C-66.968 309.305 -60.9354 309.202 -57.3568 306.646ZM33.3365 828.209C33.3365 827.698 33.95 826.573 34.7679 825.755C35.5859 824.937 35.7904 824.324 35.1769 824.324C34.6657 824.324 33.541 825.244 32.723 826.266C31.5983 827.8 30.7803 828.005 28.9398 826.88C27.6106 826.164 27.3039 825.551 28.2241 825.551C29.1444 825.551 29.4511 824.937 29.0421 824.324C28.2241 823.097 30.3713 822.688 36.3017 823.097C41.6185 823.506 42.1297 824.221 38.8578 826.778C35.7904 829.231 33.3365 829.845 33.3365 828.209ZM1041.8 797.842C1038.32 795.694 1045.58 790.787 1063.37 783.323C1068.38 781.278 1075.95 776.881 1080.25 773.609C1087.5 768.088 1088.12 767.883 1089.65 769.928C1091.9 773.098 1090.57 775.347 1085.15 777.801C1082.6 778.926 1079.33 781.175 1078 782.811C1076.67 784.345 1074.42 785.674 1073.09 785.674C1071.76 785.674 1068.59 787.515 1066.14 789.764C1057.55 797.433 1046.81 801.011 1041.8 797.842ZM957.242 782.198C956.015 781.38 955.913 780.562 956.935 778.721C957.651 777.392 958.265 774.529 958.265 772.484C958.265 769.11 958.571 768.803 961.025 769.621C962.559 770.133 965.626 770.644 967.978 770.746C970.33 770.848 972.579 770.951 973.09 771.053C975.135 771.462 969.716 777.494 964.911 780.357C959.287 783.629 959.492 783.629 957.242 782.198ZM1096.81 771.666C1096.4 771.257 1097.42 769.826 1099.06 768.599C1101.51 766.656 1101.82 765.838 1100.69 763.793C1099.16 760.93 1101.41 757.761 1106.83 755.511C1111.02 753.773 1112.04 750.297 1110.92 741.912C1110.1 736.084 1110.2 735.778 1112.15 737.311C1113.58 738.538 1113.99 740.072 1113.48 742.833C1112.86 745.9 1113.37 747.434 1115.93 750.501C1118.69 753.773 1119.51 754.08 1121.66 752.955C1123.8 751.83 1124.01 751.933 1123.39 753.671C1122.98 754.796 1122.58 755.92 1122.58 756.227C1122.58 756.534 1120.84 757.556 1118.69 758.681C1116.54 759.806 1112.35 762.669 1109.28 765.225C1104.38 769.212 1099.47 772.484 1098.14 772.484C1097.83 772.382 1097.22 772.075 1096.81 771.666ZM969.103 756.022C966.547 753.364 966.138 753.16 963.684 754.796C960.616 756.84 954.686 755.613 949.982 752.035C947.529 750.092 947.324 749.479 948.653 747.025C949.778 744.98 949.778 743.548 948.756 741.299C948.04 739.663 947.426 737.311 947.426 735.982C947.426 733.017 945.484 732.915 943.95 735.778C943.337 736.902 942.416 737.516 942.007 737.107C941.598 736.698 942.928 734.346 945.075 731.892C950.289 725.962 948.244 724.326 941.291 728.927C938.326 730.972 935.668 733.119 935.463 733.733C935.259 734.346 933.828 732.301 932.294 729.131C930.658 725.655 927.795 722.179 925.239 720.44C921.353 717.884 920.126 717.68 912.765 718.396C901.926 719.52 891.497 722.179 884.749 725.553C881.681 727.087 875.547 728.722 870.945 729.234C866.344 729.745 859.085 731.483 854.79 733.017C848.247 735.471 846.304 735.778 843.032 734.653C838.533 733.221 836.693 730.154 839.556 729.029C840.578 728.62 842.521 725.86 843.748 722.894C845.793 718.089 845.895 716.657 844.668 710.42C843.645 705.308 843.645 700.502 844.566 692.629C845.281 686.699 845.486 680.666 845.179 679.235C844.77 677.803 845.384 674.327 846.508 671.464C848.451 666.454 848.86 666.147 861.845 660.626C869.207 657.558 876.774 655.002 878.512 655.002C883.522 655.002 889.657 650.299 893.133 643.755C895.28 639.767 896.712 638.234 897.939 638.745C901.415 640.074 902.131 639.87 901.926 637.211C901.722 635.575 902.438 634.348 903.869 633.837C905.096 633.428 907.448 631.281 908.981 628.929C910.617 626.578 913.889 623.919 916.548 622.897C920.944 621.158 921.353 621.158 923.807 623.306C928.204 627.293 931.374 628.52 932.907 626.68C933.623 625.76 933.93 624.737 933.418 624.328C932.089 622.897 938.326 615.024 941.496 614.206C943.132 613.797 946.608 612.467 949.062 611.138C952.948 609.196 954.379 609.093 958.776 610.218C968.183 612.774 968.489 613.183 965.013 618.5C960.514 625.351 961.741 628.009 972.784 635.78C977.896 639.358 982.702 642.119 983.52 641.812C984.338 641.506 986.792 638.745 989.041 635.678C992.108 631.485 993.335 628.316 993.847 623.408C994.562 616.353 997.937 606.537 999.675 606.537C1000.29 606.537 1001.52 609.4 1002.64 612.979C1003.66 616.557 1005.81 620.647 1007.45 622.181C1011.23 625.76 1013.38 635.678 1011.74 641.506C1010.62 645.391 1010.82 646.005 1014.71 649.992C1016.95 652.344 1020.64 658.07 1022.68 662.671C1024.83 667.272 1028.61 673.918 1031.17 677.292L1035.87 683.427L1034.54 692.936C1033.62 699.889 1032.09 704.49 1029.12 709.705C1024.62 717.782 1017.77 725.451 1014.19 726.575C1012.86 726.984 1009.9 730.052 1007.55 733.324C1005.2 736.596 1002.74 739.254 1002.13 739.254C1001.52 739.254 998.754 742.117 995.994 745.491C991.393 751.217 990.575 751.728 985.871 751.83C982.19 751.933 979.43 752.853 976.465 755.205L972.17 758.476L969.103 756.022ZM380.261 730.665C377.705 728.109 377.296 726.78 377.807 723.303C378.318 720.031 377.807 718.089 375.558 714.612C373.922 712.261 372.593 709.705 372.593 708.887C372.593 708.069 370.445 704.694 367.889 701.218C363.902 695.799 362.981 693.652 362.368 686.801C361.243 674.736 357.358 661.648 352.143 652.242C349.587 647.538 347.133 641.506 346.724 638.847C345.804 633.019 348.156 624.43 353.575 613.899L357.153 606.946L355.108 600.913C353.984 597.539 353.472 593.552 353.881 591.813C354.393 589.769 353.881 587.417 352.348 584.963C351.121 582.816 349.178 578.112 348.156 574.534C346.724 569.626 344.781 566.456 340.896 562.571C333.227 555.107 332.205 552.142 334.659 543.962C339.465 527.296 334.25 517.582 321.469 519.525C316.459 520.24 316.357 520.138 315.641 516.662C315.13 514.003 313.596 512.367 310.017 510.527C305.212 508.073 303.167 508.073 297.339 510.425C296.01 510.936 290.59 512.879 285.274 514.617C277.298 517.275 274.844 517.582 271.368 516.56C268.096 515.639 265.335 515.844 258.587 517.684C251.634 519.627 249.078 519.831 245.295 518.809C237.422 516.662 223.925 504.494 221.983 497.848C220.449 492.736 211.247 480.773 208.077 479.853C206.032 479.342 205.827 478.83 207.054 478.115C208.281 477.297 208.077 476.888 206.134 476.376C203.067 475.558 202.76 473.105 205.725 473.105C207.566 473.105 207.566 472.9 206.032 471.878C204.907 471.162 204.805 470.651 205.725 470.651C206.645 470.651 206.339 469.117 204.703 466.356C202.351 462.471 202.351 461.96 204.089 459.915C209.508 453.984 210.633 441.101 206.543 433.024C204.6 429.138 205.827 423.821 210.02 418.3C211.553 416.255 214.621 411.143 216.87 406.951C220.653 399.691 229.242 389.671 231.492 389.671C234.048 389.671 242.227 380.775 242.227 378.117C242.227 371.88 245.908 365.745 251.941 361.86C255.213 359.815 258.996 356.236 260.427 353.987C263.29 349.385 263.699 349.181 267.074 351.533C268.403 352.453 271.675 353.578 274.333 353.987C278.423 354.702 280.366 354.191 286.398 350.919C296.827 345.296 303.269 343.966 315.232 344.682C323.105 345.193 326.684 344.887 330.467 343.353C336.09 341.103 340.896 342.433 339.669 345.909C339.26 346.931 339.465 348.465 340.18 349.283C340.998 350.306 340.998 351.839 340.18 354.191C339.056 357.156 339.362 357.974 342.021 360.837C343.759 362.678 346.826 364.518 348.974 364.927C358.687 366.87 361.448 368.097 363.493 371.471C364.924 373.925 366.867 375.254 370.036 375.867C372.49 376.379 376.069 377.503 378.012 378.526C381.284 380.162 381.693 380.162 384.453 377.606C386.294 375.867 387.112 374.027 386.703 372.698C386.294 371.471 386.601 369.426 387.316 368.097C389.157 364.62 394.474 364.927 402.756 369.119C411.753 373.618 428.931 376.89 434.963 375.152C437.929 374.334 440.689 374.334 443.245 375.152C451.63 377.708 455.822 375.663 457.049 368.71C457.458 366.358 458.071 364.518 458.48 364.518C459.298 364.518 459.707 361.042 459.809 353.373C459.809 350.919 460.423 348.874 461.139 348.874C461.957 348.874 461.957 347.954 461.036 346.318C459.503 343.557 456.538 343.557 449.38 346.522C446.006 347.954 444.984 347.852 441.916 346.011C437.929 343.66 433.839 343.353 432.714 345.193C431.794 346.625 425.659 345.602 422.285 343.557C419.831 342.024 417.581 337.627 417.581 334.253C417.581 333.026 416.354 331.083 414.821 330.061C412.469 328.425 412.367 328.016 413.901 326.993C414.923 326.38 416.968 326.073 418.502 326.482C420.444 326.891 422.183 326.175 424.432 323.926C426.579 321.779 429.135 320.654 431.998 320.552C434.35 320.449 437.826 319.325 439.667 318.098C443.654 315.439 452.754 316.155 459.707 319.734C469.216 324.437 477.601 324.233 480.975 319.018C482.713 316.36 482.713 315.746 481.077 313.19C480.054 311.656 475.147 308.078 470.239 305.215L461.241 300.102L462.979 296.83C463.899 294.99 464.411 293.252 464.002 292.843C463.593 292.434 463.797 291.411 464.308 290.593C464.82 289.775 465.433 288.344 465.535 287.424C465.842 285.583 463.899 286.094 454.288 290.389C448.665 292.843 447.847 293.661 449.074 295.092C449.892 296.115 451.732 296.933 453.163 296.933C455.106 296.933 454.697 297.546 451.118 299.387C446.824 301.636 446.313 301.738 443.45 299.898C440.996 298.364 440.689 297.546 441.916 296.217C443.041 294.888 442.836 294.376 441.098 293.661C439.871 293.149 438.235 292.025 437.52 291.105C434.043 286.503 423.103 298.671 419.933 310.634C418.399 316.257 418.502 316.564 421.262 318.711L424.227 320.961L418.808 322.085C415.843 322.699 411.856 322.801 409.913 322.29C406.436 321.37 401.938 322.801 401.938 324.846C401.938 325.46 401.12 325.664 400.097 325.255C399.075 324.846 397.541 325.153 396.519 325.971C395.087 327.198 395.189 328.22 397.643 332.719C400.302 337.627 400.404 338.343 398.666 341.615C396.621 345.704 394.678 345.398 391.815 340.49C389.77 337.013 389.77 337.013 392.531 336.605C395.905 336.093 396.109 333.946 392.838 333.435C385.374 332.208 381.386 328.322 381.386 322.085C381.386 317.28 376.887 311.963 371.468 310.327C368.605 309.509 365.538 307.669 364.617 306.339C363.697 305.01 360.936 303.067 358.585 302.147C356.233 301.125 353.472 299.284 352.654 298.057C351.427 296.217 350.609 296.012 348.667 297.035C347.338 297.751 346.315 299.08 346.315 300C346.315 303.17 361.754 317.28 369.219 321.165C377.194 325.153 378.421 326.584 372.899 325.46C367.992 324.335 366.662 325.46 368.298 329.14C369.525 331.697 369.321 332.515 366.867 334.866L364.106 337.525L364.72 333.946C365.742 328.22 358.176 320.04 351.939 320.04C349.689 320.04 340.896 311.554 338.544 307.055C336.09 302.249 333.33 301.329 329.444 303.988C323.616 307.975 319.22 309.305 314.618 308.487C308.484 307.464 304.701 309.611 305.621 313.497C306.132 315.542 305.825 316.462 304.7 316.462C303.78 316.462 301.429 317.791 299.588 319.529C297.645 321.165 295.703 322.597 295.192 322.597C293.658 322.597 289.466 330.265 289.466 332.924C289.466 335.48 284.762 340.592 280.161 342.944C278.73 343.66 275.356 344.273 272.697 344.273C269.016 344.273 267.483 344.887 266.46 346.727C265.131 349.181 265.131 349.181 261.961 346.113C259.098 343.251 257.36 342.433 251.532 341.615C248.465 341.103 247.953 334.151 250.203 324.233C251.225 319.938 251.634 315.235 251.225 313.701C250.101 309.1 253.679 306.442 259.61 307.362C273.413 309.509 281.49 309.611 283.433 307.669C285.989 305.01 287.216 296.421 285.58 291.616C284.558 288.446 283.126 287.219 278.832 285.583C272.595 283.231 272.39 280.88 278.525 280.778C280.877 280.778 284.251 279.755 285.989 278.63C287.727 277.506 289.772 276.79 290.386 277.199C292.124 278.221 298.566 274.54 300.713 271.269C301.735 269.735 303.78 268.099 305.212 267.69C306.643 267.281 310.631 264.52 313.903 261.351C318.606 256.954 321.06 255.625 325.15 255.113C330.16 254.5 335.17 250.41 332.818 248.876C331.387 247.956 330.16 242.026 330.978 239.879C331.387 238.856 333.023 237.118 334.761 235.993L337.829 233.948L337.011 238.958C336.295 243.253 336.499 243.866 338.34 243.56C339.465 243.355 341.714 242.537 343.248 241.719C345.497 240.492 346.111 240.492 346.724 242.128C347.747 244.787 344.884 247.956 342.941 246.32C341.816 245.4 341.1 245.4 340.487 246.422C339.874 247.445 339.362 247.343 338.647 246.218C338.135 245.298 337.42 244.889 337.011 245.196C336.602 245.502 337.624 247.343 339.158 249.285C341.714 252.455 342.225 252.66 345.906 251.33C349.076 250.206 350.507 250.308 353.166 251.739C356.131 253.273 357.153 253.171 362.981 251.024C367.992 249.081 370.036 248.876 372.286 249.899C374.331 250.819 375.865 250.819 377.807 249.797C383.226 247.036 384.76 244.889 384.044 241.003C383.022 235.278 384.862 233.335 389.668 235.175C392.94 236.402 393.86 236.402 395.394 234.869C396.927 233.335 396.825 232.721 394.269 229.961C391.815 227.302 391.611 226.689 393.144 225.666C394.167 225.053 397.745 224.746 401.324 225.155C407.766 225.871 415.741 223.315 414.309 221.065C413.083 219.122 405.721 218.509 399.484 219.94C393.962 221.167 392.531 221.065 388.236 219.122C381.693 216.157 380.875 212.681 385.374 206.342C391.202 198.264 392.224 195.708 390.588 193.663C388.134 190.698 385.68 191.72 380.159 197.855C377.194 201.127 373.206 204.501 371.161 205.319C369.218 206.137 366.765 208.387 365.742 210.329C364.106 213.499 364.106 214.215 365.742 216.669C366.765 218.202 368.707 219.838 370.036 220.247C373.717 221.474 373.002 223.621 367.685 227.302C366.049 228.427 363.902 231.597 362.879 234.357C361.55 237.834 359.607 240.185 356.54 241.924C352.245 244.378 352.041 244.378 349.689 242.23C348.36 241.003 346.929 238.549 346.52 236.709C346.111 234.869 344.27 231.597 342.532 229.449L339.26 225.462L335.068 228.018C332.716 229.449 329.751 230.574 328.422 230.574C324.639 230.574 320.14 226.382 319.833 222.599C319.731 220.656 319.22 218.202 318.708 217.078C317.584 214.419 323.003 209.307 328.626 207.773C334.25 206.239 345.702 198.162 347.644 194.481C348.462 192.845 351.427 189.471 354.188 187.017C356.949 184.563 359.096 182.007 359.096 181.393C359.096 180.78 361.652 179.246 364.822 178.121C367.992 176.997 373.308 174.952 376.58 173.622C380.67 171.987 385.783 171.066 392.326 170.862C403.676 170.555 411.14 172.089 417.377 175.974C420.444 177.917 422.898 178.53 425.25 178.121C429.442 177.303 451.63 184.154 452.55 186.608C453.47 189.062 447.131 191.311 441.61 190.493C439.053 190.084 433.941 189.164 430.056 188.346C424.841 187.221 422.694 187.221 421.671 188.244C420.649 189.266 421.16 189.982 423.614 191.107C425.454 191.925 427.704 194.174 428.624 196.015C431.078 200.718 438.849 204.603 442.939 203.07C446.824 201.638 446.824 201.127 442.734 198.878C438.951 196.833 440.689 196.424 445.495 198.162C449.278 199.593 453.572 197.855 452.55 195.197C452.039 193.97 453.368 193.049 457.151 192.129C465.126 190.084 465.74 189.778 465.024 188.142C462.57 182.007 462.468 182.211 466.149 182.62C468.092 182.825 469.523 183.643 469.318 184.461C469.114 185.279 470.136 186.506 471.568 187.324C473.613 188.448 475.351 188.039 481.077 185.074C489.563 180.678 496.107 179.246 498.561 181.189C499.89 182.313 502.242 182.313 508.786 181.189C513.387 180.371 517.784 180.064 518.397 180.473C519.011 180.882 519.931 180.575 520.34 179.962C521.26 178.428 518.704 174.952 517.17 175.77C515.432 176.894 509.706 174.952 510.933 173.725C512.16 172.498 545.799 180.269 547.844 182.313C549.174 183.643 553.468 181.905 553.468 179.962C553.468 179.348 551.116 177.61 548.151 176.179C539.051 171.782 538.438 164.727 547.026 162.58C551.934 161.353 554.081 162.784 561.034 171.884C569.93 183.745 569.725 183.131 566.76 187.221C564.613 190.289 564.511 191.005 565.942 191.516C568.805 192.64 574.838 188.755 575.656 185.381C576.678 181.393 574.838 178.019 570.339 175.667C566.862 173.827 564.306 170.555 564.306 167.794C564.306 166.874 565.635 166.567 568.192 167.079C572.077 167.794 575.349 166.363 584.244 160.024C586.289 158.592 589.663 157.672 593.14 157.57C600.195 157.365 602.444 156.24 600.399 153.787C599.581 152.866 599.172 151.844 599.479 151.537C601.013 150.003 620.951 147.243 625.45 147.856C629.847 148.47 631.176 148.163 634.857 145.402C637.208 143.664 639.049 141.721 639.049 141.108C639.049 139.676 628.517 139.779 627.597 141.21C626.37 143.255 624.734 142.539 625.143 140.188C625.552 138.143 624.53 137.836 615.736 137.12C591.708 135.28 589.766 134.769 592.629 131.906C595.185 129.349 601.422 129.452 606.534 132.008C608.681 133.03 612.158 133.951 614.407 133.951C616.554 133.951 618.702 134.462 619.111 135.178C619.52 135.791 621.667 136.405 623.814 136.405C629.847 136.405 641.503 138.961 640.787 140.188C640.48 140.801 641.605 141.21 643.241 141.21C644.979 141.21 648.149 142.13 650.296 143.255C653.159 144.789 657.147 145.3 665.633 145.402C674.733 145.402 677.8 145.913 680.459 147.652C682.299 148.879 683.731 150.208 683.731 150.617C683.731 151.026 680.97 152.866 677.494 154.809C669.314 159.308 671.052 161.353 680.97 158.694C687.412 157.058 688.843 157.058 694.16 158.592C698.557 159.921 701.215 160.024 704.18 159.206C707.146 158.388 710.213 158.49 715.325 159.921C720.642 161.353 723.505 161.455 726.879 160.535C734.65 158.388 744.159 159.001 749.783 161.966C752.543 163.5 757.656 166.261 761.03 168.101C767.165 171.475 767.369 171.475 771.663 169.533C775.242 167.897 777.185 167.794 782.502 168.817C787.716 169.839 789.659 169.737 792.522 168.203C795.385 166.67 795.896 165.954 794.771 164.625C792.624 162.069 800.19 161.148 809.393 162.784C813.585 163.5 819.004 164.318 821.356 164.42C823.707 164.625 828.206 165.954 831.478 167.385C836.386 169.635 840.067 170.146 854.484 170.453C868.185 170.862 872.479 171.373 875.751 173.111C879.125 174.849 882.908 175.361 895.587 175.463C907.243 175.565 912.458 176.179 915.934 177.61C921.558 179.962 923.807 179.144 920.74 175.77C918.593 173.316 918.593 173.316 926.977 174.134C941.087 175.565 958.06 178.633 963.786 180.882C966.751 182.007 972.477 183.336 976.465 183.847C980.452 184.358 986.28 185.994 989.348 187.63C994.051 189.982 995.585 190.289 998.652 189.266C1002.84 187.835 1005.5 188.857 1011.84 194.379L1015.73 197.753L1012.76 198.469C1009.8 199.184 1001.92 197.242 999.163 195.094C998.346 194.481 997.221 194.276 996.71 194.583C996.096 194.89 993.335 194.379 990.472 193.458C983.724 191.107 980.759 192.027 983.826 195.401C985.974 197.753 985.871 197.753 981.884 197.446C974.42 196.935 976.465 199.184 987.405 203.376C993.335 205.728 998.55 207.875 998.857 208.182C999.981 209.307 996.301 210.636 993.54 210.125C990.575 209.511 983.213 212.783 983.213 214.624C983.213 215.237 982.088 216.873 980.657 218.202C978.305 220.452 977.794 220.452 974.624 218.816C971.659 217.282 970.739 217.282 967.876 218.713C966.035 219.634 962.968 220.758 960.923 221.27C958.98 221.781 956.629 222.701 955.811 223.417C953.357 225.462 957.651 231.29 963.684 234.255C966.956 235.891 969.307 237.936 970.023 239.981C970.637 241.719 971.966 244.582 972.988 246.32C974.624 249.183 974.624 249.592 972.886 250.206C971.659 250.717 971.25 251.637 971.761 253.069C972.17 254.193 972.784 256.545 972.886 258.181C973.09 259.817 973.602 262.066 974.113 263.191C974.726 264.622 974.215 265.44 972.272 266.054C970.125 266.77 968.694 265.952 965.217 262.066C962.763 259.408 958.776 255.727 956.322 253.887C953.868 252.046 949.369 247.343 946.404 243.355C941.189 236.402 941.087 236.096 942.825 232.721C943.848 230.779 944.666 228.018 944.666 226.484C944.666 224.951 945.484 222.394 946.404 220.758C948.142 217.589 947.529 215.135 943.745 210.84C941.292 208.08 936.895 210.125 938.02 213.601C939.042 216.771 935.975 217.793 932.396 215.442C930.862 214.419 927.284 213.192 924.523 212.783C919.717 211.965 919.308 212.17 918.081 215.442C917.366 217.384 917.059 220.349 917.366 222.19C917.877 224.951 917.57 225.564 914.707 226.178C912.765 226.587 909.39 226.075 906.732 224.951C903.767 223.724 900.904 223.315 898.961 223.928C897.223 224.439 891.395 224.848 885.976 224.951C877.387 225.053 875.751 225.462 873.093 227.916C871.457 229.449 869.412 233.233 868.696 236.402C867.878 239.47 866.549 243.253 865.526 244.684C863.89 247.24 863.993 247.547 868.798 249.899C873.911 252.557 879.534 253.171 883.829 251.739C887.101 250.615 897.121 258.385 900.188 264.52C901.415 266.974 903.562 269.633 904.892 270.348C909.799 273.007 910.822 290.287 906.732 301.636C903.869 309.509 900.699 312.065 895.996 310.225C894.156 309.509 892.52 308.998 892.315 308.998C892.111 308.998 890.781 311.247 889.35 313.906C887.51 317.484 887.1 319.325 888.021 320.347C889.759 322.494 888.532 325.255 884.953 326.789C883.317 327.504 881.988 328.629 881.988 329.345C881.988 330.061 885.771 333.128 890.372 336.298C896.303 340.388 899.37 343.455 900.802 346.625C901.926 349.181 902.642 351.43 902.335 351.635C902.029 351.839 899.575 353.169 896.814 354.6L891.804 357.156L888.839 350.306C885.465 342.535 882.602 339.467 877.489 338.138C874.933 337.422 874.013 336.502 874.013 334.355C874.013 332.412 872.786 330.776 870.127 329.243C866.242 326.993 866.14 326.993 862.05 329.549C857.96 332.106 857.858 332.106 856.631 329.754C855.915 328.425 855.404 326.482 855.404 325.562C855.404 324.539 854.381 323.21 853.154 322.494C851.314 321.472 850.189 322.085 846.713 325.766C844.463 328.22 841.498 330.879 840.271 331.594C838.226 332.719 838.124 333.23 839.556 334.866C840.476 335.889 843.543 338.138 846.406 339.774C851.007 342.33 851.825 342.433 853.359 340.899C854.79 339.467 856.017 339.365 860.414 340.592L865.731 342.024L862.766 343.966C857.244 347.647 855.506 349.59 854.79 352.862C854.177 355.622 854.484 356.338 856.938 357.463C858.574 358.179 861.027 361.144 862.459 364.007C863.89 366.87 866.651 370.244 868.594 371.369C872.99 374.027 874.32 376.788 871.763 378.219C869.412 379.548 870.536 381.491 873.706 381.491C877.489 381.491 877.489 383.74 873.808 396.726C869.412 412.37 865.424 417.687 854.995 421.47C850.905 423.003 845.895 424.333 843.952 424.435C839.351 424.742 835.67 426.684 832.603 430.672L830.149 433.842L829.024 430.774C827.49 426.787 824.014 425.764 819.106 427.911C814.505 429.854 811.54 432.921 810.313 436.909C809.188 440.488 813.074 446.725 819.413 451.735C824.627 455.927 830.456 466.254 831.887 473.82C833.114 480.364 830.967 484.761 825.241 487.317C822.685 488.442 820.231 490.384 819.822 491.611C818.902 494.474 813.585 497.951 812.562 496.315C812.153 495.701 812.153 494.065 812.562 492.838C812.971 491.611 812.971 489.771 812.562 488.646C811.949 487.112 811.335 486.908 809.393 487.93C807.45 488.953 806.632 488.748 804.996 486.397C801.111 480.671 789.659 471.469 786.489 471.469C785.365 471.469 784.956 472.798 785.16 475.661C785.365 478.012 784.853 482.511 784.138 485.783C782.911 490.998 783.013 492.02 785.365 494.985C786.694 496.826 788.228 499.791 788.636 501.427C789.045 503.165 792.522 506.948 796.509 510.22C803.156 515.537 803.871 516.662 806.632 525.455C808.268 530.67 809.597 535.475 809.597 536.089C809.597 538.134 807.041 537.316 801.826 533.533C796.407 529.647 792.931 523.41 789.966 512.47C788.739 507.766 787.307 505.721 783.422 502.858C778.616 499.28 778.514 498.973 778.821 493.145C779.025 489.873 779.639 485.067 780.048 482.716C780.661 479.342 780.15 476.888 777.798 471.878C776.06 468.299 774.015 462.88 773.299 459.812C771.561 452.86 769.209 451.735 764.915 455.722C763.177 457.358 761.337 458.79 760.928 458.79C758.985 458.79 756.326 454.7 757.042 452.655C758.167 449.076 751.112 436.398 747.022 434.66C744.772 433.739 742.727 431.49 741.296 428.422C738.944 423.106 736.184 421.061 733.525 422.492C732.503 423.003 728.617 424.128 724.834 424.844C717.881 426.275 715.325 428.422 716.348 432.001C716.654 433.33 715.53 434.66 712.565 436.091C710.213 437.216 707.657 439.465 706.839 441.203C706.123 442.839 704.487 444.578 703.158 444.987C701.829 445.396 699.886 447.236 698.761 449.076C697.636 450.917 694.262 454.291 691.297 456.643C687.207 459.812 685.98 461.551 686.185 463.698C687.412 476.581 685.571 487.317 681.072 493.758C676.778 499.996 676.471 500.2 672.79 498.462C670.745 497.542 669.519 495.803 669.007 493.043C668.598 490.793 666.144 484.454 663.588 479.035C648.149 445.907 645.899 439.567 647.126 433.535C648.047 429.445 645.899 423.412 643.854 424.026C643.036 424.333 642.321 425.253 642.321 426.275C642.218 431.797 635.981 432.615 631.176 427.809L628.006 424.639L630.767 423.617C633.834 422.492 633.63 419.425 630.46 419.936C629.335 420.14 626.779 418.914 624.734 417.175C622.689 415.437 620.644 414.108 620.031 414.108C619.417 414.108 618.702 412.983 618.19 411.654C617.066 408.178 610.624 405.11 607.454 406.542C604.592 407.871 578.314 407.564 573.917 406.235C572.384 405.724 569.418 403.474 567.374 401.225C563.795 397.135 563.693 397.135 558.274 398.566C553.161 399.998 552.445 399.793 545.493 396.317C539.562 393.352 537.722 391.716 535.881 387.626C533.53 382.411 528.315 378.628 525.145 379.855C524.123 380.264 522.998 382.105 522.589 384.047C521.976 386.808 522.589 388.648 525.554 392.636C527.599 395.397 529.849 399.793 530.565 402.349C531.996 407.769 534.961 409.405 537.313 406.133C538.744 404.19 539.153 404.088 540.176 405.621C540.789 406.644 541.096 407.973 540.892 408.587C540.176 410.631 547.231 414.108 550.401 413.29C552.036 412.881 555.513 410.12 558.171 407.053C562.363 402.349 563.795 402.043 563.079 405.928C562.568 408.587 564.715 411.756 568.192 413.597C573.611 416.357 581.075 422.594 581.075 424.23C581.075 425.048 579.643 426.991 577.905 428.525C576.167 430.161 573.713 433.535 572.384 436.091C569.214 442.328 560.012 451.326 556.842 451.326C553.263 451.326 547.844 454.393 545.697 457.665C544.675 459.199 542.016 461.346 539.767 462.471C528.315 468.197 514.512 474.025 510.626 474.74C506.434 475.558 506.128 475.354 503.878 470.957C502.651 468.401 501.117 463.391 500.708 459.71C500.095 455.007 498.868 451.939 496.312 449.076C494.369 446.929 492.835 444.578 492.835 443.964C492.835 443.351 490.688 440.59 488.03 437.829C484.758 434.455 482.611 430.672 481.179 426.071C480.054 422.288 477.907 417.687 476.271 415.642C465.229 401.838 461.957 397.033 460.219 391.92C458.071 385.172 456.129 384.149 455.311 389.057L454.697 392.534L450.607 387.421C444.268 379.446 443.552 383.127 449.38 392.738C452.141 397.339 456.64 405.417 459.298 410.734C461.957 416.051 465.433 422.083 466.967 424.128C468.603 426.275 469.83 429.547 469.83 431.797C469.83 436.296 471.159 439.158 476.476 445.805C478.623 448.463 480.77 452.348 481.179 454.393C481.793 457.052 484.042 459.812 489.052 463.902C496.619 470.037 501.629 476.376 502.856 481.693C503.367 483.738 505.105 485.783 507.252 486.908C510.626 488.646 511.853 488.646 522.487 486.294C528.826 484.965 535.575 483.022 537.415 482L540.789 480.262L541.607 485.067C542.323 489.362 541.505 491.509 532.916 507.971C523.714 525.66 523.203 526.273 514.001 533.533C508.786 537.622 503.367 542.633 501.935 544.678C500.504 546.722 495.903 552.142 491.711 556.845C479.441 570.444 477.805 582.407 485.883 598.46C487.927 602.549 488.745 605.617 488.234 607.56C487.825 609.196 488.132 613.285 488.848 616.66C489.972 621.976 489.87 623.408 487.927 627.293C485.065 632.917 482.815 634.86 474.84 638.847C471.363 640.585 468.501 642.528 468.501 643.142C468.501 643.755 466.047 647.027 463.081 650.401C460.116 653.775 457.662 657.047 457.662 657.763C457.662 658.479 458.787 661.137 460.116 663.898C464.206 671.975 461.445 677.803 451.63 681.893C447.438 683.631 446.108 687.108 447.131 693.447C447.642 696.719 447.335 697.844 445.495 698.866C444.166 699.582 441.814 702.138 440.28 704.592C435.372 712.363 421.058 726.166 414.616 729.336C409.197 732.097 407.868 732.301 403.88 731.176C400.404 730.256 397.541 730.358 391.713 731.79C382.92 734.244 383.942 734.346 380.261 730.665ZM539.358 345.5C542.425 343.864 542.936 343.046 542.936 338.445C542.936 335.173 542.221 332.617 541.096 331.594C540.074 330.776 538.335 328.425 537.313 326.482C535.677 323.21 535.677 323.006 537.415 323.619C539.767 324.539 542.936 323.415 542.936 321.779C542.936 321.165 541.812 319.018 540.483 317.075C538.438 314.212 537.62 313.803 535.677 314.826C534.143 315.644 533.325 315.644 533.325 314.826C533.325 314.11 531.178 312.474 528.52 311.145C522.692 308.18 520.647 304.908 522.385 301.431C523.714 298.875 528.724 297.035 530.769 298.364C533.632 300.102 534.45 297.546 532.098 294.274C526.475 286.299 518.499 286.81 508.786 295.808C502.447 301.636 501.935 303.17 505.514 305.01C506.843 305.726 507.968 307.157 507.968 308.078C507.968 309.1 510.115 312.167 512.774 315.03C518.806 321.574 519.931 324.539 519.215 332.31L518.602 338.547L526.884 342.842C531.485 345.193 535.37 347.136 535.575 347.136C535.575 347.34 537.415 346.522 539.358 345.5ZM506.025 682.814C502.651 680.871 502.14 679.848 501.22 672.691C500.504 666.965 500.811 665.738 504.185 660.217C507.661 654.593 507.866 653.469 507.15 647.436C506.025 638.643 507.968 633.939 513.08 632.815C517.886 631.792 528.417 622.488 530.871 617.069L532.814 612.876L534.143 615.842C537.517 623.203 537.108 626.373 531.28 642.528C528.213 651.117 524.839 661.444 523.816 665.432C520.749 678.212 518.908 681.28 513.898 682.814C508.581 684.552 509.093 684.552 506.025 682.814ZM1100.9 661.853C1097.01 657.661 1094.76 653.98 1094.76 652.242C1094.76 648.152 1095.38 648.561 1098.85 654.491C1100.49 657.354 1103.56 661.239 1105.6 663.182C1107.65 665.125 1109.28 667.17 1109.28 667.681C1109.28 669.93 1106.73 668.09 1100.9 661.853ZM562.261 660.115C562.261 659.501 562.772 658.888 563.488 658.888C564.102 658.888 564.715 659.399 564.715 660.115C564.715 660.83 564.204 661.342 563.488 661.342C562.772 661.342 562.261 660.728 562.261 660.115ZM1198.14 657.865C1197.73 657.149 1197.93 656.229 1198.65 655.82C1200.49 654.696 1201.1 655.616 1199.87 657.558C1199.26 658.581 1198.65 658.683 1198.14 657.865ZM570.645 655.922C570.645 655.616 571.157 655.105 571.872 654.696C572.588 654.287 573.099 654.491 573.099 655.207C573.099 655.923 572.588 656.536 571.872 656.536C571.259 656.434 570.645 656.229 570.645 655.922ZM1166.75 643.653C1165.62 640.585 1167.05 639.563 1170.43 640.994C1173.29 642.324 1173.39 642.528 1171.35 643.96C1168.48 646.107 1167.67 646.004 1166.75 643.653ZM1174.42 638.336C1172.06 636.905 1173.7 635.678 1177.48 636.189C1180.45 636.598 1180.45 636.7 1178.4 638.029C1176.97 638.745 1175.44 638.949 1174.42 638.336ZM1118.08 633.837C1115.62 628.52 1116.44 626.475 1119 631.588C1121.66 636.905 1121.76 637.109 1120.43 637.109C1119.92 637.109 1118.89 635.678 1118.08 633.837ZM1122.68 633.019C1122.58 631.792 1122.88 631.076 1123.29 631.485C1123.7 631.894 1123.7 632.917 1123.39 633.837C1122.98 634.757 1122.68 634.451 1122.68 633.019ZM1220.94 621.465C1219.81 619.727 1220.84 618.807 1223.49 619.318C1225.44 619.727 1225.44 619.931 1223.7 621.261C1222.37 622.283 1221.55 622.385 1220.94 621.465ZM507.252 615.433C506.843 614.819 507.048 614.206 507.763 614.206C508.479 614.206 508.99 614.717 508.99 615.433C508.99 616.046 508.786 616.66 508.479 616.66C508.275 616.66 507.661 616.046 507.252 615.433ZM1037.4 604.083C1029.74 601.629 1026.26 599.482 1023.29 594.983C1019.82 589.871 1013.58 585.985 1010.31 587.008C1008.98 587.417 1006.83 589.666 1005.4 592.018C1003.05 596.006 1002.64 596.21 998.345 595.392C995.892 594.983 992.415 593.245 990.575 591.609C988.325 589.564 986.587 588.848 984.849 589.462C983.52 589.871 981.475 589.769 980.452 589.155C978.816 588.235 978.918 587.826 981.577 586.088C984.644 584.043 984.644 584.043 982.599 579.748C980.963 576.272 978.612 574.431 971.148 570.751C966.035 568.194 960.207 566.047 958.265 566.047C953.766 566.047 951.925 561.957 955.299 559.401C957.344 557.97 957.038 557.561 951.721 555.005C946.199 552.346 946.097 552.142 948.756 550.71C950.289 549.892 952.641 549.176 954.175 549.176C957.038 549.176 960.616 553.164 960.616 556.436C960.616 557.561 961.843 559.912 963.275 561.753C965.831 565.025 965.933 565.025 967.774 562.673C968.796 561.344 972.17 558.89 975.238 557.049L980.759 553.88L988.428 557.356C992.722 559.299 998.754 561.753 1001.82 562.878C1004.99 564.002 1011.23 567.376 1015.73 570.342C1024.32 575.965 1028.1 580.771 1025.95 583.327C1024.21 585.474 1031.06 594.983 1038.12 600.402C1046.09 606.23 1045.99 606.742 1037.4 604.083ZM1089.96 603.981C1089.04 602.856 1088.94 602.14 1089.75 602.14C1091.19 602.14 1092.92 604.39 1092.11 605.31C1091.7 605.515 1090.78 605.003 1089.96 603.981ZM887.1 599.073C885.362 598.153 884.851 597.437 885.874 597.335C888.021 597.335 891.497 599.278 890.679 600.096C890.372 600.505 888.736 599.993 887.1 599.073ZM907.448 597.437C910.822 592.631 916.241 590.587 921.149 592.12C924.727 593.245 924.83 593.347 921.967 593.449C920.229 593.552 916.343 595.188 913.174 597.233C906.016 601.834 904.38 601.936 907.448 597.437ZM1082.7 599.073C1081.06 597.13 1081.47 596.824 1084.44 597.948C1085.46 598.357 1086.38 599.175 1086.38 599.789C1086.38 601.527 1084.34 601.118 1082.7 599.073ZM1088.32 598.051C1087.91 596.824 1087.51 594.983 1087.61 593.858C1087.61 592.529 1088.12 592.836 1088.83 594.779C1089.45 596.415 1089.86 598.255 1089.55 598.971C1089.35 599.584 1088.83 599.175 1088.32 598.051ZM1181.78 599.175C1181.78 598.869 1182.29 598.357 1183 597.846C1183.62 597.437 1184.23 597.642 1184.23 598.357C1184.23 599.073 1183.72 599.687 1183 599.687C1182.29 599.687 1181.78 599.482 1181.78 599.175ZM872.888 594.063C872.07 593.756 871.661 592.938 872.07 592.325C872.99 590.791 880.761 590.893 881.681 592.427C882.09 593.04 881.681 593.654 880.863 593.654C879.943 593.654 878.205 593.858 876.876 594.165C875.444 594.472 873.706 594.472 872.888 594.063ZM890.781 593.245C888.634 590.587 891.088 589.769 896.814 591.302C902.54 592.836 902.54 593.04 896.61 594.165C893.542 594.676 891.804 594.472 890.781 593.245ZM1072.17 592.427C1071.35 591.098 1071.15 589.973 1071.86 589.973C1072.47 589.973 1073.6 591.098 1074.32 592.427C1075.03 593.756 1075.13 594.881 1074.62 594.881C1074.11 594.881 1072.99 593.756 1072.17 592.427ZM1079.73 591.302C1076.46 587.724 1078.2 587.212 1081.57 590.689C1083.11 592.325 1083.82 593.654 1083.21 593.654C1082.39 593.654 1080.86 592.631 1079.73 591.302ZM853.257 590.996C848.962 590.382 842.828 589.053 839.76 588.03C836.59 587.008 832.91 586.497 831.58 587.008C828.82 587.928 817.061 584.452 817.061 582.714C817.061 578.828 827.899 578.521 833.625 582.305C835.772 583.736 837.511 583.736 842.009 582.714C847.02 581.589 848.144 581.691 851.007 583.94C852.848 585.27 854.893 586.394 855.608 586.394C857.96 586.394 865.22 590.484 864.606 591.405C864.299 591.916 863.379 592.325 862.561 592.222C861.743 592.222 857.551 591.609 853.257 590.996ZM1070.02 585.27C1068.79 583.94 1068.38 582.816 1069 582.816C1069.61 582.816 1071.15 583.94 1072.37 585.27C1073.6 586.599 1074.01 587.724 1073.39 587.724C1072.78 587.621 1071.25 586.599 1070.02 585.27ZM1062.45 583.736C1061.74 582.918 1060.82 580.566 1060.41 578.624C1059.69 575.454 1059.8 575.249 1061.13 577.397C1061.94 578.726 1063.37 580.669 1064.29 581.793C1065.32 582.918 1065.52 584.043 1064.91 584.452C1064.19 584.861 1063.07 584.554 1062.45 583.736ZM1036.89 579.851L1033.93 578.215L1038.63 577.294C1041.19 576.783 1045.07 574.84 1047.32 572.796C1049.78 570.648 1051.41 569.83 1051.41 570.853C1051.41 573.307 1049.88 575.249 1045.38 578.521C1040.57 582.1 1040.78 581.998 1036.89 579.851ZM810.313 575.147C805.916 572.591 797.839 562.878 795.283 556.743C793.851 553.471 790.681 548.052 788.125 544.78C785.569 541.508 782.706 537.111 781.684 535.169C780.661 533.226 777.594 529.34 774.833 526.682C769.005 521.058 765.426 515.23 767.88 515.23C771.05 515.333 779.23 519.831 782.706 523.512C792.317 533.635 794.362 535.373 798.861 538.236C803.258 540.894 805.303 543.757 805.507 547.336C805.507 548.052 806.836 549.892 808.268 551.528C809.802 553.164 812.562 556.334 814.505 558.481C816.448 560.628 818.39 564.002 818.799 565.945C820.231 572.182 815.118 577.908 810.313 575.147ZM567.067 574.329C567.067 573.716 567.578 573.102 568.294 573.102C569.01 573.102 569.521 573.613 569.521 574.329C569.521 574.943 569.01 575.556 568.294 575.556C567.578 575.556 567.067 575.045 567.067 574.329ZM886.487 574.329C886.078 573.613 886.078 572.08 886.487 570.751C886.896 569.421 886.385 567.172 885.362 565.536C883.624 562.98 883.726 562.469 885.567 559.81C886.691 558.174 888.021 553.982 888.43 550.301C889.043 545.802 890.27 542.837 892.213 540.894C894.871 538.236 895.485 538.134 901.415 539.258C906.527 540.179 908.47 540.076 911.231 538.645C915.832 536.293 916.241 536.396 914.707 539.77C912.765 544.064 908.879 545.393 904.687 543.246C897.325 539.361 887.509 545.087 892.724 550.301C894.667 552.244 895.689 552.346 899.166 551.324C905.198 549.585 907.55 549.892 903.869 551.937C899.677 554.187 898.859 556.743 901.006 561.037C902.029 562.98 902.847 565.945 902.847 567.683C902.847 570.444 902.54 570.648 900.393 569.524C899.063 568.808 897.121 566.252 896.098 563.798C894.258 559.401 894.258 559.401 891.906 561.753C889.861 563.798 889.657 564.718 890.781 568.808C891.804 572.489 891.702 573.716 890.475 574.534C888.327 575.863 887.407 575.863 886.487 574.329ZM1052.13 567.888C1051 566.149 1048.34 563.9 1046.3 562.775C1044.25 561.753 1042.82 560.628 1043.23 560.219C1045.07 558.379 1055.6 566.865 1054.68 569.524C1054.38 570.444 1053.35 569.728 1052.13 567.888ZM862.561 563.9C860.721 562.98 858.267 562.469 857.142 562.878C854.177 563.798 842.214 561.446 840.987 559.606C840.067 558.174 837.306 549.279 835.772 543.042C835.363 541.303 835.772 539.054 836.693 537.725C838.124 535.884 838.84 535.68 840.987 536.907C843.339 538.134 843.748 537.929 845.077 535.169C845.895 533.43 848.553 530.976 850.905 529.749C853.461 528.42 855.915 525.966 856.835 523.819C857.858 521.365 859.698 519.729 862.459 518.809C864.708 518.093 867.98 515.639 869.718 513.288C871.457 511.038 873.502 509.198 874.32 509.198C875.138 509.198 877.489 511.038 879.636 513.185L883.522 517.173L880.454 521.365C876.978 526.069 877.08 530.158 881.068 535.782L883.522 539.156L880.557 541.099C878.921 542.224 877.592 543.757 877.592 544.575C877.592 547.336 869.821 563.287 867.98 564.514C866.344 565.229 864.811 565.127 862.561 563.9ZM932.703 563.9C930.249 563.287 929.84 561.139 932.294 561.139C933.214 561.139 935.77 561.548 938.02 561.957C941.394 562.673 941.7 562.878 939.656 563.696C936.895 564.616 935.77 564.718 932.703 563.9ZM1124.93 548.461C1124.93 548.154 1125.44 547.643 1126.15 547.131C1126.87 546.723 1127.38 546.927 1127.38 547.643C1127.38 548.358 1126.87 548.972 1126.15 548.972C1125.44 548.972 1124.93 548.767 1124.93 548.461ZM928.408 545.189C927.488 544.269 927.386 543.144 928.204 541.508C928.92 540.281 929.124 538.747 928.715 538.134C927.59 536.396 930.351 532.101 932.6 532.101C934.339 532.101 934.339 532.306 932.498 534.351C930.862 536.089 930.76 537.316 931.68 539.77C933.623 544.78 931.476 548.256 928.408 545.189ZM321.878 541.201C321.878 540.894 322.389 540.281 323.105 539.872C323.821 539.463 324.332 539.667 324.332 540.383C324.332 541.099 323.821 541.61 323.105 541.61C322.492 541.712 321.878 541.508 321.878 541.201ZM1159.38 538.134C1158.98 537.52 1159.18 536.907 1159.9 536.907C1160.61 536.907 1161.12 537.418 1161.12 538.134C1161.12 538.747 1160.92 539.361 1160.61 539.361C1160.41 539.361 1159.79 538.747 1159.38 538.134ZM329.138 526.682C329.138 526.375 329.649 525.864 330.365 525.353C330.978 524.944 331.592 525.148 331.592 525.864C331.592 526.58 331.08 527.091 330.365 527.091C329.649 527.296 329.138 526.989 329.138 526.682ZM910.004 508.584C907.652 503.165 907.345 502.961 903.869 503.779C900.29 504.597 900.188 504.494 901.517 501.938C902.642 499.893 903.665 499.484 906.221 500.098C908.675 500.609 910.311 500.098 912.765 497.848C914.503 496.212 916.036 493.861 916.036 492.634C916.036 489.566 920.535 499.791 921.558 505.312C922.376 509.505 922.274 509.709 920.331 508.175C917.57 505.824 914.809 508.278 917.161 511.038C918.081 512.163 918.184 512.879 917.468 512.879C916.752 512.879 915.321 513.185 914.298 513.594C912.969 514.003 911.844 512.776 910.004 508.584ZM689.866 510.731C688.537 508.584 687.718 498.666 688.741 496.11C689.763 493.349 689.866 493.349 692.933 497.951C696.614 503.37 697.841 506.846 696.614 508.789C695.387 510.425 690.581 511.958 689.866 510.731ZM959.492 504.494C959.492 503.881 960.003 502.961 960.718 502.552C961.434 502.143 961.945 502.347 961.945 503.063C961.945 503.676 961.434 504.597 960.718 505.006C960.105 505.312 959.492 505.108 959.492 504.494ZM1149.16 504.29C1149.16 503.676 1149.36 503.063 1149.67 503.063C1149.98 503.063 1150.49 503.574 1150.9 504.29C1151.31 504.903 1151.1 505.517 1150.39 505.517C1149.67 505.517 1149.16 505.006 1149.16 504.29ZM875.035 497.337C875.035 496.826 877.489 493.656 880.454 490.384C884.749 485.579 885.874 484.863 885.874 486.908C885.874 488.237 884.033 491.407 881.886 493.861C878 497.951 875.035 499.484 875.035 497.337ZM901.108 494.065C900.699 492.94 900.802 491.202 901.313 490.18C902.131 488.646 902.54 488.646 903.665 490.078C904.789 491.407 904.687 492.327 903.46 493.963C902.029 496.11 901.926 496.11 901.108 494.065ZM-23.6152 489.362C-22.8995 488.442 -22.5927 487.419 -23.104 486.908C-23.513 486.499 -22.7972 486.09 -21.3658 486.09C-19.4231 486.09 -19.0141 486.703 -19.5253 488.544C-19.9343 489.975 -21.1613 490.998 -22.5927 490.998C-24.4332 490.998 -24.6377 490.691 -23.6152 489.362ZM909.288 489.055C908.879 487.828 908.266 486.397 907.959 485.885C907.652 485.374 907.959 484.965 908.572 484.965C909.799 484.965 911.435 489.975 910.617 490.793C910.311 491.1 909.697 490.384 909.288 489.055ZM897.019 485.885C895.28 483.84 897.019 480.978 899.472 481.489C901.108 481.796 901.108 482.307 899.881 484.658C898.654 487.01 898.143 487.215 897.019 485.885ZM911.333 481.796C910.004 480.057 908.981 478.421 909.288 478.115C910.311 477.092 913.685 479.342 915.525 482.102C918.184 486.294 914.707 486.09 911.333 481.796ZM891.395 477.092C890.372 475.967 889.452 474.536 889.452 473.718C889.452 473.002 890.679 473.514 892.111 474.945C893.542 476.376 894.462 477.91 894.053 478.319C893.747 478.728 892.52 478.217 891.395 477.092ZM-56.4366 476.888C-56.8456 476.479 -57.2545 475.558 -57.2545 474.843C-57.2545 474.127 -56.641 474.127 -55.8231 475.047C-55.0051 475.865 -54.6984 476.785 -55.0051 477.092C-55.4141 477.501 -56.0276 477.399 -56.4366 476.888ZM-63.2871 475.354C-63.2871 474.74 -63.0826 474.127 -62.7759 474.127C-62.4691 474.127 -61.9579 474.638 -61.4467 475.354C-61.0377 475.967 -61.2422 476.581 -61.9579 476.581C-62.7759 476.581 -63.2871 475.967 -63.2871 475.354ZM-6.53991 472.9C-6.53991 472.287 -6.33542 471.673 -6.02868 471.673C-5.72194 471.673 -5.21072 472.184 -4.80173 472.9C-4.39274 473.514 -4.59724 474.127 -5.31297 474.127C-6.0287 474.127 -6.53991 473.616 -6.53991 472.9ZM903.562 472.696C902.335 471.98 900.086 471.775 898.45 472.184C896.098 472.798 894.462 471.878 890.168 467.276C884.033 460.937 882.806 458.279 884.647 454.802C885.362 453.473 885.874 450.815 885.874 448.77C885.874 442.226 890.27 442.43 893.44 449.179C895.28 452.962 895.28 453.678 893.542 457.767C891.702 462.062 891.804 462.266 894.974 465.64C897.325 468.094 899.063 468.912 900.904 468.401C902.438 467.992 904.176 468.503 905.096 469.628C907.243 472.389 906.323 474.229 903.562 472.696ZM-13.7995 465.129C-13.7995 464.822 -13.2883 464.311 -12.5725 463.8C-11.959 463.391 -11.3455 463.596 -11.3455 464.311C-11.3455 465.027 -11.8568 465.64 -12.5725 465.64C-13.2883 465.64 -13.7995 465.436 -13.7995 465.129ZM175.767 460.835C175.767 460.221 176.278 459.608 176.994 459.608C177.607 459.608 178.221 460.119 178.221 460.835C178.221 461.448 177.71 462.062 176.994 462.062C176.38 462.062 175.767 461.551 175.767 460.835ZM-17.3781 456.131C-17.3781 455.416 -16.8669 454.598 -16.1512 454.189C-15.5377 453.78 -14.9242 453.984 -14.9242 454.7C-14.9242 455.313 -15.4354 456.234 -16.1512 456.643C-16.8669 457.052 -17.3781 456.847 -17.3781 456.131ZM-27.7051 451.224C-28.1141 450.508 -27.6028 450.303 -26.5804 450.712C-24.5354 451.53 -24.1265 452.348 -25.8647 452.348C-26.4781 452.348 -27.2961 451.837 -27.7051 451.224ZM164.315 451.224C163.906 450.61 164.111 449.997 164.826 449.997C165.542 449.997 166.156 450.508 166.156 451.224C166.156 451.939 165.951 452.451 165.644 452.451C165.338 452.348 164.724 451.837 164.315 451.224ZM-22.8995 448.77C-23.3085 448.156 -23.104 447.543 -22.3882 447.543C-21.6725 447.543 -21.059 448.054 -21.059 448.77C-21.059 449.383 -21.2635 449.997 -21.5703 449.997C-21.877 449.997 -22.4905 449.383 -22.8995 448.77ZM-17.3781 448.77C-17.3781 448.156 -17.1736 447.543 -16.8669 447.543C-16.5601 447.543 -16.0489 448.054 -15.5377 448.77C-15.1287 449.383 -15.3332 449.997 -16.0489 449.997C-16.7647 449.997 -17.3781 449.383 -17.3781 448.77ZM-100.403 445.498C-101.221 445.191 -101.937 444.373 -101.937 443.76C-101.937 442.021 -96.6197 442.43 -94.0635 444.475C-91.8141 446.111 -91.9163 446.214 -95.3927 446.214C-97.3354 446.214 -99.5849 445.907 -100.403 445.498ZM-69.9332 444.884C-71.0579 444.271 -73.4096 444.066 -75.25 444.475C-77.0905 444.884 -79.9534 444.68 -81.5894 444.066C-84.1456 443.044 -83.9411 442.942 -79.5444 443.044C-73.1029 443.146 -71.3646 442.124 -73.0006 439.056C-74.1253 436.909 -73.8186 436.705 -68.0927 436.705C-62.4691 436.705 -54.4939 439.261 -53.1646 441.51C-52.1422 442.942 -67.6837 446.111 -69.9332 444.884ZM-46.7231 445.6C-48.1545 444.169 -46.4163 442.737 -43.2467 442.737C-41.304 442.737 -40.3838 443.351 -40.6905 444.271C-41.2017 445.907 -45.4961 446.929 -46.7231 445.6ZM826.979 443.657C823.81 440.488 826.979 436.602 832.807 436.602C835.363 436.602 835.363 436.602 833.216 440.385C830.558 444.987 829.024 445.702 826.979 443.657ZM-36.7028 443.453C-36.7028 443.146 -35.8849 442.635 -34.8624 442.328C-33.8399 441.919 -33.022 442.124 -33.022 442.839C-33.022 443.453 -33.8399 443.964 -34.8624 443.964C-35.8849 443.964 -36.7028 443.76 -36.7028 443.453ZM-88.9512 434.762C-89.3601 434.353 -91.9163 434.046 -94.5748 434.046C-98.3579 433.944 -99.2781 433.637 -98.3579 432.512C-97.4377 431.388 -98.7669 429.956 -103.164 427.093C-111.855 421.47 -116.762 420.345 -122.59 422.697C-128.112 424.844 -128.521 424.946 -128.521 423.617C-128.521 421.061 -118.91 418.3 -111.957 418.811C-105.311 419.323 -101.63 420.754 -88.6444 427.707C-78.0107 433.433 -77.9085 433.433 -81.3849 434.455C-85.3725 435.478 -88.1332 435.682 -88.9512 434.762ZM-80.2601 424.639C-77.9085 423.106 -76.6815 423.106 -76.6815 424.639C-76.6815 425.355 -77.9085 425.866 -79.4422 425.866C-81.4871 425.764 -81.6916 425.56 -80.2601 424.639ZM881.477 422.492C880.761 421.981 879.534 420.345 878.716 418.811C877.489 416.46 877.591 415.437 879.432 412.267C882.295 407.462 884.135 406.848 885.056 410.529C886.078 414.312 883.317 423.617 881.477 422.492ZM-72.2849 420.856C-71.4669 419.527 -66.968 419.425 -66.968 420.652C-66.968 421.163 -68.2972 421.674 -69.9332 421.776C-71.5691 421.879 -72.6939 421.47 -72.2849 420.856ZM-96.2107 409.2C-98.1534 406.951 -97.8467 404.088 -95.6995 404.088C-94.9837 404.088 -94.7792 405.11 -95.086 406.439C-95.3927 407.769 -95.086 408.996 -94.3703 409.302C-93.6545 409.609 -93.3478 410.12 -93.6545 410.529C-93.9613 410.938 -95.1882 410.427 -96.2107 409.2ZM-89.1557 399.691C-89.5647 398.566 -89.6669 397.339 -89.3601 397.033C-89.0534 396.726 -88.4399 397.339 -87.9287 398.464C-87.5197 399.589 -87.4175 400.816 -87.7242 401.122C-88.1332 401.531 -88.7467 400.816 -89.1557 399.691ZM-96.7219 398.669C-96.7219 397.646 -95.6995 396.828 -94.4725 396.828C-92.4276 396.828 -92.3253 397.033 -93.9613 398.669C-94.9837 399.691 -96.0062 400.509 -96.2107 400.509C-96.5175 400.407 -96.7219 399.691 -96.7219 398.669ZM916.036 372.187C916.036 371.266 914.707 368.915 913.071 366.972C909.288 362.473 910.617 359.406 915.116 362.371C918.388 364.518 920.024 368.915 918.899 371.982C917.979 374.334 916.036 374.436 916.036 372.187ZM-21.059 364.927C-21.059 364.62 -20.5478 364.109 -19.832 363.598C-19.2186 363.189 -18.6051 363.393 -18.6051 364.109C-18.6051 364.825 -19.1163 365.438 -19.832 365.438C-20.5478 365.438 -21.059 365.234 -21.059 364.927ZM922.785 363.393C921.967 361.348 923.807 359.406 926.67 359.406C928.613 359.406 928.613 362.064 926.772 364.007C924.727 365.949 923.705 365.847 922.785 363.393ZM933.828 358.997C931.476 355.418 928.204 354.907 920.535 357.054C917.468 357.872 915.321 357.872 913.889 357.054C912.765 356.338 912.458 355.827 913.174 355.827C913.991 355.827 916.241 354.396 918.184 352.76C920.74 350.612 922.683 349.897 924.727 350.408C926.875 350.919 929.226 349.897 934.134 346.216C943.643 339.058 944.563 336.809 940.678 329.14C936.895 321.779 938.02 319.427 943.541 322.699C947.529 325.051 951.312 331.901 950.289 334.764C949.88 335.787 950.494 339.058 951.619 341.921C953.152 346.113 953.357 347.852 952.334 349.794C950.801 352.657 946.506 354.6 941.598 354.6C938.838 354.6 938.02 355.316 937.099 358.485L935.975 362.371L933.828 358.997ZM444.575 354.907C443.143 353.475 443.859 352.146 446.211 352.146C447.54 352.146 448.869 351.635 449.278 350.919C450.403 349.079 452.345 349.488 451.63 351.328C450.914 353.373 445.699 355.929 444.575 354.907ZM403.471 352.76L399.893 351.124L404.698 351.021C410.731 350.919 415.127 352.044 414.309 353.475C413.287 355.111 407.561 354.702 403.471 352.76ZM354.597 340.797C349.792 338.343 349.587 338.036 352.041 337.32C355.108 336.502 361.754 337.525 361.652 338.752C361.652 339.161 361.243 340.388 360.732 341.512C360.016 343.251 359.403 343.251 354.597 340.797ZM330.467 327.709C329.444 324.744 329.547 323.517 330.876 322.188C333.33 319.734 335.272 321.472 335.272 326.175C335.17 331.697 332.205 332.617 330.467 327.709ZM302.144 328.731C302.962 326.482 306.643 326.073 305.927 328.322C305.621 329.14 304.496 329.958 303.371 330.265C302.042 330.47 301.633 330.061 302.144 328.731ZM933.112 314.928C930.862 311.861 930.862 311.247 932.498 308.896C934.134 306.646 934.134 305.93 932.396 302.761C929.635 297.546 930.044 297.239 934.748 300.818C937.099 302.556 941.701 304.806 944.972 305.828C951.823 307.873 953.357 309.407 949.88 310.531C948.551 310.94 947.426 312.065 947.426 313.088C947.426 314.417 946.608 314.621 944.154 314.008C937.815 312.372 935.975 312.781 936.384 315.746C936.895 319.222 936.077 319.018 933.112 314.928ZM332.41 316.36C330.978 314.928 331.489 312.576 333.432 311.861C334.761 311.349 335.272 311.963 335.272 314.11C335.17 317.075 334.045 317.996 332.41 316.36ZM925.443 290.9C924.421 289.775 921.967 285.481 919.922 281.493C917.979 277.506 912.662 270.144 908.163 265.236C903.153 259.715 900.699 256.034 901.62 255.727C902.438 255.42 904.278 256.749 905.71 258.488C908.981 262.884 913.071 266.77 919.615 271.473C924.932 275.461 927.59 279.039 924.114 277.71C920.126 276.176 921.149 279.857 926.261 285.583C929.226 288.957 931.68 292.025 931.68 292.331C931.783 293.865 927.079 292.74 925.443 290.9ZM41.7207 288.753C41.7207 287.73 42.232 286.912 42.8455 286.912C43.4589 286.912 43.6634 287.73 43.3567 288.753C42.9477 289.775 42.4365 290.593 42.232 290.593C42.0275 290.593 41.7207 289.775 41.7207 288.753ZM35.4837 284.867L30.9848 284.356L39.4713 275.972C44.1747 271.371 48.5713 267.588 49.287 267.588C50.105 267.588 49.7983 268.508 48.7758 269.735C46.2196 272.496 47.9578 275.665 52.5589 276.688C54.6039 277.097 56.5466 278.63 57.3646 280.369C58.5915 283.129 58.387 283.334 54.1949 284.561C49.696 285.685 44.4814 285.788 35.4837 284.867ZM-258.784 276.176C-262.976 272.291 -263.385 270.655 -260.624 269.53C-258.17 268.61 -253.569 271.678 -251.831 275.461C-249.99 279.448 -249.99 279.653 -252.751 279.653C-254.08 279.653 -256.739 278.119 -258.784 276.176ZM273.004 270.042C274.333 269.428 276.992 268.303 278.832 267.588C282.922 266.054 282.308 264.52 277.094 263.498C273.515 262.782 273.413 262.578 275.458 261.146C276.685 260.226 277.298 258.999 276.889 258.283C276.48 257.567 277.707 256.443 279.752 255.727C281.695 255.011 283.331 253.887 283.331 253.273C283.331 250.512 280.775 245.809 279.445 246.013C276.174 246.422 274.742 245.911 275.253 244.378C275.56 243.56 275.356 241.924 274.742 240.799C273.208 237.731 276.787 231.494 280.059 231.494C280.57 231.494 280.877 232.108 280.672 232.926C280.468 233.744 281.695 234.562 283.229 234.869L286.092 235.278L283.433 238.14L280.775 241.003L283.842 242.128C287.114 243.355 290.284 247.445 293.453 254.5C294.987 257.874 296.01 258.794 297.85 258.283C301.531 257.363 301.94 259.817 298.566 262.066C296.214 263.6 295.805 264.418 296.828 265.543C297.85 266.565 295.805 267.281 288.852 268.303C283.638 269.019 277.605 270.042 275.253 270.451C271.572 271.064 271.163 270.962 273.004 270.042ZM252.657 263.396C252.248 262.271 252.759 259.919 253.679 257.976C254.804 255.829 255.008 254.193 254.293 253.784C252.248 252.455 252.963 250.819 256.031 250.103C257.667 249.694 259.609 248.57 260.427 247.649C262.063 245.707 269.425 245.4 270.55 247.138C270.959 247.752 270.448 249.592 269.425 251.024C268.403 252.455 267.585 255.113 267.585 256.954C267.585 259.612 266.767 260.43 262.472 261.964C259.609 262.987 256.44 264.111 255.417 264.622C254.088 265.031 253.168 264.622 252.657 263.396ZM274.844 251.433C274.844 251.126 275.356 250.615 276.071 250.206C276.685 249.797 277.298 250.001 277.298 250.717C277.298 251.433 276.787 252.046 276.071 252.046C275.356 251.944 274.844 251.637 274.844 251.433ZM-261.135 245.605C-262.362 244.173 -262.26 243.56 -260.726 242.333C-258.273 240.288 -257.046 241.719 -258.477 244.889C-259.499 247.036 -259.806 247.138 -261.135 245.605ZM-262.976 236.505C-263.385 235.891 -262.874 234.664 -261.953 233.846C-260.011 232.21 -259.602 233.539 -261.238 236.096C-261.851 237.016 -262.567 237.22 -262.976 236.505ZM-341.093 235.687C-341.093 234.869 -337.412 233.335 -332.197 232.108C-330.255 231.597 -329.028 231.699 -329.437 232.415C-329.846 233.028 -331.584 233.846 -333.424 234.153C-335.265 234.562 -337.719 235.175 -338.843 235.687C-340.07 236.096 -341.093 236.096 -341.093 235.687ZM376.58 222.088C374.331 221.167 374.74 219.838 377.296 219.634C378.523 219.531 379.545 220.247 379.545 221.167C379.443 223.008 379.034 223.11 376.58 222.088ZM111.147 215.953C103.478 211.761 99.8994 205.421 102.047 200.002C103.069 197.446 103.171 195.912 102.149 194.072C100.104 190.289 102.762 185.994 109.408 181.802C112.578 179.86 115.748 177.201 116.463 175.872C118.406 172.293 116.668 166.056 113.294 164.522C111.556 163.705 110.635 162.478 111.044 161.557C111.862 159.308 107.875 151.742 103.887 147.958C100.922 145.198 99.6949 144.891 89.5724 144.891C75.8713 144.789 73.3151 144.073 73.5196 140.085C73.6219 138.449 73.9286 137.12 74.3376 137.12C74.6443 137.12 79.5522 136.507 85.1758 135.893C92.3331 134.973 98.7747 133.235 106.852 129.758C119.224 124.442 120.247 124.339 149.796 125.055C159.1 125.26 167.689 124.544 178.732 122.703C189.059 121.067 196.625 120.352 200.715 120.863C204.192 121.272 209.202 120.965 212.065 120.249C218.608 118.511 235.786 120.658 242.534 124.033C246.522 126.078 248.567 126.282 255.315 125.669C262.575 124.953 263.086 125.055 260.939 126.691C259.609 127.713 255.52 128.838 251.839 129.349C243.863 130.372 236.604 135.996 238.547 139.676C239.365 141.21 238.751 142.539 236.093 145.096C234.15 146.936 232.207 149.39 231.901 150.515C231.083 153.173 220.347 158.081 215.132 158.285C209.202 158.49 208.588 159.717 213.189 162.273C215.336 163.5 218.506 165.443 220.142 166.772L223.21 169.124L220.449 170.146C218.302 170.964 216.563 170.453 213.087 167.999C208.281 164.727 203.169 164.625 205.93 167.999C206.952 169.328 206.748 169.839 204.703 170.351C200.204 171.475 203.374 173.827 208.384 173.009C211.553 172.498 213.292 172.805 214.314 173.929C215.439 175.361 214.007 175.974 205.112 177.815C199.284 179.042 191.615 180.064 187.934 180.166C181.186 180.269 176.278 182.211 169.019 187.733C166.667 189.471 161.657 191.311 155.829 192.436C143.661 194.788 139.469 197.446 132.21 207.978C126.279 216.362 122.701 219.531 119.02 219.531C117.997 219.225 114.521 217.793 111.147 215.953ZM25.5657 207.875C23.0095 206.239 19.8399 203.274 18.5106 201.229C15.9545 197.242 13.705 196.73 6.85444 198.673C4.50276 199.287 1.94659 199.389 0.924118 198.775C-2.65453 196.73 3.78703 194.788 11.0466 195.708C16.5679 196.424 17.6927 196.219 18.4084 194.583C19.7376 191.209 25.5657 188.857 28.8376 190.289C30.8825 191.209 32.723 191.209 35.2792 190.187C38.7556 188.857 38.7556 188.755 36.5061 187.119C35.1769 186.199 33.7455 185.381 33.2342 185.381C32.723 185.381 30.8826 182.927 29.1443 179.962C27.4061 176.997 24.1342 173.418 21.8848 172.089C18.1016 169.737 17.5904 169.737 14.114 171.475C11.1488 173.009 9.41065 173.111 4.70728 172.089C1.53761 171.373 -2.85902 171.169 -5.10846 171.578C-8.99385 172.293 -16.1512 170.351 -16.1512 168.612C-16.1512 165.34 -5.92643 158.081 0.106153 156.956L4.91175 156.138L1.43535 159.819C-3.37026 164.931 -1.5298 167.181 3.6848 162.682C5.832 160.739 9.71737 158.797 12.0691 158.388C15.75 157.672 17.3859 158.183 22.0893 161.251C28.3264 165.34 28.8376 165.443 32.314 163.602C34.4612 162.478 35.1769 162.784 37.5286 165.647C39.1646 167.59 42.641 169.839 46.1174 170.862C51.6387 172.6 52.0477 173.009 52.0477 176.792C52.0477 179.655 52.8657 181.496 54.8084 182.825C62.8859 188.653 62.7837 188.346 60.9432 191.209C58.4893 195.094 56.6488 195.299 51.332 192.64C47.6511 190.8 46.0151 190.493 44.1747 191.516C41.9252 192.743 41.823 192.947 43.6634 196.526C45.1971 199.389 45.2994 200.922 44.2769 203.172C43.05 205.933 42.8455 205.933 39.3691 204.194C32.6208 200.718 28.1219 202.967 34.359 206.751C36.3017 207.875 37.6309 209.307 37.3241 209.818C36.1994 211.761 30.2691 210.738 25.5657 207.875ZM273.617 209.409C273.617 208.898 274.435 208.387 275.458 208.387C276.48 208.387 277.298 208.796 277.298 209.409C277.298 209.92 276.48 210.431 275.458 210.431C274.435 210.431 273.617 210.022 273.617 209.409ZM-19.9343 202.967C-22.286 201.74 -24.1264 201.638 -27.5006 202.558C-33.1242 204.092 -35.1691 202.967 -32.3062 199.798C-28.6253 195.708 -26.1714 194.89 -21.6725 196.424C-16.6624 198.06 -14.413 200.513 -15.8444 202.865C-16.6624 204.399 -17.2759 204.399 -19.9343 202.967ZM219.835 202.456C217.893 201.127 215.336 200.411 214.212 200.718C212.678 201.229 212.371 200.82 212.78 198.98C213.496 196.219 224.13 192.231 227.708 193.356C228.935 193.765 232.105 193.458 234.763 192.64C238.956 191.413 240.08 191.516 242.841 193.356L246.113 195.503L243.25 197.753C240.796 199.696 236.195 201.331 225.254 204.297C224.334 204.603 221.88 203.683 219.835 202.456ZM-107.969 179.86C-109.605 179.553 -113.695 178.224 -116.967 176.69L-122.897 174.031L-114.513 173.418C-109.912 173.111 -106.129 172.293 -106.129 171.578C-106.129 170.964 -109.401 170.044 -113.388 169.737C-118.603 169.226 -119.625 168.919 -116.967 168.51C-112.57 167.794 -112.264 165.954 -116.353 164.931C-119.319 164.216 -119.319 164.113 -115.126 162.375C-107.867 159.308 -100.198 158.694 -93.3478 160.739C-87.7242 162.375 -86.9062 162.375 -84.2478 160.637C-82.4073 159.41 -81.2826 159.206 -81.1804 160.024C-81.0781 160.739 -80.9759 161.966 -80.8736 162.784C-80.5669 165.443 -78.2152 165.034 -75.3523 161.966C-72.6939 159.103 -68.0927 157.774 -68.0927 159.819C-68.0927 160.33 -69.2174 162.478 -70.4444 164.625L-72.7961 168.51L-68.9107 170.555L-65.0253 172.6L-71.4669 175.565C-77.1927 178.224 -78.4197 178.326 -83.6343 177.099C-88.6444 175.872 -90.0759 176.076 -95.1882 178.224C-100.914 180.678 -102.141 180.78 -107.969 179.86ZM-59.6062 179.042C-60.731 177.712 -60.2197 177.099 -57.459 175.872C-55.5163 175.054 -52.6534 174.747 -51.2219 175.258C-48.5635 176.076 -48.6658 176.179 -52.6534 178.326C-57.5613 181.087 -57.868 181.087 -59.6062 179.042ZM273.617 173.418C275.969 171.884 277.196 171.884 277.196 173.418C277.196 174.031 275.969 174.645 274.435 174.645C272.288 174.645 272.186 174.338 273.617 173.418ZM495.187 170.044C489.052 167.59 489.154 167.692 490.893 165.545C491.711 164.522 491.915 163.705 491.404 163.705C490.79 163.705 491.404 162.887 492.733 161.864C494.062 160.842 495.187 159.615 495.187 159.206C495.187 157.467 500.197 152.662 503.571 151.128C505.514 150.208 510.729 149.185 515.023 148.879C519.317 148.572 525.145 147.958 527.906 147.447C530.871 147.038 533.223 147.14 533.632 147.856C534.45 149.288 532.814 149.799 523.509 151.537C514.205 153.173 508.581 155.831 504.901 160.228C501.015 164.829 500.913 167.794 504.492 170.248L507.252 172.191L503.674 172.089C501.629 171.987 497.845 171.169 495.187 170.044ZM-137.314 166.567C-139.257 164.625 -138.848 164.216 -129.441 159.103C-118.501 153.071 -112.979 152.355 -103.164 155.32L-97.7444 156.956L-105.004 158.388C-110.934 159.512 -123.511 163.807 -133.429 167.897C-134.349 168.306 -136.189 167.692 -137.314 166.567ZM-49.995 165.034C-49.995 164.42 -51.5287 162.989 -53.2669 161.966L-56.5388 160.024L-52.1422 160.739C-48.9725 161.251 -47.4388 160.944 -46.7231 159.717C-45.9051 158.285 -38.2365 155.32 -35.1691 155.32C-34.6579 155.32 -35.0669 156.956 -36.0894 158.899C-38.5433 163.602 -49.995 168.612 -49.995 165.034ZM-31.1815 161.455C-32.9197 158.694 -21.059 154.298 -16.0489 155.934C-12.368 157.058 -14.822 159.103 -21.2635 160.126C-24.1265 160.637 -27.3984 161.353 -28.4208 161.864C-29.5456 162.375 -30.7725 162.171 -31.1815 161.455ZM7.36568 152.56C-0.609602 151.946 -7.25567 151.23 -7.46016 151.128C-8.58488 150.106 -5.82418 146.834 -2.96126 145.709C-0.0983412 144.482 1.23087 144.687 5.11626 146.629C8.89941 148.572 11.3533 148.879 18.4084 148.367C23.214 148.061 28.6331 148.163 30.4736 148.572L33.8477 149.39L29.6556 151.639C27.3039 152.866 24.6455 153.889 23.623 153.787C22.6005 153.787 15.341 153.275 7.36568 152.56ZM354.802 147.652C348.871 144.584 348.258 143.255 352.961 143.255C354.802 143.255 357.051 142.642 358.074 141.926C359.607 140.801 359.607 140.699 357.869 141.21C356.744 141.517 355.313 141.21 354.495 140.392C353.472 139.37 352.859 139.37 352.143 140.494C351.53 141.517 350.2 141.619 347.644 140.903C341.305 138.961 339.874 138.143 339.874 136.302C339.874 134.666 341.51 134.564 351.325 135.28C358.892 135.791 362.777 135.689 362.777 134.871C362.777 132.519 366.151 133.644 366.969 136.405L367.889 139.165L368.401 136.405C368.707 134.871 369.73 133.644 370.65 133.644C371.57 133.644 372.388 133.03 372.388 132.212C372.388 131.088 372.695 131.088 373.82 132.212C374.638 133.03 378.727 133.644 383.431 133.644C392.02 133.644 394.065 135.178 388.339 137.427C385.374 138.552 380.159 138.245 374.433 136.609C373.308 136.302 372.286 136.405 372.286 137.018C372.286 138.143 379.034 142.233 380.875 142.233C381.488 142.233 382.817 142.948 383.738 143.971C385.169 145.402 385.169 145.811 383.635 146.322C382.613 146.731 381.897 146.425 381.897 145.709C381.897 144.891 380.363 144.687 377.603 145.198C374.535 145.811 373.513 145.607 374.126 144.687C374.535 143.971 374.331 142.539 373.513 141.619C371.979 139.779 367.48 139.165 367.48 140.801C367.48 141.312 365.742 143.766 363.595 146.118L359.71 150.412L354.802 147.652ZM34.4612 144.993C32.4162 143.766 29.4511 143.357 24.85 143.869C20.5556 144.278 17.2837 143.971 15.4432 142.948C12.9893 141.517 13.6028 141.415 21.169 141.415C30.5758 141.517 34.7679 139.472 29.6556 137.325C27.2017 136.302 27.6106 136.2 31.7005 136.813C37.1196 137.529 39.2668 136.098 36.3017 133.644C33.132 130.985 36.6084 130.167 47.8556 130.985C54.8084 131.394 59.205 131.19 60.9432 130.27C64.3174 128.429 62.9882 126.078 59.1028 127.1C56.4443 127.816 37.6309 126.691 38.4488 125.873C39.0623 125.26 65.5443 122.806 83.0286 121.783C92.0264 121.17 102.149 120.454 105.421 120.045L111.351 119.329L101.638 124.033C92.5376 128.429 77.6095 132.724 71.5769 132.724C70.0432 132.724 65.8511 134.36 62.0679 136.302C58.2848 138.245 54.5016 139.881 53.5814 139.881C52.6612 139.881 48.6735 141.517 44.7882 143.46C40.9028 145.402 37.6309 147.038 37.6309 147.038C37.5286 146.834 36.1994 146.016 34.4612 144.993ZM10.9443 133.951C5.11624 132.621 4.91177 132.212 9.20615 129.963C15.4432 126.691 21.3736 125.873 24.1342 127.918C26.2814 129.452 26.1792 129.758 21.987 132.212C17.4882 134.769 15.7499 135.075 10.9443 133.951Z" stroke="white" stroke-width="2.04494" stroke-dasharray="2.04 2.04"/>
</g>
<defs>
<radialGradient id="paint0_radial_176_1427" cx="0" cy="0" r="1" gradientUnits="userSpaceOnUse" gradientTransform="translate(535 535) rotate(90) scale(535)">
<stop offset="0.102521"/>
<stop offset="1" stop-opacity="0"/>
</radialGradient>
</defs>
</svg>
