<svg width="79" height="75" viewBox="0 0 79 75" fill="none" xmlns="http://www.w3.org/2000/svg">
<circle opacity="0.5" cx="25" cy="25" r="25" fill="#EDBABD"/>
<g clip-path="url(#clip0_183_2113)">
<path d="M48.4043 10.6982C31.6973 11.6758 18.4434 25.5391 18.4434 42.5C18.4434 59.4609 31.6973 73.3242 48.4043 74.3018C65.1113 73.3115 78.3652 59.4482 78.3652 42.5C78.3652 25.5518 65.1113 11.6758 48.4043 10.6982Z" fill="#AF323A"/>
<path d="M78.2637 39.9355C77.5147 38.7803 76.8799 37.79 76.4863 37.3584C75.1533 35.9492 71.332 36.8887 69.9229 36.6982C68.5137 36.5078 65.708 35.5684 64.6035 35.1748C63.5117 34.7812 61.4805 36.0381 62.8008 36.6982C64.1338 37.3584 65.0732 37.5996 66.7871 37.5996C68.501 37.5996 67.6504 40.6465 66.7871 42.4492C65.9238 44.2393 59.9063 46.042 58.1924 45.1025C56.4785 44.1631 52.7969 37.917 52.1748 39.085C51.5527 40.2529 55.0693 45.4961 56.2373 46.8164C57.4053 48.1494 59.8301 47.9082 59.4365 49.7871C59.043 51.666 56.4023 53.5449 54.917 55.5762C53.4316 57.6074 51.3242 70.2646 48.8994 70.2646C46.4746 70.2646 43.8213 68.1572 41.3203 65.7324C38.8193 63.3076 38.9717 59.3213 38.9717 57.0615C38.9717 54.8018 36.7881 50.1045 35.3789 48.0732C33.9697 46.042 28.2695 45.8008 26.1621 43.1475C24.0547 40.4941 24.8418 36.1904 26.5557 34.2354C28.2695 32.2803 30.7705 32.2803 32.332 32.0518C33.8936 31.8232 36.5469 32.4453 36.7119 34.2354C36.8643 36.0254 44.291 36.1904 45.3066 36.6602C46.3223 37.1299 50.5371 37.5234 51.0957 36.1143C51.6416 34.7051 45.2305 33.5371 43.9863 32.5596C42.7422 31.582 45.7891 30.2617 47.1855 29.5508C48.5947 28.8525 52.5049 30.3379 53.5967 29.792C54.6885 29.2461 50.0039 27.5195 48.2012 26.9736C46.3984 26.4277 44.5322 28.3066 42.6533 29.0811C40.7744 29.8682 38.1211 27.748 36.4834 26.8975C34.8457 26.0342 32.4209 29.627 29.6787 30.3379C26.9492 31.0361 25.3877 28.7764 26.5557 27.5195C27.7236 26.2754 28.8281 27.126 29.7549 26.0342C30.6943 24.9424 30.7705 22.2002 34.2109 21.6543C37.6514 21.1084 41.2441 22.6699 44.0625 21.6543C46.8682 20.6387 46.5635 18.5313 45.2305 18.6074C43.8975 18.6836 39.6826 20.4102 38.8193 19.3057C37.9561 18.2139 39.3906 16.0938 43.7832 14.6973C47.9727 13.3643 49.2803 15.3701 50.3086 10.8506C65.2764 12.6406 77.0576 24.8027 78.2637 39.9355Z" fill="#D34C55"/>
<path d="M17.1738 15.7129C17.1738 17.1094 16.0312 18.252 14.6348 18.252C16.0312 18.252 17.1738 19.3945 17.1738 20.791C17.1738 19.3945 18.3164 18.252 19.7129 18.252C18.3164 18.252 17.1738 17.1094 17.1738 15.7129ZM75.8262 69.2871C75.8262 67.8906 76.9688 66.748 78.3652 66.748C76.9688 66.748 75.8262 65.6055 75.8262 64.209C75.8262 65.6055 74.6836 66.748 73.2871 66.748C74.6836 66.748 75.8262 67.8906 75.8262 69.2871Z" fill="#C61F2A"/>
<path d="M14.6348 60.4004C14.6348 58.8896 17.8721 56.9473 20.6016 56.9473C23.3311 56.9473 23.3311 58.3818 23.3311 58.3818C23.3311 58.3818 24.9814 55.5635 27.5205 55.5635C30.0596 55.5635 30.5039 57.0361 30.5039 57.0361C30.5039 57.0361 32.7256 54.0654 36.5977 54.0654C40.4697 54.0654 39.2002 57.6963 39.2002 57.6963C39.2002 57.6963 40.9141 56.0332 43.6436 56.0332C46.373 56.0332 46.373 60.4004 46.373 60.4004H14.6348Z" fill="#FFA9AF"/>
<path d="M14.6348 60.4004C14.6348 58.8896 17.8721 56.9473 20.6016 56.9473C23.3311 56.9473 23.3311 58.3818 23.3311 58.3818C23.3311 58.3818 24.9814 55.5635 27.5205 55.5635C30.0596 55.5635 30.5039 57.0361 30.5039 57.0361C30.5039 57.0361 32.7256 54.0654 36.5977 54.0654C40.4697 54.0654 39.2002 57.6963 39.2002 57.6963C39.2002 57.6963 40.9141 56.0332 43.6436 56.0332C46.373 56.0332 46.373 60.4004 46.373 60.4004H14.6348ZM46.627 23.9648C46.627 22.4541 47.4521 20.5117 50.1816 20.5117C51.502 20.5117 52.9111 21.4893 52.9111 21.4893C52.9111 21.4893 54.4346 19.1152 56.9736 19.1152C59.5127 19.1152 60.4268 21.3623 60.4268 21.3623C60.4268 21.3623 64.083 17.6172 67.9551 17.6172C71.8271 17.6172 70.8877 21.5273 70.8877 21.5273C70.8877 21.5273 72.2715 19.5723 75.001 19.5723C77.7305 19.5723 78.3652 23.9648 78.3652 23.9648H46.627Z" fill="#FFA9AF"/>
<path d="M16.5137 55.0557C14.8506 51.0693 14 46.8545 14 42.5C14 33.8164 17.377 25.6533 23.5215 19.5215C29.6533 13.377 37.8164 10 46.5 10C53.9521 10 61.2266 12.5771 66.9902 17.2744L66.1904 18.2646C60.6426 13.7451 53.6602 11.2695 46.5 11.2695C29.2852 11.2695 15.2695 25.2852 15.2695 42.5C15.2695 46.6768 16.082 50.7393 17.6816 54.5605L16.5137 55.0557Z" fill="black"/>
<path d="M46.5 75C35.7471 75 25.7051 69.6934 19.6367 60.7939L20.6904 60.083C26.5176 68.627 36.166 73.7305 46.5 73.7305C63.7148 73.7305 77.7305 59.7148 77.7305 42.5C77.7305 35.9365 75.7119 29.6523 71.9033 24.333C71.7637 24.1426 71.751 23.8887 71.8525 23.6729C71.9668 23.457 72.1826 23.3301 72.4111 23.3301H77.5654C77.2734 22.2129 76.5371 20.2197 74.9883 20.2197C72.6143 20.2197 71.4082 21.8828 71.3955 21.9082C71.2178 22.1621 70.8877 22.251 70.6211 22.124C70.3418 21.9971 70.1895 21.6924 70.2656 21.4004C70.2656 21.3877 70.6084 19.8896 69.8975 18.9883C69.5166 18.5059 68.8564 18.2646 67.9551 18.2646C64.3877 18.2646 60.9092 21.7939 60.8711 21.832C60.7188 21.9844 60.5029 22.0479 60.2998 22.0098C60.084 21.9717 59.9189 21.8193 59.8301 21.6289C59.8047 21.5527 59.0303 19.7754 56.9736 19.7754C54.8281 19.7754 53.457 21.832 53.4443 21.8574C53.3555 21.9971 53.2031 22.0986 53.0381 22.1367C52.873 22.1748 52.6953 22.1367 52.5557 22.0352C52.543 22.0225 51.2861 21.1719 50.1943 21.1719C48.0996 21.1719 47.5029 22.4668 47.3379 23.3555H69.8594V24.625H46.627C46.2715 24.625 45.9922 24.3457 45.9922 23.9902C45.9922 22.1113 47.084 19.9023 50.1816 19.9023C51.1719 19.9023 52.1621 20.3594 52.7461 20.6768C53.3936 19.9023 54.8535 18.5186 56.9736 18.5186C58.9033 18.5186 60.0205 19.6104 60.5664 20.3975C61.8105 19.2676 64.7686 16.9824 67.9551 16.9824C69.2754 16.9824 70.2656 17.3887 70.9004 18.1885C71.3447 18.7471 71.5225 19.4072 71.5986 20.0039C72.3731 19.458 73.5029 18.9375 75.001 18.9375C78.2383 18.9375 78.9619 23.6602 78.9873 23.8633C79.0127 24.041 78.9619 24.2314 78.835 24.3711C78.7207 24.5107 78.543 24.5869 78.3525 24.5869H73.6172C77.1338 29.9062 78.9873 36.0635 78.9873 42.4873C78.9873 51.1709 75.6104 59.334 69.4658 65.4658C63.3467 71.623 55.1836 75 46.5 75Z" fill="black"/>
<path d="M37.8672 54.6875C37.1182 52.3516 35.7598 49.7236 34.8711 48.4287C34.3252 47.6416 32.7764 47.1084 31.1514 46.5498C29.1582 45.8643 26.9111 45.0898 25.6797 43.541C23.2803 40.5322 24.3086 35.8477 26.0986 33.8164C27.7236 31.9629 29.9326 31.6963 31.5449 31.5059C31.7988 31.4805 32.04 31.4424 32.2559 31.417C33.4111 31.2393 35.1885 31.4678 36.3311 32.3691C36.9404 32.8516 37.2959 33.4736 37.3594 34.1719C37.3594 34.1719 37.4609 34.5654 39.0986 34.9717C40.292 35.2764 41.8281 35.4668 43.0723 35.6191C44.4688 35.7969 45.2051 35.8984 45.5859 36.0762C46.208 36.3682 48.8232 36.6982 50.0928 36.1777C50.2705 36.1016 50.4102 36.0127 50.4736 35.9238C50.1055 35.4414 47.9219 34.7178 46.7158 34.3242C45.3447 33.8672 44.1514 33.4736 43.5928 33.042C43.0723 32.6357 43.0342 32.166 43.0596 31.9121C43.1738 30.8711 44.6084 30.084 46.4746 29.1699C46.627 29.0938 46.7666 29.0303 46.8936 28.9668C47.8203 28.4971 49.3564 28.7637 50.8418 29.0049C51.2988 29.0811 51.8447 29.1699 52.3145 29.2207C51.2607 28.6875 49.4453 28.002 48.0107 27.5576C47.0459 27.2656 45.9287 27.9385 44.748 28.6494C44.1514 29.0049 43.5293 29.3857 42.8945 29.6523C41.1172 30.3887 38.9971 29.1191 37.2959 28.0908C36.8896 27.8496 36.5088 27.6211 36.1914 27.4434C35.6455 27.1514 34.5664 27.9893 33.5254 28.7891C32.4336 29.627 31.2021 30.5791 29.8438 30.9346C27.9141 31.4297 26.4541 30.6426 25.8574 29.627C25.3496 28.7637 25.4385 27.7607 26.0986 27.0625C26.8604 26.25 27.6094 26.1484 28.2061 26.0596C28.6885 25.9961 28.9805 25.9453 29.2852 25.6025C29.4756 25.374 29.6533 25.0059 29.8438 24.5869C30.415 23.3428 31.2783 21.4766 34.1221 21.0195C35.7852 20.7529 37.4229 20.9561 39.0225 21.1465C40.7998 21.3623 42.4756 21.5527 43.8594 21.0576C45.2559 20.5498 45.6621 19.7881 45.5859 19.4326C45.5732 19.3818 45.5479 19.2295 45.2812 19.2422C44.9258 19.2676 44.2402 19.4453 43.5039 19.6357C41.3838 20.1943 39.1875 20.7783 38.3369 19.6992C37.9688 19.2295 37.8672 18.6328 38.0576 18.0107C38.5146 16.5 40.5459 15.0781 43.6055 14.0879C45.0273 13.6309 46.1191 13.542 46.9951 13.4785C47.8711 13.415 48.3408 13.3643 48.6836 13.085C49.0898 12.7549 49.4072 12.0186 49.6992 10.7109L50.9434 10.9902C50.1816 14.3418 49.1025 14.583 47.0967 14.7354C46.2842 14.7988 45.2812 14.875 43.999 15.2939C40.9014 16.2842 39.5176 17.5664 39.2764 18.3789C39.1875 18.6709 39.2637 18.8232 39.3398 18.9121C39.3398 18.9121 39.5303 19.1152 40.584 18.9883C41.3838 18.8867 42.3359 18.6328 43.1865 18.4043C44.0244 18.1885 44.7354 17.998 45.2178 17.96C46.0303 17.9092 46.6777 18.3916 46.8428 19.166C47.0459 20.1689 46.3477 21.502 44.3037 22.2383C42.6406 22.835 40.8125 22.6191 38.8828 22.3906C37.3721 22.2129 35.8232 22.0225 34.3379 22.2637C32.167 22.6064 31.583 23.876 31.0117 25.1074C30.7832 25.6025 30.5674 26.0596 30.2627 26.4277C29.6533 27.1387 28.9678 27.2402 28.4092 27.3164C27.9014 27.3926 27.4951 27.4434 27.0381 27.9258C26.6572 28.332 26.8604 28.7891 26.9619 28.9668C27.3174 29.5635 28.2441 30.0205 29.5391 29.6904C30.6436 29.4111 31.7607 28.5352 32.7637 27.7734C34.1855 26.6816 35.5312 25.6406 36.7881 26.3008C37.1436 26.4912 37.5498 26.7324 37.9688 26.9863C39.4287 27.8623 41.2441 28.9668 42.4248 28.4717C42.9707 28.2432 43.5547 27.9004 44.1133 27.5576C45.4844 26.7324 46.9062 25.8818 48.4043 26.3389C49.2676 26.6055 50.6514 27.0879 51.8193 27.583C53.9141 28.4717 54.3584 28.9668 54.3965 29.4873C54.4219 29.8428 54.2314 30.1475 53.8887 30.3252C53.1904 30.668 52.0225 30.4775 50.6514 30.249C49.4834 30.0586 48.0361 29.8047 47.4775 30.0967L47.0459 30.3125C46.4238 30.6172 44.5703 31.5186 44.3418 32.0137C44.3545 32.0264 44.3672 32.0264 44.3799 32.0391C44.7607 32.3311 46.0176 32.75 47.1221 33.1182C49.6611 33.9561 51.2354 34.5273 51.667 35.4414C51.8066 35.7334 51.8193 36.0381 51.7051 36.3301C51.5273 36.7744 51.1465 37.1299 50.5752 37.3584C48.9629 38.0059 45.9922 37.6504 45.0654 37.2314C44.8496 37.1299 43.7832 36.9902 42.9199 36.8887C39.1494 36.4189 36.2422 35.9238 36.1025 34.2861C36.0771 33.9307 35.8994 33.626 35.5566 33.3594C34.7568 32.7246 33.3604 32.5342 32.459 32.6611C32.2178 32.6992 31.9766 32.7246 31.71 32.7627C30.2246 32.9404 28.3711 33.1562 27.0635 34.6416C25.6035 36.292 24.7402 40.2783 26.6953 42.7285C27.6982 43.9853 29.6787 44.6709 31.583 45.3184C33.4238 45.9531 35.1504 46.5498 35.9375 47.6797C36.8896 49.0508 38.3242 51.8311 39.0986 54.2812L37.8672 54.6875ZM48.8994 70.8994C46.1064 70.8994 43.1484 68.3857 40.876 66.1895C39.5049 64.8691 38.7178 62.9902 38.4512 60.4766L39.708 60.3496C39.9365 62.5586 40.6094 64.1836 41.752 65.2881C43.8467 67.3193 46.5508 69.6426 48.8867 69.6426C48.9121 69.6426 49.458 69.6172 50.4482 67.0908C51.1211 65.377 51.7432 63.1807 52.3525 61.0479C53.2285 57.9629 53.7998 56.0332 54.3965 55.208C54.9678 54.4209 55.7041 53.6719 56.4023 52.9482C57.4941 51.8311 58.6113 50.6758 58.8271 49.6729C58.9414 49.1143 58.7764 48.9492 57.6846 48.4668C57.0498 48.1875 56.3262 47.8701 55.7803 47.248C55.1582 46.5498 53.9521 44.8486 53 43.2236C51.2734 40.2656 51.3623 39.3008 51.6289 38.793C51.7812 38.5137 52.0352 38.3359 52.3271 38.3105C53.1143 38.2344 53.876 39.1104 55.6914 41.4336C56.6562 42.665 57.8496 44.1885 58.4971 44.5439C59.0557 44.8486 60.7441 44.7978 62.8643 44.125C64.832 43.4902 65.9873 42.665 66.2158 42.1826C66.9902 40.5703 67.3584 38.8438 67.041 38.3486C67.0156 38.3105 66.9775 38.2471 66.7871 38.2471C65.0225 38.2471 63.9814 38.0186 62.5215 37.2822C61.6963 36.876 61.6328 36.1904 61.8232 35.7461C62.2168 34.832 63.7783 34.2227 64.8066 34.6035C66.2285 35.1113 68.7803 35.9238 69.999 36.1016C70.3672 36.1523 71.0146 36.1016 71.7129 36.0635C73.541 35.9365 75.8135 35.7715 76.9434 36.9648C77.3496 37.3965 77.9082 38.2598 78.6191 39.3516L78.7969 39.6309L77.7305 40.3164L77.5527 40.0371C76.9053 39.0342 76.3467 38.1709 76.0166 37.8281C75.3057 37.0791 73.2744 37.2187 71.8018 37.3203C71.0146 37.3711 70.3291 37.4219 69.834 37.3584C68.4248 37.168 65.6572 36.2539 64.4004 35.8096C63.9941 35.6699 63.334 35.9365 63.0928 36.165C63.0928 36.165 63.1055 36.165 63.1055 36.1777C64.3877 36.8125 65.251 37.0156 66.8125 37.0156C67.3838 37.0156 67.8535 37.2568 68.1328 37.7012C69.0342 39.1357 67.6631 42.1699 67.3838 42.7666C66.7363 44.1377 64.2861 45.0518 63.2705 45.3691C61.4551 45.9531 59.0938 46.3467 57.9131 45.6992C57.0371 45.2168 55.9072 43.7822 54.7139 42.2588C54.1553 41.5479 53.4062 40.5957 52.873 40.0371C53.0254 40.5322 53.3682 41.3701 54.1807 42.7412C55.082 44.2646 56.1865 45.8135 56.7451 46.4482C57.1006 46.8545 57.6719 47.1084 58.2178 47.3369C59.1572 47.7432 60.4395 48.3144 60.0967 49.9648C59.8174 51.3232 58.6113 52.5674 57.3418 53.8623C56.6689 54.5605 55.9707 55.2715 55.4502 55.9824C54.9551 56.668 54.2695 59.0801 53.6094 61.416C51.9082 67.3066 50.7529 70.8994 48.8994 70.8994ZM17.1738 21.4258C16.8184 21.4258 16.5391 21.1465 16.5391 20.791C16.5391 19.7373 15.6885 18.8867 14.6348 18.8867C14.2793 18.8867 14 18.6074 14 18.252C14 17.8965 14.2793 17.6172 14.6348 17.6172C15.6885 17.6172 16.5391 16.7666 16.5391 15.7129C16.5391 15.3574 16.8184 15.0781 17.1738 15.0781C17.5293 15.0781 17.8086 15.3574 17.8086 15.7129C17.8086 16.7666 18.6592 17.6172 19.7129 17.6172C20.0684 17.6172 20.3477 17.8965 20.3477 18.252C20.3477 18.6074 20.0684 18.8867 19.7129 18.8867C18.6592 18.8867 17.8086 19.7373 17.8086 20.791C17.8086 21.1465 17.5293 21.4258 17.1738 21.4258ZM16.5391 18.252C16.7803 18.4297 16.9961 18.6455 17.1738 18.8867C17.3516 18.6455 17.5674 18.4297 17.8086 18.252C17.5674 18.0742 17.3516 17.8584 17.1738 17.6172C16.9961 17.8584 16.7803 18.0742 16.5391 18.252ZM75.8262 69.9219C75.4707 69.9219 75.1914 69.6426 75.1914 69.2871C75.1914 68.2334 74.3408 67.3828 73.2871 67.3828C72.9316 67.3828 72.6523 67.1035 72.6523 66.748C72.6523 66.3926 72.9316 66.1133 73.2871 66.1133C74.3408 66.1133 75.1914 65.2627 75.1914 64.209C75.1914 63.8535 75.4707 63.5742 75.8262 63.5742C76.1816 63.5742 76.4609 63.8535 76.4609 64.209C76.4609 65.2627 77.3115 66.1133 78.3652 66.1133C78.7207 66.1133 79 66.3926 79 66.748C79 67.1035 78.7207 67.3828 78.3652 67.3828C77.3115 67.3828 76.4609 68.2334 76.4609 69.2871C76.4609 69.6426 76.1816 69.9219 75.8262 69.9219ZM75.1914 66.748C75.4326 66.9258 75.6484 67.1416 75.8262 67.3828C76.0039 67.1416 76.2197 66.9258 76.4609 66.748C76.2197 66.5703 76.0039 66.3545 75.8262 66.1133C75.6484 66.3545 75.4326 66.5703 75.1914 66.748Z" fill="black"/>
<path d="M46.373 61.0352H14.6348C14.2793 61.0352 14 60.7559 14 60.4004C14 58.3311 17.7832 56.3125 20.6016 56.3125C22.125 56.3125 22.9502 56.7314 23.4072 57.1758C24.1689 56.249 25.6035 54.916 27.5205 54.916C29.1582 54.916 30.0723 55.4746 30.5674 55.9951C31.5068 55.0557 33.5762 53.418 36.5977 53.418C37.9561 53.418 38.9463 53.8242 39.5176 54.6367C39.8984 55.1699 40.0127 55.7793 40.0381 56.3252C40.8887 55.8555 42.1201 55.3857 43.6562 55.3857C45.0527 55.3857 46.1191 56.3252 46.6523 58.0264C47.0205 59.207 47.0205 60.3623 47.0205 60.4131C47.0078 60.7559 46.7285 61.0352 46.373 61.0352ZM15.5488 59.7656H45.7002C45.5859 58.6992 45.1797 56.6553 43.6436 56.6553C41.2188 56.6553 39.6572 58.1279 39.6445 58.1406C39.4287 58.3438 39.1113 58.3818 38.8574 58.2168C38.6162 58.0518 38.502 57.7471 38.6035 57.4805C38.7305 57.1123 38.9463 56.0332 38.4766 55.373C38.1592 54.9287 37.5244 54.7002 36.5977 54.7002C33.0811 54.7002 31.0371 57.3916 31.0117 57.417C30.8594 57.6074 30.6182 57.7217 30.377 57.6709C30.1357 57.6201 29.958 57.4551 29.8945 57.2266C29.8564 57.125 29.4375 56.1982 27.5205 56.1982C25.375 56.1982 23.8896 58.6738 23.877 58.6992C23.7246 58.9531 23.4199 59.1055 23.1279 59.0166C22.8486 58.9277 22.6709 58.6865 22.6836 58.3945C22.6455 58.1025 22.1504 57.5947 20.5889 57.5947C18.5068 57.582 16.3105 58.7881 15.5488 59.7656Z" fill="black"/>
</g>
<defs>
<clipPath id="clip0_183_2113">
<rect width="65" height="65" fill="white" transform="translate(14 10)"/>
</clipPath>
</defs>
</svg>
