<svg width="87" height="75" viewBox="0 0 87 75" fill="none" xmlns="http://www.w3.org/2000/svg">
<circle cx="53.0625" cy="41.0625" r="33.5" fill="#F9E9EA"/>
<path d="M36.4694 28.4229C35.0953 28.9003 33.5607 29.134 32.062 29.1401C30.8697 29.1344 29.683 28.9893 28.5306 28.6831V36.3892C30.4184 39.1734 31.1152 42.0812 30.4201 44.2751H34.9819C34.3448 42.2538 34.8852 39.6023 36.4694 37.007V28.4229Z" fill="#FF0011"/>
<path d="M32.0639 29.1402C39.8044 29.1402 46.0794 22.8653 46.0794 15.1248C46.0794 7.3843 39.8044 1.10938 32.0639 1.10938C24.3234 1.10938 18.0485 7.3843 18.0485 15.1248C18.0485 22.8653 24.3234 29.1402 32.0639 29.1402Z" fill="#FF2A38"/>
<path d="M19.7505 13.7282C19.1083 13.7207 18.4873 13.9261 18.0692 14.4136C18.0534 14.6262 18.051 14.911 18.0449 15.1241C18.0449 22.8647 24.3199 29.1398 32.0605 29.1398C37.7959 29.1346 42.9664 25.6355 45.0871 20.3065C44.5807 18.3512 41.8969 18.0838 41.0124 19.8996C41.0124 19.8996 40.5826 20.7801 39.6391 21.8409C39.1464 21.3003 38.3312 21.204 37.7261 21.6149C37.5093 21.7616 37.3357 21.9635 37.223 22.1998C36.449 21.4741 35.2756 21.3815 34.3973 21.9766C33.3602 22.6811 33.0907 24.0931 33.7954 25.1301C33.7973 25.133 33.7991 25.136 33.8009 25.1389C32.7298 25.2988 31.5188 25.3026 30.1189 25.0485C26.1478 24.3278 24.2783 22.1209 23.1562 19.9339C22.0342 17.7469 21.8847 15.7801 21.8847 15.7801C21.8223 14.6412 20.8911 13.7444 19.7505 13.7282Z" fill="#C61F2A"/>
<path d="M24.2579 15.472C24.7141 16.1435 25.6283 16.318 26.2998 15.8618C26.9713 15.4056 27.1458 14.4914 26.6896 13.8199C26.2334 13.1484 25.3192 12.9738 24.6477 13.4301C23.9762 13.8863 23.8017 14.8005 24.2579 15.472Z" fill="#C61F2A"/>
<path d="M32.0622 1.1084C27.4589 1.10936 23.1495 3.37072 20.5332 7.15829C20.6956 9.08307 23.0995 9.85658 24.3536 8.38749C24.3536 8.38749 27.9372 4.26618 33.0371 4.95988C38.079 5.59537 40.4175 8.54756 41.9973 12.7137C42.2439 14.7347 44.8988 15.3166 45.9936 13.6C45.225 6.48941 39.2142 1.11598 32.0622 1.1084Z" fill="white"/>
<path d="M32.0424 9.02418C31.4474 9.03564 30.9732 9.52515 30.9802 10.1202V10.5434C30.968 10.5468 30.9516 10.5483 30.9393 10.552C30.1832 10.7579 29.5318 11.1624 29.0836 11.7432C28.6355 12.324 28.414 13.119 28.5949 13.8866C28.945 15.372 30.3847 16.1756 31.9063 16.2268C33.2146 16.2387 33.6008 16.976 33.3302 17.2466C33.2185 17.3914 32.9785 17.5714 32.6172 17.6698C31.8944 17.8667 31.0362 17.5588 30.7954 17.2466C29.9412 15.9413 28.0398 17.4055 29.0836 18.5648C29.5697 19.1948 30.2399 19.5957 30.9795 19.7857V20.1644C30.9857 20.4477 31.1025 20.7172 31.305 20.9153C31.5075 21.1134 31.7795 21.2243 32.0628 21.2243C32.3461 21.2243 32.6181 21.1134 32.8206 20.9153C33.0231 20.7172 33.1399 20.4477 33.1461 20.1644V19.7645C33.1584 19.7611 33.1748 19.7596 33.1871 19.7559C33.9432 19.55 34.5946 19.1455 35.0427 18.5647C35.4908 17.9839 35.7102 17.1889 35.5293 16.4213C35.1049 14.8372 33.4647 14.1471 32.0593 14.0705C31.2581 14.0705 30.7501 13.6088 30.6988 13.3913C30.6742 13.2825 30.6865 13.2081 30.7962 13.0633C30.908 12.9185 31.1459 12.7386 31.5072 12.6401C32.23 12.4433 33.0903 12.7512 33.3311 13.0633C34.1898 14.3505 36.0697 12.9005 35.0428 11.743C34.5568 11.113 33.8865 10.7123 33.147 10.5221V10.1201C33.1552 9.50855 32.654 9.01225 32.0424 9.02418Z" fill="#7C0008"/>
<path d="M49.3086 29.104C47.865 29.0345 46.2442 29.3561 44.5949 30.0393C42.9456 30.7226 41.3207 31.7455 39.8696 33.0142C37.9689 34.6791 36.4603 36.684 35.5768 38.7193C34.6934 40.7546 34.4844 42.707 34.9819 44.2749H48.5532C48.783 44.095 49.0088 43.9094 49.2303 43.7184C51.5268 41.7102 53.2363 39.2205 53.9826 36.7968C54.729 34.3732 54.4512 32.2141 53.2103 30.7946C52.3136 29.7696 50.9593 29.1828 49.3086 29.104Z" fill="white"/>
<path d="M59.9106 44.2739H5.09356C4.08953 44.2739 3.2756 45.0879 3.2756 46.0919V51.4557C3.2756 52.4597 4.08953 53.2736 5.09356 53.2736H59.9106C60.9146 53.2736 61.7285 52.4597 61.7285 51.4557V46.0919C61.7285 45.0879 60.9146 44.2739 59.9106 44.2739Z" fill="#FF2A38"/>
<path d="M10.207 53.2739L13.3978 62.076C13.7537 63.0583 14.6771 63.8957 16.2669 63.8957H49.1943C50.7842 63.8957 51.7375 63.0625 52.0635 62.076L54.9707 53.2739H10.207Z" fill="#FF0011"/>
<path d="M16.0934 29.104C14.4436 29.1832 13.0901 29.77 12.1939 30.7946C10.9524 32.2138 10.6741 34.3727 11.4201 36.7963C12.1661 39.22 13.8753 41.71 16.1717 43.7184C16.3932 43.9094 16.6191 44.095 16.8488 44.2749H30.4201C30.9177 42.707 30.7086 40.7546 29.8252 38.7193C28.9418 36.684 27.4332 34.6791 25.5324 33.0142C24.0813 31.7455 22.4565 30.7226 20.8072 30.0393C19.1579 29.3561 17.537 29.0345 16.0934 29.104Z" fill="white"/>
<path d="M13.4697 56.8834C13.4154 56.8814 13.361 56.8821 13.3068 56.8856C12.9959 56.9065 12.6976 57.0163 12.4474 57.202C12.1971 57.3877 12.0056 57.6414 11.8955 57.9329L13.3978 62.0758C13.7537 63.0581 14.6771 63.8955 16.2669 63.8955H49.1943C50.7842 63.8955 51.7375 63.0623 52.0635 62.0758L52.4041 61.0433H47.7026C47.7026 60.8213 47.6355 60.6044 47.5101 60.4212C47.4282 60.302 47.3236 60.2 47.2022 60.1212C47.0809 60.0424 46.9452 59.9883 46.8029 59.962C46.6607 59.9357 46.5146 59.9376 46.3731 59.9678C46.2316 59.9979 46.0974 60.0556 45.9782 60.1377C45.8343 60.2368 45.7161 60.3688 45.6333 60.5227C45.6262 60.125 45.5026 59.738 45.2779 59.4098C44.9726 58.9648 44.503 58.6593 43.9725 58.5605C43.442 58.4617 42.8939 58.5777 42.4489 58.8829C42.1087 59.117 41.8478 59.449 41.7008 59.8349C41.5538 60.2207 41.5276 60.6422 41.6258 61.0433H16.0977C16.0977 61.0433 16.0992 61.0613 16.0511 61.0433L14.9466 57.9731C14.8389 57.6638 14.6403 57.3943 14.3767 57.1998C14.1132 57.0054 13.797 56.8951 13.4697 56.8834Z" fill="#C2000D"/>
<path d="M4.43067 47.9122C4.21407 47.9145 4.0001 47.96 3.80134 48.0461C3.60259 48.1322 3.42305 48.2572 3.27328 48.4137V51.4564C3.27328 52.4643 4.08504 53.2739 5.09295 53.2739H59.9071C60.915 53.2739 61.7267 52.4643 61.7267 51.4564V50.4894H45.8216C45.8651 50.3554 45.8772 50.2132 45.857 50.0738C45.8368 49.9344 45.7849 49.8015 45.7053 49.6854C45.5671 49.4846 45.3549 49.3469 45.1153 49.3025C44.8757 49.258 44.6282 49.3105 44.4273 49.4484C44.2641 49.5607 44.1416 49.7227 44.0779 49.9103C44.0143 50.0978 44.0129 50.301 44.0739 50.4894H21.0129C20.9959 50.339 20.9422 50.1951 20.8563 50.0704C20.7184 49.8694 20.5064 49.7312 20.2668 49.6864C20.0271 49.6415 19.7795 49.6937 19.5783 49.8313C19.4575 49.9139 19.3581 50.0242 19.2884 50.153C19.2825 49.821 19.1795 49.4981 18.9922 49.2241C18.8659 49.04 18.7046 48.8825 18.5175 48.7608C18.3304 48.639 18.1211 48.5553 17.9016 48.5144C17.6822 48.4736 17.4568 48.4763 17.2384 48.5226C17.02 48.5688 16.8128 48.6577 16.6288 48.784C16.3588 48.9697 16.1483 49.2295 16.0225 49.532C15.8967 49.8346 15.8611 50.1671 15.9199 50.4894H6.07683V49.5605C6.07994 49.3434 6.0395 49.1278 5.9579 48.9266C5.8763 48.7253 5.75519 48.5425 5.60174 48.3888C5.44828 48.2352 5.26559 48.1139 5.06445 48.032C4.86332 47.9501 4.64781 47.9094 4.43067 47.9122Z" fill="#C61F2A"/>
<path d="M16.0934 29.1039C14.4436 29.183 13.0901 29.7698 12.1938 30.7944C9.60875 33.7497 11.3897 39.5359 16.1717 43.7183C16.3932 43.9092 16.6191 44.0949 16.8488 44.2748H30.4201C31.3584 41.3113 29.7436 37.1394 26.3618 33.7905C24.8236 33.6226 23.9433 35.4959 25.0542 36.5729C26.6777 38.2866 27.3303 39.897 27.606 41.0671C27.6598 41.2955 27.6088 41.2281 27.6377 41.412H17.9364C15.5666 39.3061 12.4263 35.0044 14.3457 32.6056C14.8891 32.0744 15.7951 31.9899 15.7951 31.9899C17.2979 31.9484 17.9968 30.0619 16.8382 29.1039C16.6025 29.0929 16.3202 29.0957 16.0934 29.1039Z" fill="#FFB8BD"/>
<path d="M29.8044 32.8786C29.3022 32.8867 28.832 33.1265 28.5306 33.5282V36.3888C30.4184 39.173 31.1152 42.0809 30.4201 44.2748H30.9935H34.9819C34.6312 43.1203 34.696 42.1754 34.8042 41.3633H33.2998C33.2556 40.4184 33.3729 39.6321 32.6354 37.925C32.1593 36.8228 31.8073 36.1376 31.5479 35.6927C31.5028 35.6155 31.4979 35.6269 31.4526 35.5573V34.5269C31.4658 33.6112 30.7201 32.8655 29.8044 32.8786Z" fill="#C2000D"/>
<path d="M48.7098 29.0979C47.5471 30.0554 48.2515 31.951 49.7572 31.9903C49.7572 31.9903 50.6546 32.0748 51.1981 32.6061C51.5731 32.9727 51.7722 34.4087 51.598 35.2382C51.4116 36.1257 50.8385 37.3703 50.1169 38.6533C49.9294 38.9865 49.1498 39.9123 48.4622 40.6041C48.009 41.0602 47.8435 41.2015 47.6138 41.4124H37.9145C37.9435 41.2285 37.8925 41.2959 37.9463 41.0675C38.2219 39.8974 38.8746 38.287 40.498 36.5733C41.6757 35.4293 40.6076 33.4597 39.0063 33.8227C38.5699 34.2593 38.196 34.6627 37.7686 35.1917C37.3009 35.7378 36.8581 36.3852 36.4629 37.0125C35.0485 39.3221 34.3294 41.9852 34.9417 44.1165C34.9544 44.1691 34.9678 44.2235 34.9819 44.2752H48.5532C51.3056 42.0953 53.6399 38.933 54.2392 35.7554C54.5352 34.1861 54.439 32.5953 53.5679 31.2603C52.4332 29.567 50.5106 29.0573 48.7098 29.0979Z" fill="#FFB8BD"/>
<path d="M5.09295 44.2749C4.08504 44.2749 3.27328 45.0845 3.27328 46.0924V47.1356C3.37771 47.1573 3.48402 47.1687 3.59067 47.1696H58.8343V47.9524C58.8186 48.2952 58.9118 48.6341 59.1005 48.9206C59.2892 49.2072 59.5638 49.4266 59.8848 49.5476C60.2059 49.6686 60.557 49.6848 60.8879 49.594C61.2187 49.5032 61.5124 49.31 61.7267 49.0421V46.0926C61.7267 45.0847 60.915 44.275 59.9071 44.275L5.09295 44.2749Z" fill="white"/>
<path d="M10.207 53.2739L11.2417 56.1261H51.0859L50.5739 57.6453C50.1129 59.0394 51.5896 60.2821 52.8844 59.5898L54.9707 53.2739H54.3931H10.207ZM36.4694 28.4229C34.9014 28.9672 33.2698 29.1412 32.0619 29.1402C30.853 29.1389 29.6489 28.9792 28.5305 28.6832V31.6116C29.6335 31.9477 30.9658 32.1794 32.3962 32.0305C33.0819 31.9592 33.2289 31.9318 33.651 31.8803V41.3637L34.8042 41.3636C35.0057 39.8673 35.7179 38.2074 36.4693 37.0156L36.4694 28.4229Z" fill="#FF0011"/>
<path d="M32.0639 29.1402C39.8044 29.1402 46.0794 22.8653 46.0794 15.1248C46.0794 7.3843 39.8044 1.10938 32.0639 1.10938C24.3234 1.10938 18.0485 7.3843 18.0485 15.1248C18.0485 22.8653 24.3234 29.1402 32.0639 29.1402Z" stroke="#7C0008" stroke-width="2.16598" stroke-linecap="round" stroke-linejoin="round"/>
<path d="M59.9106 44.2739H5.09356C4.08953 44.2739 3.2756 45.0879 3.2756 46.0919V51.4557C3.2756 52.4597 4.08953 53.2736 5.09356 53.2736H59.9106C60.9146 53.2736 61.7285 52.4597 61.7285 51.4557V46.0919C61.7285 45.0879 60.9146 44.2739 59.9106 44.2739Z" stroke="#7C0008" stroke-width="2.16598" stroke-linecap="round" stroke-linejoin="round"/>
<path d="M10.207 53.2739L13.3978 62.076C13.7537 63.0583 14.6771 63.8957 16.2669 63.8957H49.1943C50.7842 63.8957 51.7375 63.0625 52.0635 62.076L54.9707 53.2739H10.207Z" stroke="#7C0008" stroke-width="2.16598" stroke-linecap="round" stroke-linejoin="round"/>
<path d="M22.6168 58.5833C22.8715 58.9543 23.3787 59.0486 23.7497 58.7939C24.1207 58.5392 24.215 58.032 23.9603 57.661C23.7056 57.29 23.1984 57.1957 22.8274 57.4504C22.4564 57.7051 22.3621 58.2123 22.6168 58.5833Z" fill="#C2000D"/>
<path d="M30.4201 44.2751C31.1152 42.0812 30.4184 39.1734 28.5306 36.3892V28.6831C29.683 28.9893 30.8697 29.1344 32.062 29.1401C33.5607 29.134 35.0953 28.9003 36.4694 28.4229V37.007C34.8852 39.6023 34.3448 42.2538 34.9819 44.2751M30.4201 44.2751H34.9819M30.4201 44.2751H16.8488C16.6191 44.0952 16.3932 43.9096 16.1717 43.7186C13.8753 41.7101 12.1661 39.2202 11.4201 36.7965C10.6741 34.3728 10.9524 32.2139 12.1939 30.7948C13.0901 29.7701 14.4436 29.1833 16.0934 29.1042C17.537 29.0346 19.1579 29.3563 20.8072 30.0395C22.4565 30.7227 24.0813 31.7457 25.5324 33.0143C27.4332 34.6792 28.9418 36.6841 29.8252 38.7194C30.7086 40.7547 30.9177 42.7071 30.4201 44.2751ZM34.9819 44.2751C34.4844 42.7071 34.6934 40.7547 35.5768 38.7194C36.4603 36.6841 37.9689 34.6792 39.8696 33.0143C41.3207 31.7457 42.9456 30.7227 44.5949 30.0395C46.2442 29.3563 47.865 29.0346 49.3086 29.1042C50.9593 29.1829 52.3136 29.7697 53.2103 30.7948C54.4512 32.2143 54.729 34.3733 53.9826 36.797C53.2363 39.2206 51.5268 41.7104 49.2303 43.7186C49.0088 43.9096 48.783 44.0952 48.5532 44.2751H34.9819Z" stroke="#7C0008" stroke-width="2.16598" stroke-linecap="round" stroke-linejoin="round"/>
</svg>
