<svg width="75" height="75" viewBox="0 0 75 75" fill="none" xmlns="http://www.w3.org/2000/svg">
<g clip-path="url(#clip0_183_2184)">
<path d="M37.5 75C58.2107 75 75 58.2107 75 37.5C75 16.7893 58.2107 0 37.5 0C16.7893 0 0 16.7893 0 37.5C0 58.2107 16.7893 75 37.5 75Z" fill="#FF0B1B"/>
<path d="M40.272 74.8948C42.7275 74.7141 45.1592 74.2921 47.532 73.6348C51.1522 72.6289 54.6007 71.0847 57.762 69.0538C58.2852 68.6988 58.7994 68.3307 59.304 67.9498L60.264 67.2538C61.275 66.9358 60.492 67.5568 60.492 67.0768L61.362 66.3868C62.142 65.7568 62.898 65.0938 63.627 64.4008C69.969 58.2418 73.9312 50.0401 74.814 41.2438C74.874 40.4728 74.916 39.6988 74.931 38.9248L57 20.9938V20.9878H21.12V32.9998C19.866 33.8398 18.741 34.8838 17.811 36.1228V36.1288C17.505 36.5398 17.211 36.9688 16.95 37.4248V37.4308C16.59 38.0578 16.281 38.7028 16.032 39.3628V39.3688C15.78 40.0288 15.582 40.6978 15.438 41.3788V41.3848C15.1565 42.7388 15.0857 44.1282 15.228 45.5038V45.5098C15.2994 46.1922 15.4228 46.8681 15.597 47.5318V47.5378C15.771 48.2038 16.002 48.8548 16.278 49.4878V49.4938C16.554 50.1298 16.881 50.7478 17.256 51.3418V51.3478C17.631 51.9388 18.054 52.5058 18.528 53.0458L18.486 53.0818V53.0878L18.606 53.2078L18.762 53.3668L18.996 53.6038L19.095 53.7148V53.7208L40.272 74.8948Z" fill="#C61F2A"/>
<path d="M21.12 21V33.006C19.41 34.1428 17.9834 35.6566 16.95 37.431C15.5475 39.8731 14.9454 42.6932 15.2285 45.4951C15.5115 48.297 16.6654 50.9398 18.528 53.052L18.486 53.085C18.624 53.244 18.78 53.373 18.927 53.52C18.987 53.583 19.032 53.655 19.095 53.718C19.1659 53.7929 19.2443 53.8602 19.329 53.919C20.6225 55.0755 22.2076 55.8564 23.9128 56.1774C25.618 56.4983 27.3785 56.3471 29.004 55.74C30.7292 55.0891 32.2278 53.9503 33.3171 52.4625C34.4064 50.9748 35.0395 49.2022 35.139 47.361L35.181 47.367C35.2883 45.9065 34.9466 44.448 34.2019 43.1871C33.4572 41.9261 32.345 40.9228 31.0141 40.3115C29.6833 39.7003 28.1975 39.5103 26.7557 39.7671C25.3139 40.0238 23.985 40.715 22.947 41.748L25.065 43.869C25.6525 43.2783 26.4038 42.8775 27.2216 42.7185C28.0395 42.5596 28.8862 42.6498 29.6522 42.9776C30.4181 43.3053 31.0681 43.8554 31.5179 44.5567C31.9677 45.258 32.1966 46.0781 32.175 46.911C32.1605 48.1856 31.7717 49.4279 31.057 50.4834C30.3423 51.5389 29.3332 52.3611 28.1551 52.8479C26.977 53.3347 25.6818 53.4645 24.4306 53.2213C23.1793 52.9781 22.027 52.3726 21.117 51.48C19.5169 49.8324 18.5015 47.7053 18.2266 45.425C17.9517 43.1448 18.4325 40.8374 19.5952 38.8567C20.7579 36.8759 22.5382 35.3314 24.6632 34.4599C26.7882 33.5884 29.1404 33.438 31.359 34.032C33.5922 34.6284 35.5659 35.9458 36.9732 37.7795C38.3805 39.6133 39.1426 41.8605 39.141 44.172C39.136 44.4968 39.2366 44.8145 39.4276 45.0773C39.6186 45.34 39.8898 45.5337 40.2004 45.6291C40.5109 45.7244 40.844 45.7164 41.1496 45.6063C41.4552 45.4961 41.7168 45.2896 41.895 45.018H57V21H21.12ZM24.12 24H54V42.018H41.958C41.5433 39.4506 40.3961 37.0575 38.6543 35.1262C36.9125 33.195 34.6501 31.8077 32.139 31.131C29.49 30.4328 26.6908 30.5616 24.117 31.5L24.12 24Z" fill="#F9E9EA"/>
</g>
<defs>
<clipPath id="clip0_183_2184">
<rect width="75" height="75" fill="white"/>
</clipPath>
</defs>
</svg>
