<svg width="75" height="75" viewBox="0 0 75 75" fill="none" xmlns="http://www.w3.org/2000/svg">
<circle cx="37.5" cy="37.5" r="37.5" fill="#F9E9EA"/>
<path d="M33.875 17.3335H31.1667C25.1836 17.3335 20.3333 22.1837 20.3333 28.1668V30.8752C21.0812 31.623 22.2938 31.623 23.0417 30.8752V28.1668C23.0417 23.6795 26.6794 20.0418 31.1667 20.0418H33.875C34.6229 19.294 34.6229 18.0814 33.875 17.3335ZM33.875 57.9585H31.1667C26.6794 57.9585 23.0417 54.3209 23.0417 49.8335V47.1252C22.2938 46.3774 21.0812 46.3774 20.3333 47.1252V49.8335C20.3333 55.8165 25.1836 60.6668 31.1667 60.6668H33.875C34.6229 59.9191 34.6229 58.7063 33.875 57.9585ZM50.125 60.6668C49.3772 59.9191 49.3772 58.7063 50.125 57.9585H52.8333C57.3208 57.9585 60.9583 54.3209 60.9583 49.8335V47.1252C61.7061 46.3774 62.9189 46.3774 63.6667 47.1252V49.8335C63.6667 55.8165 58.8163 60.6668 52.8333 60.6668H50.125ZM50.125 20.0418C49.3772 19.294 49.3772 18.0814 50.125 17.3335H52.8333C58.8163 17.3335 63.6667 22.1837 63.6667 28.1668V30.8752C62.9189 31.623 61.7061 31.623 60.9583 30.8752V28.1668C60.9583 23.6795 57.3208 20.0418 52.8333 20.0418H50.125Z" fill="#FF0B1B"/>
<path d="M28.4583 30.8752C28.4583 27.8836 30.8835 25.4585 33.875 25.4585H50.125C53.1166 25.4585 55.5417 27.8836 55.5417 30.8752V47.1252C55.5417 50.1168 53.1166 52.5418 50.125 52.5418H33.875C30.8835 52.5418 28.4583 50.1168 28.4583 47.1252V30.8752Z" fill="#C61F2A"/>
<path d="M14.9167 39H69.0833" stroke="#FF0B1B" stroke-width="4.0625" stroke-linecap="round"/>
</svg>
