<svg width="100" height="100" viewBox="0 0 100 100" fill="none" xmlns="http://www.w3.org/2000/svg">
<path d="M20.3125 51.5625C28.9419 51.5625 35.9375 44.5669 35.9375 35.9375C35.9375 27.3081 28.9419 20.3125 20.3125 20.3125C11.6831 20.3125 4.6875 27.3081 4.6875 35.9375C4.6875 44.5669 11.6831 51.5625 20.3125 51.5625Z" fill="white"/>
<path opacity="0.1" d="M20.3125 20.3125C18.9937 20.3163 17.6809 20.4896 16.4062 20.8281C19.7432 21.7073 22.6952 23.6664 24.8016 26.3997C26.908 29.133 28.0504 32.4867 28.0504 35.9375C28.0504 39.3883 26.908 42.742 24.8016 45.4753C22.6952 48.2086 19.7432 50.1677 16.4062 51.0469C17.6809 51.3854 18.9937 51.5587 20.3125 51.5625C24.4565 51.5625 28.4308 49.9163 31.361 46.986C34.2913 44.0558 35.9375 40.0815 35.9375 35.9375C35.9375 31.7935 34.2913 27.8192 31.361 24.889C28.4308 21.9587 24.4565 20.3125 20.3125 20.3125Z" fill="black"/>
<path d="M34.375 89.0625H6.25C5.4212 89.0625 4.62634 88.7333 4.04029 88.1472C3.45424 87.5612 3.125 86.7663 3.125 85.9375V67.1875C3.125 64.7011 4.11272 62.3165 5.87087 60.5584C7.62903 58.8002 10.0136 57.8125 12.5 57.8125H28.125C30.6114 57.8125 32.996 58.8002 34.7541 60.5584C36.5123 62.3165 37.5 64.7011 37.5 67.1875V85.9375C37.5 86.7663 37.1708 87.5612 36.5847 88.1472C35.9987 88.7333 35.2038 89.0625 34.375 89.0625Z" fill="white"/>
<path opacity="0.1" d="M28.125 57.8125H20.3125C22.7989 57.8125 25.1835 58.8002 26.9416 60.5584C28.6998 62.3165 29.6875 64.7011 29.6875 67.1875V85.9375C29.6875 86.7663 29.3583 87.5612 28.7722 88.1472C28.1862 88.7333 27.3913 89.0625 26.5625 89.0625H34.375C35.2038 89.0625 35.9987 88.7333 36.5847 88.1472C37.1708 87.5612 37.5 86.7663 37.5 85.9375V67.1875C37.5 64.7011 36.5123 62.3165 34.7541 60.5584C32.996 58.8002 30.6114 57.8125 28.125 57.8125Z" fill="black"/>
<path d="M71.875 57.8125H87.5C89.9864 57.8125 92.371 58.8002 94.1291 60.5584C95.8873 62.3165 96.875 64.7011 96.875 67.1875V85.9375C96.875 86.7663 96.5458 87.5612 95.9597 88.1472C95.3737 88.7333 94.5788 89.0625 93.75 89.0625H65.625C64.7962 89.0625 64.0013 88.7333 63.4153 88.1472C62.8292 87.5612 62.5 86.7663 62.5 85.9375V67.1875C62.5 64.7011 63.4877 62.3165 65.2459 60.5584C67.004 58.8002 69.3886 57.8125 71.875 57.8125Z" fill="white"/>
<path d="M79.6875 51.5625C88.3169 51.5625 95.3125 44.5669 95.3125 35.9375C95.3125 27.3081 88.3169 20.3125 79.6875 20.3125C71.0581 20.3125 64.0625 27.3081 64.0625 35.9375C64.0625 44.5669 71.0581 51.5625 79.6875 51.5625Z" fill="white"/>
<path d="M50 45.3125C61.2183 45.3125 70.3125 36.2183 70.3125 25C70.3125 13.7817 61.2183 4.6875 50 4.6875C38.7817 4.6875 29.6875 13.7817 29.6875 25C29.6875 36.2183 38.7817 45.3125 50 45.3125Z" fill="#F78D94"/>
<path d="M40.625 51.5625H59.375C61.8614 51.5625 64.246 52.5502 66.0041 54.3084C67.7623 56.0665 68.75 58.4511 68.75 60.9375V85.9375C68.75 86.7663 68.4208 87.5612 67.8347 88.1472C67.2487 88.7333 66.4538 89.0625 65.625 89.0625H34.375C33.5462 89.0625 32.7513 88.7333 32.1653 88.1472C31.5792 87.5612 31.25 86.7663 31.25 85.9375V60.9375C31.25 58.4511 32.2377 56.0665 33.9959 54.3084C35.754 52.5502 38.1386 51.5625 40.625 51.5625Z" fill="#F78D94"/>
<path opacity="0.1" d="M87.5 57.8125H79.6875C82.1739 57.8125 84.5585 58.8002 86.3166 60.5584C88.0748 62.3165 89.0625 64.7011 89.0625 67.1875V85.9375C89.0625 86.7663 88.7333 87.5612 88.1472 88.1472C87.5612 88.7333 86.7663 89.0625 85.9375 89.0625H93.75C94.5788 89.0625 95.3737 88.7333 95.9597 88.1472C96.5458 87.5612 96.875 86.7663 96.875 85.9375V67.1875C96.875 64.7011 95.8873 62.3165 94.1291 60.5584C92.371 58.8002 89.9864 57.8125 87.5 57.8125ZM79.6875 20.3125C78.3687 20.3163 77.0559 20.4896 75.7812 20.8281C79.1182 21.7073 82.0702 23.6664 84.1766 26.3997C86.283 29.133 87.4254 32.4867 87.4254 35.9375C87.4254 39.3883 86.283 42.742 84.1766 45.4753C82.0702 48.2086 79.1182 50.1677 75.7812 51.0469C77.0559 51.3854 78.3687 51.5587 79.6875 51.5625C83.8315 51.5625 87.8058 49.9163 90.736 46.986C93.6663 44.0558 95.3125 40.0815 95.3125 35.9375C95.3125 31.7935 93.6663 27.8192 90.736 24.889C87.8058 21.9587 83.8315 20.3125 79.6875 20.3125ZM23.4375 59.5469H29V87.375H23.4375V59.5469ZM50 4.6875C48.6883 4.6898 47.3799 4.82063 46.0938 5.07812C50.7025 5.99526 54.8507 8.48194 57.8316 12.1145C60.8126 15.7471 62.4418 20.3009 62.4418 25C62.4418 29.6991 60.8126 34.2529 57.8316 37.8855C54.8507 41.5181 50.7025 44.0047 46.0938 44.9219C47.3799 45.1794 48.6883 45.3102 50 45.3125C55.3872 45.3125 60.5538 43.1724 64.3631 39.3631C68.1724 35.5538 70.3125 30.3872 70.3125 25C70.3125 19.6128 68.1724 14.4462 64.3631 10.6369C60.5538 6.82756 55.3872 4.6875 50 4.6875ZM59.375 51.5625H51.5625C54.0489 51.5625 56.4335 52.5502 58.1916 54.3084C59.9498 56.0665 60.9375 58.4511 60.9375 60.9375V85.9375C60.9375 86.7663 60.6083 87.5612 60.0222 88.1472C59.4362 88.7333 58.6413 89.0625 57.8125 89.0625H65.625C66.4538 89.0625 67.2487 88.7333 67.8347 88.1472C68.4208 87.5612 68.75 86.7663 68.75 85.9375V60.9375C68.75 58.4511 67.7623 56.0665 66.0041 54.3084C64.246 52.5502 61.8614 51.5625 59.375 51.5625Z" fill="black"/>
<path d="M37 44.4846C40.8461 47.0608 45.3708 48.4362 50 48.4362C54.6292 48.4362 59.1539 47.0608 63 44.4846C64.6563 47.7318 67.2231 50.4258 70.3865 52.2369C73.5499 54.0481 77.1727 54.8979 80.8115 54.6823C84.4503 54.4668 87.9474 53.1952 90.8749 51.0232C93.8023 48.8513 96.0332 45.8731 97.2945 42.453C98.5558 39.033 98.7929 35.3195 97.9767 31.7668C97.1605 28.2142 95.3264 24.9765 92.6989 22.4499C90.0714 19.9233 86.7644 18.2174 83.1825 17.5409C79.6007 16.8644 75.8993 17.2466 72.5312 18.6408C71.1294 13.7472 68.1725 9.44305 64.1075 6.37903C60.0425 3.315 55.0904 1.65771 50 1.65771C44.9096 1.65771 39.9575 3.315 35.8925 6.37903C31.8275 9.44305 28.8706 13.7472 27.4687 18.6408C24.1007 17.2466 20.3993 16.8644 16.8174 17.5409C13.2356 18.2174 9.92857 19.9233 7.30106 22.4499C4.67356 24.9765 2.8395 28.2142 2.02331 31.7668C1.20711 35.3195 1.44418 39.033 2.70549 42.453C3.96681 45.8731 6.19767 48.8513 9.12512 51.0232C12.0526 53.1952 15.5497 54.4668 19.1885 54.6823C22.8273 54.8979 26.45 54.0481 29.6134 52.2369C32.7769 50.4258 35.3437 47.7318 37 44.4846ZM92.1875 35.9377C92.1788 38.8822 91.1309 41.7292 89.2286 43.9767C87.3262 46.2242 84.6915 47.728 81.7888 48.223C78.8862 48.718 75.9019 48.1724 73.3622 46.6824C70.8225 45.1923 68.8903 42.8536 67.9062 40.0783C71.4443 35.9017 73.4021 30.6145 73.4375 25.1408C75.3356 24.0449 77.4886 23.4674 79.6804 23.4661C81.8722 23.4649 84.0258 24.04 85.9252 25.1337C87.8246 26.2274 89.403 27.8014 90.5022 29.6977C91.6013 31.5939 92.1825 33.7459 92.1875 35.9377ZM50 7.8127C53.3994 7.8127 56.7224 8.82073 59.5489 10.7093C62.3753 12.5979 64.5783 15.2822 65.8792 18.4228C67.1801 21.5634 67.5204 25.0193 66.8572 28.3533C66.1941 31.6874 64.5571 34.7499 62.1534 37.1536C59.7497 39.5573 56.6872 41.1943 53.3531 41.8574C50.0191 42.5206 46.5632 42.1803 43.4226 40.8794C40.282 39.5785 37.5977 37.3755 35.7091 34.5491C33.8205 31.7226 32.8125 28.3996 32.8125 25.0002C32.8125 20.4418 34.6233 16.0701 37.8466 12.8468C41.0699 9.62352 45.4416 7.8127 50 7.8127ZM20.3125 48.4377C18.3907 48.4452 16.4931 48.0095 14.7671 47.1644C13.041 46.3194 11.5331 45.0877 10.3605 43.5652C9.1878 42.0426 8.382 40.2702 8.00566 38.3856C7.62933 36.501 7.6926 34.555 8.19057 32.6989C8.68853 30.8427 9.60777 29.1264 10.8769 27.6832C12.1459 26.2401 13.7307 25.109 15.508 24.3778C17.2852 23.6466 19.2072 23.3351 21.1244 23.4675C23.0416 23.5998 24.9025 24.1724 26.5625 25.1408C26.5979 30.6145 28.5557 35.9017 32.0937 40.0783C31.2367 42.5197 29.6431 44.6349 27.5329 46.1322C25.4227 47.6294 22.8999 48.435 20.3125 48.4377Z" fill="#C61F2A"/>
<path d="M87.5 54.6876H71.875C71.3519 54.6933 70.8298 54.735 70.3125 54.8126C69.222 52.8725 67.6333 51.2587 65.7105 50.138C63.7877 49.0173 61.6006 48.4303 59.375 48.4376H40.625C38.3994 48.4303 36.2123 49.0173 34.2895 50.138C32.3667 51.2587 30.778 52.8725 29.6875 54.8126C29.1702 54.735 28.6481 54.6933 28.125 54.6876H12.5C9.18479 54.6876 6.00537 56.0045 3.66117 58.3487C1.31696 60.6929 0 63.8724 0 67.1876L0 85.9376C0 87.5952 0.65848 89.1849 1.83058 90.357C3.00269 91.5291 4.5924 92.1876 6.25 92.1876H93.75C95.4076 92.1876 96.9973 91.5291 98.1694 90.357C99.3415 89.1849 100 87.5952 100 85.9376V67.1876C100 63.8724 98.683 60.6929 96.3388 58.3487C93.9946 56.0045 90.8152 54.6876 87.5 54.6876ZM34.375 60.9376C34.375 59.28 35.0335 57.6903 36.2056 56.5182C37.3777 55.346 38.9674 54.6876 40.625 54.6876H59.375C61.0326 54.6876 62.6223 55.346 63.7944 56.5182C64.9665 57.6903 65.625 59.28 65.625 60.9376V85.9376H34.375V60.9376ZM6.25 85.9376V67.1876C6.25 65.53 6.90848 63.9403 8.08058 62.7682C9.25268 61.596 10.8424 60.9376 12.5 60.9376H28.125V85.9376H6.25ZM93.75 85.9376H71.875V60.9376H87.5C89.1576 60.9376 90.7473 61.596 91.9194 62.7682C93.0915 63.9403 93.75 65.53 93.75 67.1876V85.9376Z" fill="#C61F2A"/>
<path d="M50 67.1875C51.7259 67.1875 53.125 65.7884 53.125 64.0625C53.125 62.3366 51.7259 60.9375 50 60.9375C48.2741 60.9375 46.875 62.3366 46.875 64.0625C46.875 65.7884 48.2741 67.1875 50 67.1875Z" fill="white"/>
</svg>
