<svg width="874" height="693" viewBox="0 0 874 693" fill="none" xmlns="http://www.w3.org/2000/svg">
<g clip-path="url(#clip0_186_217)">
<path d="M161.559 564.028C162.182 425.134 274.956 312.73 414 312.73C553.044 312.73 665.817 425.134 666.44 564.028H866.132C865.508 314.853 663.325 113.044 414 113.044C164.674 113.044 -37.5086 314.847 -38.1317 564.028H161.559Z" fill="url(#paint0_linear_186_217)"/>
<path d="M640.781 454.185C657.049 487.361 666.256 524.627 666.435 564.028H866.126C865.906 476.222 840.657 394.3 797.137 325.017L640.781 454.185Z" fill="#C61F2A"/>
<path d="M675.14 564.795C673.83 417.283 557.428 298.112 414 298.112C270.571 298.112 154.17 417.283 152.86 564.795H675.14Z" fill="url(#paint1_linear_186_217)"/>
<path d="M667.444 564.028C666.169 424.315 553.2 311.449 414 311.449C274.8 311.449 161.825 424.315 160.556 564.028H667.444Z" fill="url(#paint2_linear_186_217)"/>
<g opacity="0.7">
<path d="M831.796 557.538H816.289C816.532 554.498 816.734 550.806 816.901 547.749L832.396 548.458C832.229 551.637 832.05 554.388 831.796 557.538Z" fill="url(#paint3_linear_186_217)"/>
<path d="M817.12 515.34C816.878 509.121 816.457 502.845 815.886 496.684L831.34 495.443C831.94 501.841 832.367 508.36 832.627 514.815L817.12 515.34ZM13.8044 515.04L-1.69623 514.503C-1.43663 508.06 -0.998209 501.541 -0.398259 495.132L15.0562 496.384C14.4713 502.59 14.0539 508.811 13.8044 515.04ZM811.369 464.575C810.215 458.466 808.882 452.299 807.4 446.253L822.526 443.063C824.066 449.345 825.456 455.749 826.65 462.094L811.369 464.575ZM19.602 461.246L4.32058 461.783C5.52625 455.437 6.91652 449.034 8.46254 442.757L23.5882 445.959C22.0999 451.999 20.7557 455.137 19.602 461.246ZM798.17 415.021C796.103 409.07 793.88 403.174 791.501 397.34L806.01 392.252C808.473 398.292 810.803 404.47 812.938 410.62L798.17 415.021ZM32.8413 414.733L18.079 410.32C20.2135 404.188 22.5441 398.021 25.0073 391.998L39.51 397.098C37.139 402.895 34.895 408.831 32.8413 414.733ZM777.714 367.573C774.806 361.983 771.703 356.382 768.49 350.925L782.104 344.031C785.444 349.696 788.663 355.517 791.686 361.32L777.714 367.573ZM53.3088 367.366L39.3369 361.112C42.354 355.326 45.5671 349.523 48.9015 343.875L62.5157 350.775C59.3083 356.209 56.2105 361.793 53.3088 367.366ZM750.422 323.194C746.691 317.992 742.827 312.887 738.832 307.884L751.305 299.329C755.441 304.509 759.49 309.857 763.338 315.233L750.422 323.194ZM80.5892 323.056L67.673 315.089C71.5208 309.73 75.5646 304.394 79.6951 299.214L92.1671 307.769C88.1867 312.753 84.2928 317.899 80.5892 323.056ZM716.859 282.692C712.401 278.01 707.825 273.442 703.135 268.991L714.24 258.948C719.092 263.557 723.886 268.345 728.489 273.173L716.859 282.692ZM114.146 282.594L102.522 273.07C107.153 268.212 111.904 263.47 116.771 258.85L127.87 268.899C123.191 273.341 118.576 277.944 114.146 282.594ZM677.678 246.804C672.577 242.733 667.378 238.786 662.085 234.967L671.615 223.62C677.101 227.577 682.547 231.713 687.808 235.913L677.678 246.804ZM153.339 246.724L143.215 235.826C148.482 231.621 153.939 227.485 159.425 223.528L168.949 234.88C163.671 238.688 158.415 242.674 153.339 246.724ZM633.605 216.201C627.96 212.814 622.233 209.563 616.431 206.452L624.196 194.003C630.222 197.235 636.17 200.613 642.033 204.133L633.605 216.201ZM197.447 216.12L189.019 204.041C194.898 200.518 200.86 197.136 206.902 193.899L214.661 206.354C208.844 209.469 203.105 212.726 197.447 216.12ZM585.459 191.471C579.401 188.846 573.2 186.331 567.022 184L572.877 170.68C579.292 173.103 585.736 175.716 592.029 178.439L585.459 191.471ZM245.656 191.384L239.097 178.352C245.408 175.624 251.881 173.005 258.324 170.576L264.168 183.896C257.938 186.242 251.766 188.739 245.656 191.384ZM534.146 173.109C527.718 171.27 521.247 169.583 514.74 168.049L518.559 154.112C525.296 155.699 532.08 157.47 538.72 159.368L534.146 173.109ZM297.09 173.016L292.527 159.269C299.173 157.372 305.957 155.612 312.695 154.031L316.502 167.974C309.993 169.502 303.521 171.184 297.09 173.016ZM480.537 161.456C473.9 160.453 467.241 159.606 460.565 158.918L462.284 144.623C469.195 145.338 476.176 146.226 483.029 147.259L480.537 161.456ZM350.705 161.41L348.225 147.213C355.078 146.186 362.058 145.303 368.969 144.594L370.677 158.889C364.001 159.572 357.342 160.413 350.705 161.41ZM425.711 156.72C419.013 156.564 412.206 156.564 405.543 156.714L405.168 142.338C412.085 142.182 419.151 142.182 426.103 142.344L425.711 156.72Z" fill="url(#paint4_linear_186_217)"/>
<path d="M-1.16551 557.538C-1.41933 554.371 -1.31549 551.619 -1.48279 548.458L14.0121 547.749C14.1736 550.794 14.064 554.486 14.3063 557.538H-1.16551Z" fill="url(#paint5_linear_186_217)"/>
</g>
<path d="M725.311 233.052C726.276 233.052 727.058 232.269 727.058 231.304C727.058 230.338 726.276 229.556 725.311 229.556C724.345 229.556 723.563 230.338 723.563 231.304C723.563 232.269 724.345 233.052 725.311 233.052Z" fill="white"/>
<path d="M776.993 203.487C777.958 203.487 778.741 202.704 778.741 201.739C778.741 200.774 777.958 199.991 776.993 199.991C776.027 199.991 775.245 200.774 775.245 201.739C775.245 202.704 776.027 203.487 776.993 203.487Z" fill="white"/>
<path d="M370.63 417.49L761.284 220.833L415.506 508.821" fill="url(#paint6_linear_186_217)"/>
<path d="M582.869 337.206L761.284 220.833L546.116 329.574L582.869 337.206Z" fill="url(#paint7_linear_186_217)"/>
<path d="M214.891 626.226C196.743 639.714 153.789 652.094 153.789 652.094C153.789 652.094 157.227 650.126 162.88 647.334C168.534 644.542 173.212 638.618 173.212 638.618C173.212 638.618 161.669 645.656 145.638 651.067C129.606 656.478 108.17 660.424 108.17 660.424C108.17 660.424 112.525 658.306 120.169 653.311C127.812 648.315 140.965 639.61 140.965 639.61C140.965 639.61 108.158 657.58 58.0103 661.029C38.385 662.379 6.28772 669.406 6.28772 669.406C6.28772 669.406 21.7941 656.034 29.1781 648.321C40.8945 636.079 54.526 616.402 65.2097 603.971C81.1142 585.459 113.771 552.894 113.771 552.894L107.2 555.836C100.63 558.778 92.6863 561.945 92.6863 561.945C92.6863 561.945 125.522 530.638 149.97 521.201C177.504 510.563 214.268 515.415 214.268 515.415C214.268 515.415 217.499 531.134 229.521 551.475C241.947 572.508 252.175 581.063 252.175 581.063C252.175 581.063 242.697 605.563 214.891 626.226Z" fill="url(#paint8_linear_186_217)"/>
<path d="M219.264 608.049C205.627 618.185 173.345 627.49 173.345 627.49C173.345 627.49 175.929 626.013 180.181 623.913C184.427 621.814 187.946 617.36 187.946 617.36C187.946 617.36 179.269 622.65 167.224 626.717C155.173 630.784 139.061 633.749 139.061 633.749C139.061 633.749 142.332 632.157 148.078 628.407C153.824 624.652 163.705 618.11 163.705 618.11C163.705 618.11 139.05 631.615 101.363 634.205C86.6118 635.22 62.4927 640.499 62.4927 640.499C62.4927 640.499 74.1455 630.449 79.6951 624.652C88.4982 615.451 98.7435 600.665 106.774 591.32C118.726 577.406 143.272 552.935 143.272 552.935L138.334 555.144C133.396 557.354 127.431 559.736 127.431 559.736C127.431 559.736 152.11 536.211 170.478 529.115C191.17 521.12 218.797 524.772 218.797 524.772C218.797 524.772 221.226 536.586 230.259 551.873C239.599 567.68 247.283 574.112 247.283 574.112C247.283 574.112 240.159 592.514 219.264 608.049Z" fill="url(#paint9_linear_186_217)"/>
<path d="M239.928 480.046C242.01 476.926 299.911 414.86 370.302 378.453C440.692 342.046 472.593 338.926 472.593 338.926C472.593 338.926 490.274 351.409 507.961 384.003C525.643 416.596 530.846 429.772 529.461 433.937C528.077 438.096 459.417 512.3 384.175 543.162C308.934 574.025 300.263 575.756 300.263 575.756C300.263 575.756 290.901 574.717 280.153 558.421C269.406 542.124 244.439 501.552 241.664 492.542C238.889 483.513 239.928 480.046 239.928 480.046Z" fill="url(#paint10_linear_186_217)"/>
<path d="M586.324 335.107C582.165 329.211 576.615 328.173 542.983 328.519C509.352 328.865 474.329 339.964 474.329 339.964L474.728 340.61C479.937 344.971 493.943 358.164 507.961 383.997C521.27 408.526 527.506 422.059 529.19 429.028L530.5 431.156L536.395 425.607C542.291 420.057 566.56 384.343 575.577 367.7C584.593 351.057 590.483 341.002 586.324 335.107Z" fill="url(#paint11_linear_186_217)"/>
<path d="M303.038 574.706L264.549 655.843C264.549 655.843 302.346 640.239 346.379 611.113C390.417 581.986 393.884 577.481 393.884 577.481L405.676 533.096C405.67 533.096 334.933 565.689 303.038 574.706Z" fill="url(#paint12_linear_186_217)"/>
<path d="M326.269 405.491L285.697 397.167C285.697 397.167 249.983 412.079 220.164 431.497C190.345 450.914 161.219 472.76 161.219 472.76L242.703 476.92C242.703 476.925 300.263 417.975 326.269 405.491Z" fill="url(#paint13_linear_186_217)"/>
<path d="M280.148 558.409C269.4 542.112 244.433 501.541 241.658 492.53C240.903 490.078 240.441 488.053 240.153 486.38L219.12 501.893C219.12 501.893 217.735 517.151 236.455 545.579C255.18 574.014 264.889 583.722 269.395 583.376C273.9 583.03 293.318 572.975 293.318 572.975L292.92 572.323C289.401 569.849 284.913 565.632 280.148 558.409Z" fill="url(#paint14_linear_186_217)"/>
<path d="M220.51 510.904L214.268 515.409C214.268 515.409 213.576 525.118 227.79 548.695C242.005 572.272 250.675 580.942 254.488 581.288C258.301 581.634 261.076 578.167 261.076 578.167C261.076 578.167 227.79 541.068 220.51 510.904Z" fill="url(#paint15_linear_186_217)"/>
<path d="M351.576 459.585L320.367 470.332C320.367 470.332 271.985 497.174 256.219 506.738C236.444 518.737 178.548 557.019 178.548 557.019L180.977 562.222L324.527 476.579L356.082 464.442L351.576 459.585Z" fill="url(#paint16_linear_186_217)"/>
<path d="M180.983 562.222L260.038 525.816C260.038 525.816 290.399 508.452 300.257 502.239C314.512 493.245 356.082 464.442 356.082 464.442L323.142 476.925L180.983 562.222Z" fill="url(#paint17_linear_186_217)"/>
</g>
<defs>
<linearGradient id="paint0_linear_186_217" x1="829.593" y1="313.496" x2="-133.859" y2="432.004" gradientUnits="userSpaceOnUse">
<stop stop-color="#BB000C"/>
<stop offset="1"/>
</linearGradient>
<linearGradient id="paint1_linear_186_217" x1="428.07" y1="249.353" x2="409.715" y2="658.169" gradientUnits="userSpaceOnUse">
<stop stop-color="#FF1D2C"/>
<stop offset="0.136" stop-color="#FB1C2B"/>
<stop offset="0.274" stop-color="#EF1B29"/>
<stop offset="0.414" stop-color="#DA1825"/>
<stop offset="0.555" stop-color="#BD141F"/>
<stop offset="0.696" stop-color="#980F18"/>
<stop offset="0.839" stop-color="#6B080F"/>
<stop offset="0.979" stop-color="#370105"/>
<stop offset="1" stop-color="#2E0003"/>
</linearGradient>
<linearGradient id="paint2_linear_186_217" x1="413.999" y1="565.905" x2="413.999" y2="303.776" gradientUnits="userSpaceOnUse">
<stop stop-color="#4F0005"/>
<stop offset="1" stop-color="#810008"/>
</linearGradient>
<linearGradient id="paint3_linear_186_217" x1="824.343" y1="427.002" x2="824.343" y2="2.0638" gradientUnits="userSpaceOnUse">
<stop stop-color="#FF0011"/>
<stop offset="0.61" stop-color="white"/>
</linearGradient>
<linearGradient id="paint4_linear_186_217" x1="415.463" y1="421.382" x2="415.463" y2="-23.3323" gradientUnits="userSpaceOnUse">
<stop stop-color="#FF0011"/>
<stop offset="0.61" stop-color="white"/>
</linearGradient>
<linearGradient id="paint5_linear_186_217" x1="6.41232" y1="427.002" x2="6.41232" y2="2.06614" gradientUnits="userSpaceOnUse">
<stop stop-color="#FF0011"/>
<stop offset="0.61" stop-color="white"/>
</linearGradient>
<linearGradient id="paint6_linear_186_217" x1="824.894" y1="202.098" x2="367.148" y2="478.826" gradientUnits="userSpaceOnUse">
<stop stop-color="#FF1D2C"/>
<stop offset="0.136" stop-color="#FB1C2B"/>
<stop offset="0.274" stop-color="#EF1B29"/>
<stop offset="0.414" stop-color="#DA1825"/>
<stop offset="0.555" stop-color="#BD141F"/>
<stop offset="0.696" stop-color="#980F18"/>
<stop offset="0.839" stop-color="#6B080F"/>
<stop offset="0.979" stop-color="#370105"/>
<stop offset="1" stop-color="#2E0003"/>
</linearGradient>
<linearGradient id="paint7_linear_186_217" x1="776.528" y1="205.496" x2="514.366" y2="363.626" gradientUnits="userSpaceOnUse">
<stop stop-color="#FF1D2C"/>
<stop offset="0.136" stop-color="#FB1C2B"/>
<stop offset="0.274" stop-color="#EF1B29"/>
<stop offset="0.414" stop-color="#DA1825"/>
<stop offset="0.555" stop-color="#BD141F"/>
<stop offset="0.696" stop-color="#980F18"/>
<stop offset="0.839" stop-color="#6B080F"/>
<stop offset="0.979" stop-color="#370105"/>
<stop offset="1" stop-color="#2E0003"/>
</linearGradient>
<linearGradient id="paint8_linear_186_217" x1="6.28772" y1="591.855" x2="252.174" y2="591.855" gradientUnits="userSpaceOnUse">
<stop stop-color="#DA888D"/>
<stop offset="0.042" stop-color="#D48E93"/>
<stop offset="0.496" stop-color="#CB9599"/>
<stop offset="0.828" stop-color="#F16D76"/>
<stop offset="1" stop-color="#FF5E69"/>
</linearGradient>
<linearGradient id="paint9_linear_186_217" x1="62.4921" y1="582.213" x2="247.283" y2="582.213" gradientUnits="userSpaceOnUse">
<stop stop-color="#DA888D"/>
<stop offset="0.042" stop-color="#D48E93"/>
<stop offset="0.496" stop-color="#D99599"/>
<stop offset="0.828" stop-color="#F16D76"/>
<stop offset="1" stop-color="#FF5E69"/>
</linearGradient>
<linearGradient id="paint10_linear_186_217" x1="434.702" y1="522.303" x2="213.493" y2="234.149" gradientUnits="userSpaceOnUse">
<stop stop-color="#FFA1A7"/>
<stop offset="0.488" stop-color="white"/>
</linearGradient>
<linearGradient id="paint11_linear_186_217" x1="570.011" y1="402.27" x2="527.35" y2="332.665" gradientUnits="userSpaceOnUse">
<stop stop-color="#BA000C"/>
<stop offset="0.745" stop-color="#FF0011"/>
</linearGradient>
<linearGradient id="paint12_linear_186_217" x1="264.547" y1="594.469" x2="405.671" y2="594.469" gradientUnits="userSpaceOnUse">
<stop stop-color="#BA000C"/>
<stop offset="0.745" stop-color="#FF0011"/>
</linearGradient>
<linearGradient id="paint13_linear_186_217" x1="296.636" y1="459.939" x2="212.031" y2="426.651" gradientUnits="userSpaceOnUse">
<stop stop-color="#BA000C"/>
<stop offset="0.745" stop-color="#FF0011"/>
</linearGradient>
<linearGradient id="paint14_linear_186_217" x1="283.193" y1="584.105" x2="224.944" y2="495.691" gradientUnits="userSpaceOnUse">
<stop stop-color="#360004"/>
<stop offset="0.438" stop-color="#8B0009"/>
<stop offset="1" stop-color="#B1242D"/>
</linearGradient>
<linearGradient id="paint15_linear_186_217" x1="214.776" y1="511.585" x2="256.383" y2="584.397" gradientUnits="userSpaceOnUse">
<stop stop-color="#FF3340"/>
<stop offset="0.159" stop-color="#FF3744"/>
<stop offset="0.353" stop-color="#FF434F"/>
<stop offset="0.568" stop-color="#FF4955"/>
<stop offset="0.794" stop-color="#FF2634"/>
<stop offset="1" stop-color="#FF0011"/>
</linearGradient>
<linearGradient id="paint16_linear_186_217" x1="366.96" y1="454.127" x2="185.969" y2="550.863" gradientUnits="userSpaceOnUse">
<stop stop-color="#FF3340"/>
<stop offset="0.132" stop-color="#FF424E"/>
<stop offset="0.534" stop-color="#FF2E3C"/>
<stop offset="0.835" stop-color="#FF0D1D"/>
<stop offset="1" stop-color="#FF0011"/>
</linearGradient>
<linearGradient id="paint17_linear_186_217" x1="180.982" y1="513.331" x2="356.087" y2="513.331" gradientUnits="userSpaceOnUse">
<stop stop-color="#BA000C"/>
<stop offset="0.745" stop-color="#FF0011"/>
</linearGradient>
<clipPath id="clip0_186_217">
<rect width="923" height="692.25" fill="white" transform="translate(-49)"/>
</clipPath>
</defs>
</svg>
