<svg width="200" height="200" viewBox="0 0 200 200" fill="none" xmlns="http://www.w3.org/2000/svg">
<g clip-path="url(#clip0_186_198)">
<path opacity="0.3" d="M182.906 181.25H174.437L172.312 170.969C170.959 164.224 167.383 158.129 162.156 153.656C160.028 151.862 157.648 150.388 155.094 149.281C157.393 147.534 159.257 145.28 160.542 142.695C161.826 140.109 162.496 137.262 162.5 134.375V128.125C162.5 123.152 160.525 118.383 157.008 114.867C153.492 111.35 148.723 109.375 143.75 109.375C138.777 109.375 134.008 111.35 130.492 114.867C126.975 118.383 125 123.152 125 128.125V134.375C125.004 137.262 125.674 140.109 126.958 142.695C128.243 145.28 130.107 147.534 132.406 149.281C131.238 149.788 130.109 150.384 129.031 151.062C124.699 145.863 119.041 141.932 112.656 139.687C115.502 137.669 117.824 134.999 119.427 131.9C121.031 128.801 121.87 125.364 121.875 121.875V115.625C121.875 109.823 119.57 104.259 115.468 100.157C111.366 96.0546 105.802 93.7499 100 93.7499C94.1984 93.7499 88.6344 96.0546 84.532 100.157C80.4297 104.259 78.125 109.823 78.125 115.625V121.875C78.1423 125.383 79.0032 128.835 80.6348 131.941C82.2664 135.047 84.621 137.714 87.5 139.719C81.1075 141.95 75.4382 145.869 71.0938 151.062C70.0158 150.384 68.8875 149.788 67.7188 149.281C69.9946 147.522 71.835 145.262 73.0976 142.677C74.3602 140.092 75.0112 137.252 75 134.375V128.125C75.0125 123.472 73.2948 118.981 70.1807 115.525C67.0666 112.068 62.7786 109.892 58.15 109.421C53.5213 108.95 48.8828 110.216 45.1357 112.974C41.3886 115.732 38.8008 119.784 37.875 124.344L17.9062 104.375C6.91119 93.4228 0.493604 78.6986 -0.044743 63.1889C-0.58309 47.6792 4.79811 32.5455 15.0073 20.8573C25.2165 9.16923 39.4893 1.80197 54.9305 0.249953C70.3717 -1.30206 85.8252 3.07737 98.1562 12.4999H34.375C28.5734 12.4999 23.0094 14.8046 18.907 18.907C14.8047 23.0093 12.5 28.5733 12.5 34.3749V53.1249C12.5 58.9265 14.8047 64.4905 18.907 68.5929C23.0094 72.6953 28.5734 74.9999 34.375 74.9999H44.9375L53.4688 92.0312C53.731 92.5431 54.1294 92.9726 54.6201 93.2726C55.1109 93.5726 55.6749 93.7313 56.25 93.7313C56.8251 93.7313 57.3891 93.5726 57.8799 93.2726C58.3706 92.9726 58.769 92.5431 59.0312 92.0312L67.5625 74.9999H91.8125L97.2188 85.7812C97.481 86.2931 97.8794 86.7226 98.3701 87.0226C98.8609 87.3226 99.4249 87.4813 100 87.4813C100.575 87.4813 101.139 87.3226 101.63 87.0226C102.121 86.7226 102.519 86.2931 102.781 85.7812L108.187 74.9999H132.438L140.969 92.0312C141.231 92.5431 141.629 92.9726 142.12 93.2726C142.611 93.5726 143.175 93.7313 143.75 93.7313C144.325 93.7313 144.889 93.5726 145.38 93.2726C145.871 92.9726 146.269 92.5431 146.531 92.0312L155.062 74.9999H161.469L182.094 95.6249C193.418 106.946 199.847 122.259 199.999 138.271C200.151 154.283 194.013 169.716 182.906 181.25ZM175.875 187.5C165.236 195.602 152.232 199.99 138.859 199.99C125.486 199.99 112.483 195.602 101.844 187.5H175.875Z" fill="#CB232E"/>
<path d="M100 93.75C94.1984 93.75 88.6344 96.0547 84.532 100.157C80.4297 104.259 78.125 109.823 78.125 115.625V121.875C78.1424 125.383 79.0032 128.835 80.6348 131.941C82.2664 135.047 84.621 137.714 87.5 139.719C91.1957 142.335 95.6124 143.741 100.141 143.741C104.669 143.741 109.086 142.335 112.781 139.719C115.608 137.683 117.908 135.002 119.49 131.899C121.072 128.795 121.889 125.358 121.875 121.875V115.625C121.875 109.823 119.57 104.259 115.468 100.157C111.366 96.0547 105.802 93.75 100 93.75ZM115.625 121.875C115.625 126.019 113.979 129.993 111.049 132.924C108.118 135.854 104.144 137.5 100 137.5C95.856 137.5 91.8817 135.854 88.9515 132.924C86.0212 129.993 84.375 126.019 84.375 121.875V115.625C84.375 111.481 86.0212 107.507 88.9515 104.576C91.8817 101.646 95.856 100 100 100C104.144 100 108.118 101.646 111.049 104.576C113.979 107.507 115.625 111.481 115.625 115.625V121.875Z" fill="#C61F2A"/>
<path d="M140.031 181.25L137.094 167.469C136.912 166.592 136.683 165.726 136.406 164.875C136.094 163.75 135.719 162.625 135.312 161.531C134.906 160.437 134.531 159.688 134.094 158.812C133.664 157.901 133.184 157.014 132.656 156.156C132.131 155.231 131.557 154.334 130.938 153.469C130.346 152.633 129.71 151.829 129.031 151.062C125.475 146.821 121.033 143.409 116.018 141.066C111.003 138.723 105.535 137.506 100 137.5C95.736 137.507 91.5059 138.258 87.5 139.719C81.1075 141.95 75.4382 145.87 71.0937 151.062C70.4375 151.844 69.8125 152.625 69.2187 153.469C68.625 154.313 68.625 154.281 68.375 154.719C68.125 155.156 67.75 155.656 67.4687 156.156C67.0312 156.844 66.6562 157.594 66.2812 158.312C65.9062 159.031 66 158.875 65.875 159.156C65.75 159.438 65.25 160.5 64.9688 161.188C64.4972 162.373 64.0904 163.583 63.75 164.813C63.4733 165.664 63.2438 166.53 63.0625 167.406L59.9687 181.25L59.4375 183.719C59.3395 184.175 59.3449 184.647 59.4534 185.101C59.5619 185.555 59.7707 185.979 60.0644 186.342C60.3581 186.705 60.7294 186.997 61.1508 187.197C61.5723 187.398 62.0333 187.501 62.5 187.5H137.5C137.972 187.511 138.44 187.414 138.869 187.218C139.299 187.021 139.678 186.73 139.979 186.367C140.279 186.003 140.494 185.575 140.606 185.117C140.718 184.658 140.724 184.18 140.625 183.719L140.031 181.25ZM66.375 181.25L69.0312 168.75C69.4787 166.603 70.149 164.508 71.0312 162.5C71.5382 161.417 72.1231 160.373 72.7812 159.375C72.9245 159.081 73.0917 158.798 73.2812 158.531L74.1875 157.219C76.6908 153.692 79.8908 150.716 83.5898 148.475C87.2887 146.234 91.408 144.776 95.693 144.19C99.978 143.604 104.338 143.904 108.502 145.07C112.667 146.236 116.548 148.243 119.906 150.969C122.156 152.777 124.153 154.879 125.844 157.219C128.307 160.68 130.05 164.602 130.969 168.75L133.625 181.25H66.375Z" fill="#C61F2A"/>
<path opacity="0.5" d="M56.25 109.375C51.2772 109.375 46.508 111.35 42.9917 114.867C39.4754 118.383 37.5 123.152 37.5 128.125V134.375C37.5024 137.27 38.1751 140.125 39.4655 142.717C40.7558 145.308 42.6287 147.566 44.9375 149.312C40.5386 151.278 36.6759 154.271 33.6741 158.039C30.6723 161.808 28.6193 166.242 27.6875 170.969L25.5625 181.25L25 183.75C24.9061 184.209 24.9168 184.684 25.0312 185.138C25.1457 185.593 25.3609 186.016 25.661 186.376C25.9611 186.736 26.3384 187.024 26.765 187.219C27.1915 187.413 27.6563 187.509 28.125 187.5H62.5C63.2267 187.516 63.9363 187.279 64.5067 186.828C65.0771 186.377 65.4725 185.742 65.625 185.031L66.375 181.25L69.0312 168.75C69.4787 166.603 70.149 164.508 71.0312 162.5C71.5382 161.417 72.1231 160.373 72.7812 159.375C72.9245 159.081 73.0917 158.798 73.2812 158.531C73.5625 158.094 73.8437 157.656 74.1562 157.219C74.6245 156.562 74.8209 155.75 74.7045 154.952C74.588 154.155 74.1676 153.433 73.5312 152.937C72.7095 152.308 71.8541 151.724 70.9687 151.188C69.8908 150.509 68.7625 149.913 67.5937 149.406C69.9094 147.647 71.784 145.373 73.0694 142.764C74.3549 140.155 75.0158 137.283 75 134.375V128.125C75 123.152 73.0246 118.383 69.5082 114.867C65.9919 111.35 61.2228 109.375 56.25 109.375ZM67.3125 156.25C66.875 156.937 66.5 157.687 66.125 158.406C65.75 159.125 65.8437 158.969 65.7187 159.25C65.5937 159.531 65.0937 160.594 64.8125 161.281C64.3409 162.467 63.9341 163.677 63.5937 164.906C63.3171 165.758 63.0875 166.623 62.9062 167.5L59.9687 181.25H31.8437L33.6875 172.219C34.673 166.924 37.4567 162.132 41.5678 158.653C45.6789 155.174 50.8652 153.221 56.25 153.125C60.1608 153.156 63.9917 154.235 67.3437 156.25H67.3125ZM68.75 134.375C68.7513 137.058 67.889 139.671 66.2907 141.826C64.6925 143.982 62.443 145.566 59.875 146.344C58.6986 146.695 57.4776 146.874 56.25 146.875C52.9348 146.875 49.7554 145.558 47.4112 143.214C45.0669 140.87 43.75 137.69 43.75 134.375V128.125C43.75 124.81 45.0669 121.63 47.4112 119.286C49.7554 116.942 52.9348 115.625 56.25 115.625C59.5652 115.625 62.7446 116.942 65.0888 119.286C67.433 121.63 68.75 124.81 68.75 128.125V134.375ZM174.437 181.25L172.312 170.969C170.959 164.224 167.383 158.129 162.156 153.656C160.028 151.862 157.648 150.388 155.094 149.281C157.393 147.535 159.257 145.281 160.542 142.695C161.826 140.109 162.496 137.262 162.5 134.375V128.125C162.5 123.152 160.525 118.383 157.008 114.867C153.492 111.35 148.723 109.375 143.75 109.375C138.777 109.375 134.008 111.35 130.492 114.867C126.975 118.383 125 123.152 125 128.125V134.375C125.004 137.262 125.674 140.109 126.958 142.695C128.243 145.281 130.107 147.535 132.406 149.281C131.237 149.788 130.109 150.384 129.031 151.062C128.146 151.599 127.29 152.183 126.469 152.812C125.832 153.308 125.412 154.03 125.296 154.827C125.179 155.625 125.375 156.437 125.844 157.094C128.322 160.593 130.066 164.558 130.969 168.75L133.625 181.25L134.375 185.031C134.527 185.742 134.923 186.377 135.493 186.828C136.064 187.279 136.773 187.516 137.5 187.5H171.875C172.344 187.509 172.809 187.413 173.235 187.219C173.662 187.024 174.039 186.736 174.339 186.376C174.639 186.016 174.854 185.593 174.969 185.138C175.083 184.684 175.094 184.209 175 183.75L174.437 181.25ZM131.25 134.375V128.125C131.25 124.81 132.567 121.63 134.911 119.286C137.255 116.942 140.435 115.625 143.75 115.625C147.065 115.625 150.245 116.942 152.589 119.286C154.933 121.63 156.25 124.81 156.25 128.125V134.375C156.25 137.69 154.933 140.87 152.589 143.214C150.245 145.558 147.065 146.875 143.75 146.875C140.435 146.875 137.255 145.558 134.911 143.214C132.567 140.87 131.25 137.69 131.25 134.375ZM140.031 181.25L137.094 167.469C136.912 166.592 136.683 165.726 136.406 164.875C136.094 163.75 135.719 162.625 135.312 161.531C134.906 160.437 134.531 159.687 134.094 158.812C133.664 157.901 133.184 157.014 132.656 156.156C136.018 154.174 139.848 153.128 143.75 153.125C149.022 153.124 154.121 155.008 158.125 158.438C162.276 162.002 165.114 166.854 166.187 172.219L168.031 181.25H140.031Z" fill="#C61F2A"/>
<path d="M78.125 187.501H77.5C77.0857 187.427 76.6907 187.269 76.3387 187.039C75.9866 186.808 75.6848 186.509 75.4513 186.158C75.2179 185.808 75.0575 185.414 74.98 185.001C74.9024 184.587 74.9093 184.162 75 183.751L78.125 168.126C78.2908 167.297 78.779 166.568 79.4823 166.099C80.1855 165.63 81.0462 165.46 81.875 165.626C82.7038 165.792 83.4329 166.28 83.9017 166.983C84.3705 167.686 84.5408 168.547 84.375 169.376L81.25 185.001C81.1039 185.717 80.7112 186.36 80.1402 186.817C79.5692 187.274 78.8561 187.516 78.125 187.501ZM122.25 187.501C121.54 187.523 120.844 187.303 120.276 186.877C119.708 186.451 119.302 185.845 119.125 185.157L115.25 169.688C115.052 168.884 115.181 168.035 115.608 167.326C116.036 166.617 116.728 166.107 117.531 165.907C118.331 165.708 119.177 165.832 119.885 166.254C120.593 166.675 121.106 167.359 121.313 168.157L125.188 183.626C125.386 184.43 125.257 185.28 124.829 185.988C124.401 186.697 123.71 187.208 122.906 187.407C122.691 187.462 122.471 187.493 122.25 187.501Z" fill="#C61F2A"/>
<path opacity="0.5" d="M40.625 187.5C40.3759 187.53 40.1241 187.53 39.875 187.5C39.4585 187.413 39.0643 187.241 38.7164 186.996C38.3686 186.751 38.0744 186.437 37.8521 186.074C37.6297 185.712 37.4838 185.307 37.4232 184.886C37.3627 184.465 37.3888 184.036 37.5 183.625L40.625 171.125C40.8493 170.349 41.3653 169.69 42.065 169.286C42.7647 168.882 43.5935 168.765 44.3777 168.959C45.1619 169.153 45.8405 169.643 46.2712 170.327C46.7018 171.01 46.851 171.834 46.6875 172.625L43.5625 185.125C43.3991 185.787 43.0236 186.378 42.4932 186.806C41.9628 187.235 41.3067 187.479 40.625 187.5ZM159.375 187.5C158.661 187.521 157.962 187.296 157.393 186.864C156.825 186.432 156.421 185.818 156.25 185.125L153.125 172.625C153.027 172.214 153.01 171.789 153.076 171.372C153.142 170.955 153.289 170.555 153.51 170.196C153.73 169.836 154.02 169.523 154.361 169.275C154.703 169.027 155.09 168.848 155.5 168.75C155.91 168.651 156.336 168.635 156.753 168.701C157.17 168.767 157.57 168.914 157.929 169.135C158.289 169.355 158.602 169.645 158.85 169.986C159.098 170.328 159.277 170.714 159.375 171.125L162.5 183.625C162.611 184.036 162.637 184.465 162.577 184.886C162.516 185.307 162.37 185.712 162.148 186.074C161.926 186.437 161.631 186.751 161.284 186.996C160.936 187.241 160.541 187.413 160.125 187.5C159.876 187.53 159.624 187.53 159.375 187.5Z" fill="#C61F2A"/>
<path d="M187.5 184.375C187.5 185.204 187.171 185.999 186.585 186.585C185.999 187.171 185.204 187.5 184.375 187.5H15.625C14.7962 187.5 14.0013 187.171 13.4153 186.585C12.8292 185.999 12.5 185.204 12.5 184.375C12.5 183.546 12.8292 182.751 13.4153 182.165C14.0013 181.579 14.7962 181.25 15.625 181.25H184.375C185.204 181.25 185.999 181.579 186.585 182.165C187.171 182.751 187.5 183.546 187.5 184.375Z" fill="#C61F2A"/>
<path opacity="0.5" d="M165.625 12.5H34.375C28.5734 12.5 23.0094 14.8047 18.907 18.907C14.8047 23.0094 12.5 28.5734 12.5 34.375V53.125C12.5 58.9266 14.8047 64.4906 18.907 68.593C23.0094 72.6953 28.5734 75 34.375 75H44.9375L53.4688 92.0313C53.731 92.5431 54.1294 92.9727 54.6201 93.2727C55.1109 93.5727 55.6749 93.7314 56.25 93.7314C56.8251 93.7314 57.3891 93.5727 57.8799 93.2727C58.3706 92.9727 58.769 92.5431 59.0312 92.0313L67.5625 75H91.8125L97.2188 85.7813C97.481 86.2931 97.8794 86.7227 98.3701 87.0227C98.8609 87.3227 99.4249 87.4814 100 87.4814C100.575 87.4814 101.139 87.3227 101.63 87.0227C102.121 86.7227 102.519 86.2931 102.781 85.7813L108.188 75H132.438L140.969 92.0313C141.231 92.5431 141.629 92.9727 142.12 93.2727C142.611 93.5727 143.175 93.7314 143.75 93.7314C144.325 93.7314 144.889 93.5727 145.38 93.2727C145.871 92.9727 146.269 92.5431 146.531 92.0313L155.062 75H165.625C171.427 75 176.991 72.6953 181.093 68.593C185.195 64.4906 187.5 58.9266 187.5 53.125V34.375C187.5 28.5734 185.195 23.0094 181.093 18.907C176.991 14.8047 171.427 12.5 165.625 12.5ZM181.25 53.125C181.25 57.269 179.604 61.2433 176.674 64.1735C173.743 67.1038 169.769 68.75 165.625 68.75H153.125C152.548 68.7518 151.983 68.9133 151.492 69.2166C151.001 69.52 150.603 69.9534 150.344 70.4688L143.75 83.625L137.156 70.4688C136.897 69.9534 136.499 69.52 136.008 69.2166C135.517 68.9133 134.952 68.7518 134.375 68.75H106.25C105.673 68.7518 105.108 68.9133 104.617 69.2166C104.126 69.52 103.728 69.9534 103.469 70.4688L100 77.375L96.5312 70.4688C96.2716 69.9534 95.8742 69.52 95.3833 69.2166C94.8924 68.9133 94.3271 68.7518 93.75 68.75H65.625C65.0479 68.7518 64.4826 68.9133 63.9917 69.2166C63.5008 69.52 63.1034 69.9534 62.8438 70.4688L56.25 83.625L49.6562 70.4688C49.3966 69.9534 48.9992 69.52 48.5083 69.2166C48.0174 68.9133 47.4521 68.7518 46.875 68.75H34.375C30.231 68.75 26.2567 67.1038 23.3265 64.1735C20.3962 61.2433 18.75 57.269 18.75 53.125V34.375C18.75 30.231 20.3962 26.2567 23.3265 23.3265C26.2567 20.3962 30.231 18.75 34.375 18.75H165.625C169.769 18.75 173.743 20.3962 176.674 23.3265C179.604 26.2567 181.25 30.231 181.25 34.375V53.125Z" fill="#C61F2A"/>
<path d="M56.0312 30.4062L60.1562 37.875L68.5312 39.5L62.7187 45.75L63.75 54.1875L56.0312 50.5938L48.3125 54.1875L49.3437 45.75L43.5312 39.5L51.875 37.875L56.0312 30.4062Z" fill="#CB232E"/>
<path d="M111.125 45.1245C112.31 43.9393 112.976 42.3318 112.976 40.6557C112.976 38.9796 112.31 37.3722 111.125 36.187C109.94 35.0018 108.332 34.336 106.656 34.336C104.98 34.336 103.373 35.0018 102.188 36.187L100 38.4057L97.75 36.187C97.1826 35.5586 96.4935 35.052 95.7244 34.698C94.9553 34.344 94.1223 34.15 93.276 34.1277C92.4296 34.1053 91.5876 34.2552 90.8009 34.5682C90.0142 34.8811 89.2993 35.3506 88.6996 35.9483C88.0999 36.5459 87.6278 37.2591 87.3121 38.0447C86.9963 38.8302 86.8435 39.6717 86.8628 40.5182C86.8821 41.3646 87.0732 42.1983 87.4245 42.9686C87.7758 43.7389 88.2799 44.4299 88.9063 44.9995L100 56.2495L111.125 45.1245Z" fill="#CB232E"/>
<path d="M143.531 33.5312L147.656 41L156.031 42.625L150.219 48.875L151.25 57.3125L143.531 53.7188L135.781 57.3125L136.812 48.875L131.031 42.625L139.375 41L143.531 33.5312Z" fill="#CB232E"/>
</g>
<defs>
<clipPath id="clip0_186_198">
<rect width="200" height="200" fill="white"/>
</clipPath>
</defs>
</svg>
