<svg width="636" height="535" viewBox="0 0 636 535" fill="none" xmlns="http://www.w3.org/2000/svg">
<g clip-path="url(#clip0_281_563)">
<path d="M359.542 73.9113C367.316 77.2853 374.603 81.0239 381.207 85.0078C404.3 98.928 422.876 119.194 445.569 133.157C466.997 146.34 493.165 149.545 517.684 151.748C560.425 155.59 649.568 192.43 633.472 260.71C627.616 285.559 606.966 302.435 596.393 324.937C585.146 348.873 586.327 378.728 568.42 399.479C560.543 408.603 549.669 414.629 538.505 419.194C464.208 449.563 380.774 448.151 301.994 444.804C239.813 442.162 139.943 456.126 85.3256 422.026C58.2096 405.095 72.3102 358.815 53.5471 333.957C37.7805 313.069 16.322 299.35 5.78084 273.203C-12.1575 228.713 13.4119 170.815 58.1816 155.022C86.1579 145.153 115.796 140.631 143.451 129.793C172.022 118.591 183.031 101.813 204.82 81.9541C244.21 46.0596 311.252 52.9485 359.542 73.9113Z" fill="#FFCCCF"/>
<path d="M428.351 427.906H212.685V293.03C212.685 290.481 214.713 288.416 217.214 288.416H423.822C426.324 288.416 428.351 290.481 428.351 293.03V427.906Z" fill="#D3D3D3"/>
<path d="M220.579 298.188H420.461V417.127H220.579V298.188Z" fill="#F2F2F2"/>
<path d="M178.385 468.055C176.403 470.648 180.191 478.39 186.132 478.39H459.514C465.452 478.39 469.191 470.648 466.918 468.055H178.385Z" fill="#D3D3D3"/>
<path d="M466.155 466.638C468.428 469.227 465.451 471.327 459.515 471.327H186.133C180.192 471.327 176.984 469.227 178.967 466.638L206.956 430.043C208.938 427.452 214.125 425.353 218.545 425.353H421.935C426.35 425.353 431.779 427.452 434.052 430.043C444.75 442.246 455.455 454.437 466.155 466.638Z" fill="#F2F2F2"/>
<path opacity="0.5" d="M239.683 437.696H230.449C231.756 435.762 232.41 434.792 233.714 432.857H242.583L239.683 437.696ZM251.65 437.696H242.416C243.535 435.762 244.094 434.792 245.209 432.857H254.076L251.65 437.696ZM247.826 431.93H234.347L235.564 430.125H248.839L247.826 431.93ZM263.624 431.932L250.141 431.93L251.116 430.125H264.391C264.086 430.848 263.929 431.209 263.624 431.932ZM279.424 431.93H265.94L266.669 430.125H279.95L279.424 431.93ZM295.221 431.93H281.741L282.225 430.125H295.502C295.393 430.848 295.335 431.209 295.221 431.93ZM311.022 431.93H297.538L297.783 430.125H311.056L311.022 431.93ZM326.82 431.93H313.34V430.125H326.613C326.697 430.848 326.734 431.209 326.82 431.93ZM342.621 431.93H329.138L328.892 430.125H342.17C342.348 430.848 342.44 431.209 342.621 431.93ZM358.422 431.93H344.938L344.45 430.125H357.725C358.005 430.848 358.144 431.209 358.422 431.93ZM374.222 431.93H360.739C360.443 431.209 360.297 430.848 360.002 430.125H373.283L374.222 431.93ZM390.018 431.93H376.537C376.147 431.209 375.95 430.848 375.563 430.125H388.833C389.306 430.848 389.543 431.209 390.018 431.93ZM407.647 431.93H392.337L391.116 430.125H406.192C406.773 430.848 407.067 431.209 407.647 431.93ZM263.612 437.696H254.381C255.308 435.762 255.775 434.794 256.7 432.859L265.566 432.857C264.786 434.795 264.394 435.759 263.612 437.696ZM275.576 437.696H266.344C267.085 435.762 267.453 434.792 268.195 432.857L277.062 432.859L275.576 437.696ZM287.543 437.696H278.312C278.864 435.759 279.141 434.794 279.69 432.857H288.556C288.152 434.792 287.946 435.762 287.543 437.696ZM299.507 437.696H290.277C290.637 435.762 290.815 434.79 291.18 432.857H300.049C299.83 434.792 299.72 435.762 299.507 437.696ZM311.466 437.696H302.242L302.674 432.857H311.538C311.511 434.792 311.497 435.762 311.466 437.696ZM323.436 437.696H314.205L314.17 432.857H323.034C323.196 434.792 323.276 435.762 323.436 437.696ZM335.399 437.696H326.172L325.667 432.857H334.526C334.877 434.792 335.05 435.762 335.399 437.696ZM347.361 437.696H338.133C337.743 435.762 337.546 434.792 337.153 432.857H346.019C346.554 434.792 346.824 435.762 347.361 437.696ZM235.816 444.146H226.103L229.361 439.309H238.716L235.816 444.146ZM248.413 444.146H238.697C239.815 442.212 240.374 441.244 241.49 439.309H250.844C249.869 441.243 249.381 442.211 248.413 444.146ZM261.005 444.146H251.289C252.217 442.212 252.678 441.244 253.608 439.309H262.958C262.177 441.244 261.784 442.211 261.005 444.146ZM273.599 444.146H263.88C264.619 442.212 264.99 441.244 265.728 439.309H275.083C274.488 441.244 274.191 442.211 273.599 444.146ZM286.193 444.146H276.478C277.03 442.212 277.303 441.244 277.853 439.312C281.596 439.312 283.463 439.309 287.205 439.309C286.797 441.244 286.598 442.211 286.193 444.146ZM298.782 444.146H289.067L289.973 439.309H299.323C299.108 441.243 298.998 442.211 298.782 444.146ZM311.373 444.146H301.661L302.096 439.309H311.441L311.373 444.146ZM323.969 444.146H314.254L314.218 439.309H323.569C323.727 441.244 323.811 442.211 323.969 444.146ZM336.56 444.146H326.85C326.645 442.212 326.542 441.244 326.343 439.309H335.688L336.56 444.146ZM349.152 444.146H339.439C339.047 442.212 338.848 441.244 338.458 439.309H347.809L349.152 444.146ZM231.953 450.597H221.752C223.055 448.663 223.71 447.693 225.015 445.76L234.853 445.758C233.692 447.691 233.11 448.662 231.953 450.597ZM245.174 450.597H234.976L237.765 445.76H247.605C246.633 447.692 246.145 448.662 245.174 450.597ZM258.398 450.597H248.195L250.514 445.76H260.351L258.398 450.597ZM271.618 450.597H261.413L263.262 445.76H273.102L271.618 450.597ZM284.838 450.597H274.641C275.19 448.663 275.469 447.693 276.016 445.76H285.852C285.45 447.692 285.245 448.662 284.838 450.597ZM298.056 450.597H287.858C288.219 448.663 288.403 447.693 288.766 445.76H298.603L298.056 450.597ZM311.275 450.597H301.082L301.514 445.76H311.346C311.321 447.692 311.305 448.662 311.275 450.597ZM324.505 450.597H314.303C314.292 448.663 314.283 447.693 314.268 445.76H324.104C324.265 447.692 324.342 448.662 324.505 450.597ZM337.724 450.597H327.53C327.325 448.663 327.222 447.693 327.02 445.76H336.852C337.2 447.692 337.377 448.662 337.724 450.597ZM350.941 450.597H340.741C340.352 448.663 340.156 447.693 339.763 445.76H349.599L350.941 450.597ZM228.087 457.044H217.401C218.705 455.11 219.362 454.142 220.666 452.21H230.984C230.02 453.822 229.054 455.433 228.087 457.044ZM241.938 457.044H231.255L234.048 452.21H244.369C243.397 454.142 242.908 455.11 241.938 457.044ZM255.786 457.044H245.103C246.03 455.11 246.495 454.142 247.426 452.21H257.743C256.962 454.142 256.572 455.11 255.786 457.044ZM269.591 457.197H258.888C259.656 455.204 260.034 454.205 260.797 452.211H271.122C270.509 454.203 270.204 455.204 269.591 457.197ZM352.736 457.044H272.802C273.35 455.11 273.624 454.142 274.176 452.21H351.392L352.736 457.044ZM293.65 467.671H354.287L349.181 459.431H298.477L293.65 467.671ZM358.188 437.696H348.958C348.392 435.762 348.114 434.792 347.552 432.857H356.418C357.126 434.79 357.477 435.762 358.188 437.696ZM360.547 444.146H350.828C350.268 442.212 349.988 441.244 349.425 439.309H358.781C359.485 441.244 359.839 442.211 360.547 444.146ZM362.906 450.597H352.704C352.141 448.663 351.864 447.693 351.301 445.76H361.138C361.845 447.692 362.195 448.662 362.906 450.597ZM365.264 457.044H354.578L353.173 452.21H363.494L365.264 457.044ZM369.009 437.696H359.778C359.045 435.762 358.676 434.792 357.947 432.857H366.815C367.69 434.792 368.131 435.762 369.009 437.696ZM371.938 444.146H362.222C361.489 442.212 361.12 441.244 360.391 439.309H369.742C370.618 441.243 371.06 442.211 371.938 444.146ZM374.864 450.597H364.663L362.829 445.76H372.666C373.548 447.692 373.984 448.662 374.864 450.597ZM377.79 457.044H367.103C366.374 455.11 366.005 454.142 365.276 452.21H375.594C376.474 454.142 376.91 455.11 377.79 457.044ZM379.831 437.696H370.601L368.342 432.857H377.211C378.259 434.792 378.785 435.762 379.831 437.696ZM383.326 444.146H373.611L371.351 439.309H380.705C381.753 441.244 382.28 442.211 383.326 444.146ZM386.824 450.597H376.622C375.719 448.663 375.269 447.693 374.363 445.76H384.203L386.824 450.597ZM390.318 457.044H379.632C378.729 455.11 378.28 454.142 377.373 452.21H387.696L390.318 457.044ZM390.652 437.696H381.422L378.74 432.857H387.603C388.827 434.792 389.433 435.762 390.652 437.696ZM394.717 444.146H385.002L382.318 439.309H391.67C392.888 441.244 393.501 442.211 394.717 444.146ZM398.781 450.597H388.583C387.509 448.663 386.974 447.693 385.898 445.76H395.735C396.955 447.692 397.564 448.662 398.781 450.597ZM402.846 457.044H392.16C391.267 455.431 390.372 453.82 389.475 452.21H399.799C401.016 454.142 401.625 455.11 402.846 457.044ZM401.479 437.696H392.245C390.999 435.762 390.376 434.792 389.131 432.857H398.001C399.391 434.792 400.085 435.762 401.479 437.696ZM406.107 444.146H396.391C395.145 442.212 394.524 441.244 393.282 439.309H402.634C404.024 441.244 404.719 442.211 406.107 444.146ZM410.742 450.597H400.537C399.295 448.663 398.674 447.693 397.429 445.76H407.269C408.66 447.692 409.353 448.662 410.742 450.597ZM415.372 457.044H404.684L401.574 452.21H411.899L415.372 457.044ZM412.296 437.696H403.067C401.652 435.762 400.947 434.792 399.527 432.857H408.397C409.956 434.792 410.735 435.762 412.296 437.696ZM417.497 444.146H407.781C406.37 442.212 405.66 441.244 404.247 439.309H413.597L417.497 444.146ZM422.699 450.597H412.498C411.082 448.663 410.377 447.693 408.961 445.76H418.798C420.359 447.692 421.138 448.662 422.699 450.597ZM427.9 457.044H417.211L413.677 452.21H423.999C425.559 454.142 426.337 455.11 427.9 457.044Z" fill="#D3D3D3"/>
<path d="M371.7 417.095H276.534C277.214 414.333 277.836 412.127 278.383 410.591C278.666 409.803 279.056 409.057 279.542 408.375C281.228 405.986 284.115 403.954 287.835 402.236C292.275 400.182 297.894 398.569 304.055 397.289C310.601 395.947 317.741 394.98 324.694 394.28C325.164 394.238 325.629 394.188 326.099 394.148C333.832 393.426 341.261 393.029 347.255 392.837C355.531 392.551 361.109 392.611 361.109 392.611C361.109 392.611 361.557 393.324 362.341 394.747C364.177 398.123 367.848 405.52 371.7 417.095Z" fill="#700B12"/>
<path d="M298.799 261.811C298.619 263.031 298.301 264.16 297.851 265.248L298.12 262.173C298.348 262.036 298.575 261.947 298.799 261.811Z" fill="#FFCACD"/>
<path d="M349.21 257.245V257.286C349.117 257.245 349.027 257.198 348.984 257.198C349.075 257.199 349.117 257.245 349.21 257.245Z" fill="#EEA7AC"/>
<path d="M446.879 322.14C446.879 322.14 452.758 316.691 451.592 312.603C450.605 309.133 452.095 305.247 452.467 303.635C452.97 301.498 453.172 294.564 454.765 294.941C457.463 295.597 456.841 306.667 457.172 309.027C457.505 311.384 464.653 303.489 467.089 303.076C469.532 302.654 481.94 315.229 476.412 320.086C470.884 324.933 463.261 326.9 462.455 327.947C461.65 328.994 457.862 331.871 457.862 331.871L446.879 322.14Z" fill="#F19EA3"/>
<path d="M465.529 303.897C465.529 303.897 483.448 290.172 485.406 290.255C487.372 290.334 488.051 291.355 486.427 292.705C484.809 294.058 469.506 306.476 469.506 306.476C469.506 306.476 493.438 293.789 495.063 293.505C496.006 293.338 496.73 295.152 495.925 295.959C495.124 296.757 472.854 310.769 472.854 310.769C472.854 310.769 495.218 298.961 496.644 299.129C497.894 299.28 498.785 301.341 497.187 302.33C495.587 303.317 475.446 315.453 475.446 315.453C475.446 315.453 492.271 307.889 493.391 308.734C494.071 309.258 495.041 310.407 490.646 312.222C486.241 314.039 476.663 319.84 476.663 319.84L465.529 303.897Z" fill="#F19EA3"/>
<path d="M337.591 245.397V246.617C337.496 246.395 337.408 246.212 337.365 245.986C337.272 245.941 337.272 245.852 337.272 245.803C337.365 245.67 337.454 245.537 337.591 245.397Z" fill="#FF5560"/>
<path d="M324.118 252.815C323.938 252.857 323.708 252.857 323.53 252.857V252.768C323.708 252.815 323.938 252.815 324.118 252.815ZM337.591 245.397V245.761C337.514 245.834 337.439 245.909 337.365 245.986C336.868 246.528 336.323 247.024 335.781 247.523C335.554 247.705 335.375 247.883 335.151 248.065C335.419 247.796 335.736 247.478 336.011 247.207C336.418 246.8 336.822 246.303 337.272 245.803C337.365 245.67 337.454 245.537 337.591 245.397Z" fill="#EEA7AC"/>
<path d="M347.943 229.802C345.457 235.319 342.426 240.293 338.989 244.226C338.54 244.767 338.04 245.308 337.59 245.762V245.399C337.453 245.537 337.364 245.672 337.271 245.804C336.821 246.305 336.417 246.801 336.01 247.208C335.734 247.48 335.418 247.798 335.15 248.066C335.055 248.113 334.968 248.204 334.878 248.293C334.741 248.428 334.606 248.565 334.467 248.61C334.111 248.922 333.734 249.208 333.338 249.468C332.842 249.83 332.391 250.145 331.895 250.417C331.777 250.497 331.657 250.573 331.533 250.644C331.077 250.912 330.63 251.14 330.226 251.319C329.819 251.538 329.394 251.72 328.955 251.863L328.912 251.909C328.551 252 328.277 252.135 327.96 252.225C327.867 252.271 327.782 252.317 327.688 252.317C327.375 252.406 327.058 252.495 326.739 252.543C326.651 252.543 326.605 252.586 326.515 252.586H326.376C326.153 252.634 325.883 252.679 325.657 252.725C325.43 252.768 325.159 252.768 324.934 252.768C324.71 252.815 324.478 252.815 324.297 252.815H324.254C324.211 252.857 324.165 252.857 324.119 252.815C323.939 252.815 323.709 252.815 323.531 252.768V252.857C323.262 252.857 322.988 252.815 322.675 252.768C322.356 252.725 321.995 252.679 321.676 252.634C321.495 252.586 321.319 252.586 321.087 252.543C320.91 252.495 320.726 252.495 320.546 252.406C319.598 252.179 318.697 251.817 317.745 251.319C317.448 251.173 317.161 251.008 316.885 250.826C315.394 249.967 313.946 248.746 312.452 247.207C311.915 246.668 311.415 246.033 310.873 245.397C308.568 242.504 306.265 238.665 304.138 233.782C303.27 231.83 302.456 229.854 301.695 227.858C302.824 230.073 300.855 209.41 301.309 210.136C295.162 198.381 301.289 208.055 303.464 202.226C317.068 207.966 343.512 217.868 343.512 207.83C343.512 207.83 344.099 213.934 344.78 220.262C345.321 225.461 345.91 230.844 346.183 232.878C346.182 232.876 346.901 231.745 347.943 229.802Z" fill="#F4B1B5"/>
<path d="M324.118 252.815C323.938 252.857 323.708 252.857 323.53 252.857V252.768C323.708 252.815 323.938 252.815 324.118 252.815ZM337.591 245.397V245.761C337.514 245.834 337.439 245.909 337.365 245.986C336.868 246.528 336.323 247.024 335.781 247.523C335.554 247.705 335.375 247.883 335.151 248.065C335.419 247.796 335.736 247.478 336.011 247.207C336.418 246.8 336.822 246.303 337.272 245.803C337.365 245.67 337.454 245.537 337.591 245.397Z" fill="#EEA7AC"/>
<path d="M301.692 227.858C298.073 220.715 292.243 207.064 293.284 194.133V194.086C291.658 183.373 304.994 164.068 325.339 165.062C345.681 164.068 359.02 183.373 357.391 194.086V194.133C358.02 201.953 356.123 210 353.773 216.738C355.265 216.689 356.708 216.871 358.156 217.369C366.251 220.037 370.047 230.571 366.612 240.834C363.223 251.14 353.862 257.287 345.771 254.621C342.017 253.399 339.168 250.463 337.588 246.617V245.761C338.038 245.308 338.54 244.766 338.987 244.224C342.425 240.291 345.456 235.317 347.941 229.801C346.899 231.745 346.266 234.134 346.266 234.134C345.993 232.104 345.317 225.46 344.776 220.261C344.093 213.933 343.508 207.829 343.508 207.829C343.508 217.868 317.064 207.965 303.46 202.225L301.692 227.858Z" fill="#FF5560"/>
<path d="M337.591 245.397V246.617C337.591 247.477 337.548 248.517 337.591 249.692C336.278 251.319 334.968 252.678 333.612 253.716C333.156 254.078 332.706 254.396 332.256 254.711C331.915 254.968 331.551 255.194 331.17 255.388H331.127C329.048 256.562 326.966 257.151 324.933 257.196H323.891C323.756 257.196 323.623 257.196 323.53 257.151V252.765C323.708 252.812 323.938 252.812 324.118 252.812C324.164 252.854 324.21 252.854 324.253 252.812H324.296C324.526 252.854 324.708 252.854 324.933 252.854C325.205 252.854 325.52 252.812 325.79 252.765C326.106 252.722 326.47 252.676 326.788 252.632C326.966 252.584 327.145 252.584 327.375 252.54C327.557 252.492 327.736 252.492 327.918 252.403C328.867 252.177 329.769 251.815 330.715 251.317C330.991 251.184 331.31 251.004 331.576 250.823C332.569 250.281 333.519 249.554 334.469 248.606C334.607 248.561 334.742 248.424 334.879 248.29C334.968 248.201 335.056 248.109 335.151 248.062C335.419 247.794 335.736 247.475 336.011 247.204C336.418 246.798 336.822 246.301 337.272 245.8C337.365 245.67 337.454 245.537 337.591 245.397Z" fill="#C61F2A"/>
<path d="M323.532 284.141V406.522L344.646 405.62L362.008 404.851L360.241 383.468L358.298 359.549C355.284 360.828 352.284 362.14 349.299 363.486C350.113 354.037 350.474 345.357 349.933 338.257C347.808 311.854 344.509 290.336 341.931 276.276V276.23C342.2 273.518 341.838 270.489 341.208 267.687C341.115 267.109 340.994 266.535 340.847 265.969C340.665 265.335 340.533 264.749 340.351 264.16L339.941 262.806C339.852 262.489 339.714 262.173 339.628 261.9C339.297 260.793 338.903 259.707 338.449 258.645H338.361C338.723 260.274 339.989 265.699 341.568 274.241V274.288C340.534 278.809 337.23 281.34 333.16 282.744C333.116 282.744 333.029 282.786 332.978 282.786C330.18 283.738 327.014 284.098 323.987 284.142C323.851 284.141 323.669 284.188 323.532 284.141Z" fill="#8C0E16"/>
<path d="M371.768 322.212C372.854 323.881 374.388 326.956 375.927 330.438C375.703 334.281 375.431 336.584 375.431 336.584C375.431 336.584 373.759 340.969 371.543 347.844C370.952 349.558 365.261 379.94 364.628 381.932C364.491 382.292 364.398 382.699 364.266 383.061C362.187 384.098 362.651 382.289 359.032 383.74C357.952 384.19 356.772 384.642 355.551 385.182C355.371 385.278 355.147 385.365 354.825 385.5C354.465 385.636 354.104 385.772 353.741 385.952C351.337 386.987 348.942 388.042 346.556 389.118C347.367 379.668 350.476 345.357 349.932 338.259C347.808 311.855 344.51 290.337 341.932 276.277V276.232C341.794 275.554 341.708 274.923 341.571 274.289V274.241C339.989 265.699 338.723 260.276 338.36 258.645H350.07V258.738C353.323 258.51 368.681 256.349 379.171 266.34C373.383 263.853 365.712 266.103 363.139 267.688C362.097 268.284 361.138 269.014 360.285 269.857C358.974 271.081 357.902 272.537 357.123 274.153C349.619 289.66 368.602 317.416 371.768 322.212Z" fill="#F42A37"/>
<path d="M372.622 417.095H343.526C343.83 413.387 344.216 409.543 344.644 405.623C345.08 401.415 345.6 397.138 346.095 392.837C346.261 391.353 346.432 389.878 346.595 388.397C346.595 388.397 346.605 388.397 346.616 388.387C350.15 387.095 354.796 381.089 359.89 379.077C360.011 379.035 360.122 378.986 360.244 378.944C361.697 378.447 363.14 382.47 364.625 381.932C365.579 392.034 368.985 405.216 372.622 417.095Z" fill="#F42A37"/>
<path d="M323.532 257.153V284.142C323.669 284.189 323.851 284.142 323.988 284.142C327.015 284.098 330.181 283.738 332.979 282.786C333.031 282.786 333.118 282.744 333.161 282.744C337.23 281.34 340.534 278.809 341.57 274.289V274.242C339.99 265.699 338.726 260.276 338.362 258.645H337.728V257.787C337.728 257.246 337.681 256.748 337.681 256.25C337.638 254.622 337.638 253.086 337.593 251.592V249.695C336.283 251.322 334.971 252.68 333.616 253.718C333.197 254.092 332.744 254.425 332.263 254.713C331.92 254.969 331.556 255.196 331.176 255.391H331.133C328.914 256.658 326.745 257.199 324.576 257.199C324.212 257.199 323.851 257.199 323.532 257.153Z" fill="#F4B1B5"/>
<path d="M453.233 316.44L454.279 318.302L454.311 318.338L462.48 332.778L463.742 335C463.742 335 461.266 335.998 457.371 337.646C453.826 339.144 449.119 341.113 444.018 343.321C442.603 343.953 441.182 344.572 439.756 345.177C429.835 349.577 419.391 354.276 414.162 357.282C402.754 363.797 393.261 366.073 387.478 365.954C381.725 365.802 369.108 331.747 367.137 323.577C365.139 315.443 357.757 300.454 352.468 286.182C350.23 280.118 350.877 274.766 352.793 270.518C355.342 264.759 360.149 261.037 363.116 260.442C364.285 260.174 365.485 260.056 366.684 260.093C368.533 260.1 370.278 260.455 371.917 261.089C387.972 267.345 392.944 300.606 393.884 306.272C394.23 308.238 395.194 311.534 396.437 315.133C399.191 323.552 403.2 333.712 403.2 333.712C411.262 330.237 414.59 329.245 417.662 328.364C419.892 327.712 421.995 327.181 425.632 325.783C426.729 325.377 427.902 324.903 429.162 324.472C432.241 323.357 435.332 322.278 438.435 321.235C446.109 318.671 453.233 316.44 453.233 316.44Z" fill="#F42A37"/>
<path d="M324.933 252.768V257.153C324.798 257.199 324.709 257.199 324.572 257.199H323.528C321.493 257.153 319.411 256.565 317.332 255.391H317.289C316.909 255.195 316.545 254.969 316.202 254.713C315.741 254.395 315.29 254.063 314.849 253.718C313.493 252.68 312.18 251.32 310.87 249.695C310.913 247.932 310.87 246.439 310.87 245.4C311.413 246.035 311.912 246.669 312.45 247.209C313.943 248.748 315.392 249.971 316.882 250.829C317.154 251.009 317.471 251.191 317.743 251.322C318.694 251.82 319.597 252.182 320.543 252.408C320.724 252.497 320.906 252.497 321.085 252.545C321.317 252.589 321.493 252.589 321.673 252.637C321.992 252.681 322.353 252.727 322.672 252.77C322.985 252.817 323.259 252.859 323.528 252.859C323.706 252.859 323.936 252.859 324.117 252.817C324.163 252.859 324.208 252.859 324.251 252.817H324.295C324.476 252.815 324.708 252.815 324.933 252.768Z" fill="#C61F2A"/>
<path d="M324.933 284.141V406.522L303.819 405.62L286.458 404.851L288.222 383.468L290.165 359.549C292.969 360.728 296.134 362.128 299.165 363.486C298.348 354.037 297.992 345.357 298.532 338.257C300.656 311.854 303.953 290.336 306.531 276.276V276.23C306.264 273.518 306.626 270.489 307.256 267.687C307.344 267.095 307.482 266.513 307.62 265.969C307.801 265.335 307.931 264.749 308.113 264.16L308.523 262.806C308.612 262.489 308.749 262.173 308.838 261.9C309.171 260.794 309.564 259.708 310.015 258.645H310.103C309.742 260.274 308.474 265.699 306.894 274.241V274.288C307.931 278.809 311.235 281.34 315.307 282.744C315.35 282.744 315.439 282.786 315.487 282.786C318.285 283.738 321.453 284.098 324.478 284.142C324.613 284.141 324.798 284.188 324.933 284.141Z" fill="#8C0E16"/>
<path d="M310.102 258.644C309.741 260.273 308.472 265.698 306.893 274.24V274.287C306.758 274.92 306.667 275.553 306.531 276.23V276.276C303.953 290.336 300.656 311.854 298.532 338.257C297.991 345.356 298.348 354.037 299.165 363.486C296.18 362.14 293.18 360.828 290.165 359.549C288.947 359.007 287.768 358.557 286.687 358.107C283.066 356.658 281.167 355.617 279.089 354.577C278.957 354.216 278.863 353.812 278.727 353.449C278.094 351.459 277.508 349.56 276.921 347.845C274.704 340.972 273.033 336.585 273.033 336.585C273.033 336.585 272.763 334.282 272.537 330.439C274.074 326.956 275.611 323.882 276.698 322.214C279.859 317.418 298.845 289.661 291.34 274.154C290.561 272.538 289.489 271.082 288.178 269.859C287.325 269.016 286.366 268.287 285.326 267.689C282.756 266.106 272.616 267.898 266.83 270.385C277.319 260.39 295.142 258.512 298.396 258.739V258.646H310.102V258.644ZM304.936 417.095H275.839C276.713 414.241 277.576 411.313 278.38 408.375C280.971 399.066 283.115 389.613 283.837 381.932C285.32 382.47 286.775 382.969 288.228 383.465C293.471 385.314 298.259 387.085 301.867 388.397C302.192 391.362 302.547 394.339 302.894 397.289C303.209 400.091 303.532 402.877 303.817 405.621C304.246 409.543 304.631 413.387 304.936 417.095Z" fill="#F42A37"/>
<path d="M324.933 257.153V284.142C324.798 284.189 324.614 284.142 324.477 284.142C321.452 284.098 318.284 283.738 315.486 282.786C315.439 282.786 315.35 282.744 315.306 282.744C311.234 281.34 307.93 278.809 306.893 274.289V274.242C308.473 265.699 309.742 260.276 310.102 258.645H310.736V257.787C310.736 257.246 310.783 256.748 310.783 256.25C310.826 254.622 310.826 253.086 310.871 251.592V249.695C312.181 251.322 313.494 252.68 314.849 253.718C315.306 254.126 315.756 254.441 316.203 254.713C316.568 254.984 316.928 255.206 317.289 255.391H317.333C319.549 256.658 321.726 257.199 323.89 257.199C324.253 257.199 324.613 257.199 324.933 257.153Z" fill="#F4B1B5"/>
<path d="M337.408 376.822C337.092 378.81 335.782 380.302 335.782 380.302C335.782 380.302 336.549 382.923 334.788 384.641C334.788 384.641 335.375 387.126 333.07 388.754C333.07 388.754 333.613 391.197 331.802 392.238C331.802 392.238 327.867 392.736 326.426 392.465C320.581 391.135 314.749 389.748 308.93 388.305L312.772 372.163V372.12C314.445 370.99 316.025 369.947 316.524 369.632C317.746 368.906 321.906 369.135 326.195 370.489C330.359 371.802 335.016 373.655 336.324 374.378C337.004 374.74 337.678 374.879 337.408 376.822Z" fill="#EE868D"/>
<path d="M313.27 370.038L312.77 372.12V372.163L308.929 388.304L308.341 390.793C308.341 390.793 305.852 389.843 301.869 388.395C298.255 387.083 293.467 385.322 288.222 383.469C286.775 382.97 285.325 382.472 283.839 381.933C273.575 378.403 262.723 374.741 256.845 373.385C244.051 370.4 235.548 365.61 231.39 361.588C227.279 357.564 241.202 324.019 245.319 316.695C249.388 309.37 254.176 293.367 260.011 279.308C262.497 273.338 266.608 269.859 270.905 268.051C276.695 265.563 282.753 266.105 285.324 267.688C286.364 268.285 287.323 269.014 288.175 269.857C289.487 271.081 290.559 272.537 291.337 274.152C298.842 289.66 279.857 317.416 276.695 322.212C275.609 323.881 274.071 326.956 272.535 330.438C268.828 338.482 264.849 348.655 264.849 348.655C273.12 351.597 276.239 353.13 279.087 354.575C281.164 355.616 283.063 356.657 286.685 358.106C287.765 358.555 288.944 359.005 290.163 359.548C292.966 360.727 296.132 362.126 299.163 363.485C303.882 365.632 308.585 367.816 313.27 370.038Z" fill="#F42A37"/>
<path d="M355.867 216.979L355.478 199.264C355.42 196.308 355.478 193.38 355.056 190.639C354.639 187.859 353.884 185.137 352.715 182.617C350.417 177.565 346.562 173.302 341.72 170.598C336.884 167.851 331.258 166.604 325.647 166.626C320.038 166.604 314.401 167.851 309.583 170.598C304.731 173.302 300.877 177.565 298.572 182.617C297.41 185.135 296.657 187.859 296.239 190.639C295.818 193.409 295.86 196.27 295.821 199.264L295.424 216.979H293.204L292.824 199.264C292.789 196.359 292.655 193.3 293.047 190.211C293.433 187.151 294.184 184.098 295.426 181.228C297.83 175.437 302.322 170.528 307.757 167.423C313.2 164.27 319.484 162.85 325.649 162.818C331.817 162.85 338.095 164.27 343.536 167.423C348.975 170.528 353.461 175.437 355.861 181.228C357.102 184.098 357.862 187.151 358.256 190.211C358.642 193.324 358.514 196.33 358.479 199.264L358.094 216.979H355.867Z" fill="#8C0E16"/>
<path d="M294.978 226.597C290.992 226.597 289.986 223.739 289.986 220.209V208.756C289.986 205.229 290.992 202.365 294.978 202.365H295.931V226.597H294.978Z" fill="#700B12"/>
<path d="M295.931 202.366H297.991V226.599H295.931V202.366Z" fill="#F42A37"/>
<path d="M356.923 226.597C360.913 226.597 361.926 223.739 361.926 220.209V208.756C361.926 205.229 360.913 202.365 356.923 202.365H355.97V226.597H356.923Z" fill="#700B12"/>
<path d="M353.908 202.366H355.969V226.599H353.908V202.366Z" fill="#F42A37"/>
<path d="M327.125 248.68V246.457C336.32 246.457 353.833 233.39 353.833 226.597H356.051C356.051 235.195 336.679 248.68 327.125 248.68Z" fill="#FFCCCF"/>
<path d="M328.602 250.672H325.641C323.184 250.672 321.197 249.287 321.197 247.568C321.197 245.855 323.184 244.471 325.641 244.471H328.602C331.056 244.471 333.044 245.856 333.044 247.568C333.043 249.287 331.056 250.672 328.602 250.672Z" fill="#700B12"/>
<path d="M247.832 128.916V146.469L247.726 170.298L247.585 199.078L247.496 220.311L226.344 198.997L219.89 198.974L134.299 198.574C119.838 195.753 108.926 183.027 108.926 167.769V128.916C108.926 112.798 121.113 99.487 136.767 97.7346L222.56 98.1298C236.963 100.973 247.832 113.674 247.832 128.916Z" fill="#F42A37"/>
<path opacity="0.8" d="M221.149 129.759C221.15 130.364 221.031 130.963 220.8 131.523C220.569 132.082 220.23 132.59 219.802 133.019C219.375 133.447 218.867 133.787 218.308 134.019C217.749 134.251 217.149 134.371 216.544 134.371H137.648C137.042 134.371 136.442 134.252 135.883 134.02C135.323 133.788 134.815 133.449 134.387 133.02C133.958 132.592 133.619 132.083 133.387 131.524C133.156 130.964 133.037 130.364 133.037 129.759C133.037 129.153 133.156 128.554 133.388 127.994C133.62 127.435 133.959 126.927 134.388 126.499C134.816 126.071 135.324 125.731 135.883 125.5C136.443 125.268 137.042 125.149 137.648 125.149H216.544C219.086 125.149 221.149 127.212 221.149 129.759ZM221.149 146.924C221.149 148.146 220.664 149.318 219.8 150.183C218.937 151.048 217.766 151.535 216.544 151.539H137.648C136.425 151.536 135.253 151.049 134.389 150.184C133.524 149.319 133.038 148.147 133.037 146.924C133.037 146.319 133.156 145.719 133.388 145.159C133.619 144.6 133.959 144.091 134.387 143.663C134.815 143.235 135.323 142.895 135.883 142.663C136.442 142.431 137.042 142.312 137.648 142.311H216.544C217.149 142.312 217.749 142.432 218.308 142.664C218.867 142.896 219.375 143.236 219.802 143.664C220.23 144.092 220.569 144.601 220.8 145.16C221.031 145.72 221.15 146.319 221.149 146.924ZM197.046 164.089C197.046 166.618 194.975 168.689 192.428 168.689H137.642C136.423 168.688 135.254 168.202 134.393 167.34C133.531 166.477 133.047 165.308 133.047 164.089C133.047 162.814 133.549 161.668 134.388 160.83C134.813 160.4 135.32 160.057 135.879 159.823C136.437 159.59 137.037 159.469 137.642 159.468H192.428C193.653 159.47 194.827 159.957 195.693 160.823C196.559 161.689 197.046 162.864 197.046 164.089Z" fill="#FFCCCF"/>
</g>
<defs>
<clipPath id="clip0_281_563">
<rect width="635.392" height="535" fill="white"/>
</clipPath>
</defs>
</svg>
