<svg width="170" height="50" viewBox="0 0 170 50" fill="none" xmlns="http://www.w3.org/2000/svg">
<g clip-path="url(#clip0_176_1768)">
<path d="M163.247 50H6.41232C3.15357 50 0.501068 47.34 0.501068 44.0837V5.9075C0.501068 2.65 3.15357 0 6.41232 0H163.247C166.505 0 169.251 2.65 169.251 5.9075V44.0837C169.251 47.34 166.505 50 163.247 50Z" fill="#A6A6A6"/>
<path d="M168.041 44.0848C168.041 46.7298 165.899 48.8723 163.249 48.8723H6.41232C3.76357 48.8723 1.61357 46.7298 1.61357 44.0848V5.90605C1.61357 3.2623 3.76357 1.1123 6.41232 1.1123H163.247C165.899 1.1123 168.04 3.2623 168.04 5.90605L168.041 44.0848Z" fill="black"/>
<path d="M62.59 25H64.93L67.89 35.65L70.65 25H73.12L69.17 39H66.8L63.76 28.23L60.71 39H58.35L54.4 25H56.87L59.62 35.65L62.59 25ZM75.6233 34.52C75.8433 36.16 77.2033 37.36 79.0333 37.36C80.4833 37.36 81.5133 36.84 82.5233 35.84L83.7433 37.03C82.6133 38.33 81.1933 39.24 79.0633 39.24C75.6133 39.24 73.3033 36.84 73.3033 33.82C73.3033 30.81 75.6833 28.4 78.8633 28.4C81.9933 28.4 84.2133 30.75 84.2133 33.62C84.2133 33.91 84.1733 34.27 84.1133 34.52H75.6233ZM78.8533 30.28C77.3333 30.28 76.0633 31.33 75.6933 32.78H81.8433C81.5533 31.33 80.3933 30.28 78.8533 30.28ZM97.278 33.82C97.278 36.84 95.148 39.24 92.228 39.24C90.708 39.24 89.438 38.61 88.578 37.6V39H86.308V24.4H88.578V30.05C89.438 29.03 90.708 28.4 92.228 28.4C95.148 28.4 97.278 30.81 97.278 33.82ZM94.978 33.82C94.978 31.94 93.618 30.43 91.778 30.43C89.928 30.43 88.578 31.94 88.578 33.82C88.578 35.71 89.958 37.21 91.778 37.21C93.588 37.21 94.978 35.71 94.978 33.82ZM109.687 25H112.307L117.447 39H114.917L113.747 35.62H108.237L107.067 39H104.537L109.687 25ZM108.887 33.65H113.107L110.997 27.56L108.887 33.65ZM130.208 33.82C130.208 36.84 128.078 39.24 125.158 39.24C123.638 39.24 122.368 38.61 121.508 37.6V43.64H119.238V28.64H121.508V30.05C122.368 29.03 123.638 28.4 125.158 28.4C128.078 28.4 130.208 30.81 130.208 33.82ZM127.908 33.82C127.908 31.94 126.548 30.43 124.708 30.43C122.858 30.43 121.508 31.94 121.508 33.82C121.508 35.71 122.888 37.21 124.708 37.21C126.518 37.21 127.908 35.71 127.908 33.82ZM143.274 33.82C143.274 36.84 141.144 39.24 138.224 39.24C136.704 39.24 135.434 38.61 134.574 37.6V43.64H132.304V28.64H134.574V30.05C135.434 29.03 136.704 28.4 138.224 28.4C141.144 28.4 143.274 30.81 143.274 33.82ZM140.974 33.82C140.974 31.94 139.614 30.43 137.774 30.43C135.924 30.43 134.574 31.94 134.574 33.82C134.574 35.71 135.954 37.21 137.774 37.21C139.584 37.21 140.974 35.71 140.974 33.82Z" fill="white"/>
<path d="M61.6115 8.9V14.8215C61.6115 16.8365 60.1685 18.143 58.3095 18.143C56.4505 18.143 55.0075 16.8365 55.0075 14.8215V8.9H56.2295V14.958C56.2295 16.2255 57.133 17.064 58.3095 17.064C59.486 17.064 60.3895 16.2255 60.3895 14.958V8.9H61.6115ZM63.2051 16.908L63.7641 16.2385C64.1996 16.765 64.8691 17.1355 65.6361 17.1355C66.4876 17.1355 67.0141 16.739 67.0141 16.141C67.0141 15.5755 66.5721 15.205 65.5191 15.0035C64.0371 14.7175 63.3286 14.022 63.3286 12.9755C63.3286 11.916 64.1736 11.11 65.5841 11.11C66.8841 11.11 67.8006 11.773 67.9631 13.0665H66.7736C66.7476 12.527 66.3446 12.1305 65.6686 12.1305C64.9731 12.1305 64.5116 12.488 64.5116 12.995C64.5116 13.476 64.9666 13.8725 65.9026 14.061C67.4496 14.3665 68.1971 15.0425 68.1971 16.1605C68.1971 17.298 67.2806 18.156 65.7141 18.156C64.6091 18.156 63.8031 17.675 63.2051 16.908ZM70.3658 15.0035C70.4958 16.206 71.4838 17.1355 72.7838 17.1355C73.7393 17.1355 74.4218 16.765 75.1043 16.063L75.7868 16.7065C75.0588 17.571 74.1813 18.156 72.8163 18.156C70.6258 18.156 69.1568 16.583 69.1568 14.633C69.1568 12.683 70.6713 11.11 72.7188 11.11C74.7273 11.11 76.1508 12.631 76.1508 14.4835C76.1508 14.6525 76.1248 14.8605 76.0923 15.0035H70.3658ZM72.7188 12.1305C71.5943 12.1305 70.6453 12.9495 70.4113 14.022H74.9093C74.7273 12.9365 73.8563 12.1305 72.7188 12.1305ZM81.5871 18V8.9H86.8326V9.9595H82.8091V12.891H86.5011V13.9505H82.8091V18H81.5871ZM87.6539 14.633C87.6539 12.683 89.0579 11.1035 90.9754 11.1035C92.0024 11.1035 92.8799 11.565 93.4714 12.2865V11.266H94.6544V18H93.4714V16.9795C92.8799 17.701 92.0024 18.156 90.9754 18.156C89.0579 18.156 87.6539 16.583 87.6539 14.633ZM88.8564 14.633C88.8564 15.9915 89.8509 17.09 91.1769 17.09C92.5029 17.09 93.4714 15.9915 93.4714 14.633C93.4714 13.2745 92.5354 12.1695 91.1769 12.1695C89.8184 12.1695 88.8564 13.2745 88.8564 14.633ZM96.0835 14.633C96.0835 12.683 97.4875 11.1035 99.405 11.1035C100.432 11.1035 101.31 11.565 101.901 12.2865V11.266H103.084V17.7855C103.084 19.716 101.888 21.016 99.678 21.016C98.404 21.016 97.4745 20.418 96.7595 19.534L97.4095 18.897C97.9685 19.5275 98.742 19.9955 99.6715 19.9955C101.011 19.9955 101.901 19.1895 101.901 17.8635V16.9795C101.31 17.701 100.432 18.156 99.405 18.156C97.4875 18.156 96.0835 16.583 96.0835 14.633ZM97.286 14.633C97.286 15.9915 98.2805 17.09 99.6065 17.09C100.933 17.09 101.901 15.9915 101.901 14.633C101.901 13.2745 100.965 12.1695 99.6065 12.1695C98.248 12.1695 97.286 13.2745 97.286 14.633ZM108.153 17.0965C109.531 17.0965 110.591 15.9915 110.591 14.633C110.591 13.2745 109.531 12.1695 108.153 12.1695C106.775 12.1695 105.716 13.2745 105.716 14.633C105.716 15.9915 106.775 17.0965 108.153 17.0965ZM108.153 11.11C110.253 11.11 111.793 12.6895 111.793 14.633C111.793 16.5765 110.253 18.156 108.153 18.156C106.054 18.156 104.513 16.5765 104.513 14.633C104.513 12.6895 106.054 11.11 108.153 11.11ZM116.269 14.568H114.585V18H113.363V8.9H116.269C118.199 8.9 119.395 10.018 119.395 11.734C119.395 13.45 118.199 14.568 116.269 14.568ZM118.154 11.734C118.154 10.655 117.445 9.9595 116.223 9.9595H114.585V13.5085H116.223C117.445 13.5085 118.154 12.813 118.154 11.734ZM120.205 14.633C120.205 12.683 121.609 11.1035 123.526 11.1035C124.553 11.1035 125.431 11.565 126.022 12.2865V11.266H127.205V18H126.022V16.9795C125.431 17.701 124.553 18.156 123.526 18.156C121.609 18.156 120.205 16.583 120.205 14.633ZM121.407 14.633C121.407 15.9915 122.402 17.09 123.728 17.09C125.054 17.09 126.022 15.9915 126.022 14.633C126.022 13.2745 125.086 12.1695 123.728 12.1695C122.369 12.1695 121.407 13.2745 121.407 14.633ZM129.765 21.016L130.961 17.974L128.329 11.266H129.564L131.566 16.4725L133.568 11.266H134.803L131 21.016H129.765Z" fill="white"/>
<path d="M40.0558 8.98486C40.0929 9.54236 40.0188 10.1017 39.8379 10.6304C39.6569 11.159 39.3727 11.6464 39.0016 12.0643C38.6306 12.4822 38.1803 12.8222 37.6767 13.0647C37.1731 13.3072 36.6263 13.4471 36.0681 13.4766C36.0681 13.4766 30.1815 14.004 26.5103 14.7632C22.8391 15.5224 21.2777 16.8721 19.5476 21.0899C19.2348 19.1574 19.594 17.1758 20.5653 15.4758C21.5366 13.7758 23.0614 12.4603 24.8856 11.7476C26.7479 11.2637 28.6357 10.8834 30.5401 10.6088C33.7446 10.2798 36.9236 9.73729 40.0558 8.98486Z" fill="white"/>
<path d="M37.2286 15.375C34.6275 16.0281 31.9935 16.542 29.3376 16.9145C27.7602 17.1362 26.1964 17.4458 24.6536 17.8423C23.3791 18.29 22.2689 19.1108 21.4674 20.1978C20.6659 21.2848 20.2102 22.5879 20.1596 23.9373C20.1596 23.9373 20.1596 24.0846 20.1596 24.169C20.1596 24.5907 20.1596 24.9281 20.1596 25.1812C20.1596 28.3445 20.3073 35.7257 20.1596 36.274C20.1596 36.274 20.1596 37.7082 17.9231 38.9946C17.9231 38.9946 23.1134 38.8681 23.1134 35.3462C23.1134 35.3462 23.2822 27.1639 23.4088 24.4645C23.4371 23.8665 23.6347 23.2886 23.9785 22.7984C24.524 22.0291 25.2244 21.382 26.0346 20.899C26.8448 20.416 27.7471 20.1076 28.6835 19.9934L29.7595 19.8456L33.9793 19.3184C34.9274 19.2119 35.7969 18.7411 36.4034 18.0049C37.0099 17.2688 37.3058 16.3255 37.2286 15.375Z" fill="white"/>
<path d="M27.6707 22.3975C30.0075 22.2419 32.3285 21.903 34.6123 21.3848C34.6351 21.9323 34.5465 22.4788 34.3519 22.9912C34.1572 23.5035 33.8605 23.971 33.4798 24.3653C33.0991 24.7597 32.6423 25.0727 32.137 25.2854C31.6317 25.4981 31.0884 25.6059 30.5401 25.6026H29.211H29.0633C28.9548 25.6156 28.8501 25.6501 28.7551 25.704C28.6601 25.7579 28.5769 25.8303 28.5101 25.9166C28.4433 26.003 28.3944 26.1016 28.3662 26.207C28.338 26.3125 28.3311 26.4227 28.3459 26.5309C28.3459 27.3955 28.1982 33.3427 28.1771 34.5026C28.1666 34.6007 28.1666 34.6995 28.1771 34.7976C28.1771 35.2827 28.1771 37.8767 23.1555 38.0665C23.7456 37.7509 24.2407 37.2834 24.5894 36.7124C24.9381 36.1414 25.1278 35.4876 25.1388 34.8187V25.6026C25.1103 24.8721 25.3276 24.1532 25.7559 23.5606C26.1843 22.968 26.7991 22.5364 27.502 22.3342H27.6918L27.6707 22.3975Z" fill="white"/>
</g>
<defs>
<clipPath id="clip0_176_1768">
<rect width="168.75" height="50" fill="white" transform="translate(0.501068)"/>
</clipPath>
</defs>
</svg>
