<svg width="921" height="621" viewBox="0 0 921 621" fill="none" xmlns="http://www.w3.org/2000/svg">
<g style="mix-blend-mode:overlay" opacity="0.4">
<path d="M919.193 1.87533C920.586 26.2664 917.236 50.7053 909.32 73.8309C901.211 97.5177 888.475 119.354 871.851 138.081C855.227 156.806 835.047 172.04 812.481 182.906C789.916 193.771 765.418 200.04 740.406 201.362L740.378 201.363L740.351 201.365L740.485 202.859C740.351 201.365 740.35 201.366 740.348 201.366L740.338 201.367L740.302 201.37L740.157 201.383L739.581 201.435C739.333 201.457 739.026 201.485 738.661 201.519C738.278 201.554 737.831 201.595 737.321 201.642C735.332 201.825 732.394 202.097 728.596 202.457C721 203.175 709.964 204.24 696.204 205.625C668.683 208.394 630.261 212.445 586.656 217.566C499.459 227.809 391.49 242.342 308.522 259.5C225.493 276.67 166.12 300.558 117.719 344.145C70.1912 386.947 33.3846 448.62 -4.96929 541.164C-17.5567 455.906 -1.17757 368.821 41.6331 293.895C85.3163 217.442 153.882 158.272 235.914 126.205C319.929 104.376 405.091 87.2216 491.009 74.8291C635.197 60.027 778.242 35.654 919.193 1.87533Z" stroke="white" stroke-width="3"/>
<path d="M155.41 1190.56L153.911 1190.52L153.91 1190.54V1190.56C153.91 1269.12 96.0923 1309.94 37.6925 1331.18C8.52307 1341.79 -20.6666 1347.45 -42.5777 1350.46C-53.5295 1351.97 -62.654 1352.81 -69.0367 1353.27C-70.5017 1353.38 -71.8221 1353.47 -72.9869 1353.54C-25.7528 1325.28 -1.61942 1295.7 10.7013 1272.82C17.0832 1260.96 20.2851 1250.92 21.891 1243.82C22.6939 1240.27 23.0977 1237.45 23.3007 1235.51C23.4023 1234.54 23.4536 1233.79 23.4796 1233.27C23.4926 1233.02 23.4992 1232.82 23.5026 1232.68L23.5031 1232.66C23.9374 1230.95 24.2945 1228.14 24.6003 1224.44C24.9204 1220.58 25.1917 1215.63 25.4201 1209.74C25.877 1197.95 26.1637 1182.32 26.3201 1163.83C26.6329 1126.85 26.4243 1078.39 26.0074 1026.24C25.7012 987.939 25.2827 947.652 24.8755 908.466C24.1739 840.933 23.5062 776.67 23.5062 731.471V731.404V731.336V731.269V731.202V731.135V731.067V731V730.932V730.864V730.797V730.729V730.661V730.593V730.525V730.456V730.388V730.32V730.251V730.182V730.114V730.045V729.976V729.907V729.838V729.769V729.7V729.631V729.561V729.492V729.422V729.353V729.283V729.213V729.143V729.073V729.003V728.933V728.863V728.793V728.722V728.652V728.581V728.51V728.44V728.369V728.298V728.227V728.156V728.085V728.013V727.942V727.87V727.799V727.727V727.655V727.584V727.512V727.44V727.368V727.296V727.223V727.151V727.079V727.006V726.934V726.861V726.788V726.715V726.642V726.569V726.496V726.423V726.35V726.276V726.203V726.129V726.056V725.982V725.908V725.834V725.76V725.686V725.612V725.538V725.463V725.389V725.314V725.24V725.165V725.09V725.016V724.941V724.866V724.79V724.715V724.64V724.565V724.489V724.414V724.338V724.262V724.186V724.11V724.034V723.958V723.882V723.806V723.73V723.653V723.577V723.5V723.423V723.347V723.27V723.193V723.116V723.039V722.961V722.884V722.807V722.729V722.652V722.574V722.496V722.419V722.341V722.263V722.185V722.106V722.028V721.95V721.871V721.793V721.714V721.636V721.557V721.478V721.399V721.32V721.241V721.162V721.082V721.003V720.923V720.844V720.764V720.684V720.605V720.525V720.445V720.365V720.284V720.204V720.124V720.043V719.963V719.882V719.802V719.721V719.64V719.559V719.478V719.397V719.316V719.234V719.153V719.071V718.99V718.908V718.826V718.745V718.663V718.581V718.499V718.416V718.334V718.252V718.169V718.087V718.004V717.921V717.839V717.756V717.673V717.59V717.507V717.423V717.34V717.257V717.173V717.09V717.006V716.922V716.838V716.754V716.67V716.586V716.502V716.418V716.333V716.249V716.165V716.08V715.995V715.91V715.826V715.741V715.655V715.57V715.485V715.4V715.314V715.229V715.143V715.058V714.972V714.886V714.8V714.714V714.628V714.542V714.456V714.369V714.283V714.196V714.11V714.023V713.936V713.849V713.762V713.675V713.588V713.501V713.413V713.326V713.238V713.151V713.063V712.975V712.888V712.8V712.712V712.624V712.535V712.447V712.359V712.27V712.182V712.093V712.004V711.916V711.827V711.738V711.649V711.559V711.47V711.381V711.291V711.202V711.112V711.023V710.933V710.843V710.753V710.663V710.573V710.483V710.392V710.302V710.212V710.121V710.03V709.94V709.849V709.758V709.667V709.576V709.485V709.394V709.302V709.211V709.119V709.028V708.936V708.844V708.752V708.66V708.568V708.476V708.384V708.292V708.199V708.107V708.014V707.922V707.829V707.736V707.643V707.55V707.457V707.364V707.271V707.177V707.084V706.99V706.897V706.803V706.709V706.616V706.522V706.428V706.333V706.239V706.145V706.051V705.956V705.862V705.767V705.672V705.577V705.482V705.387V705.292V705.197V705.102V705.007V704.911V704.816V704.72V704.624V704.528V704.433V704.337V704.241V704.144V704.048V703.952V703.856V703.759V703.663V703.566V703.469V703.372V703.275V703.178V703.081V702.984V702.887V702.789V702.692V702.594V702.497V702.399V702.301V702.204V702.106V702.008V701.909V701.811V701.713V701.614V701.516V701.417V701.319V701.22V701.121V701.022V700.923V700.824V700.725V700.626V700.526V700.427V700.327V700.228V700.128V700.028V699.928V699.828V699.728V699.628V699.528V699.428V699.327V699.227V699.126V699.025V698.925V698.824V698.723V698.622V698.521V698.42V698.318V698.217V698.116V698.014V697.912V697.811V697.709V697.607V697.505V697.403V697.301V697.199V697.096V696.994V696.891V696.789V696.686V696.583V696.48V696.377V696.274V696.171V696.068V695.965V695.861V695.758V695.654V695.551V695.447V695.343V695.239V695.135V695.031V694.927V694.823V694.719V694.614V694.51V694.405V694.3V694.196V694.091V693.986V693.881V693.776V693.671V693.565V693.46V693.354V693.249V693.143V693.038V692.932V692.826V692.72V692.614V692.508V692.401V692.295V692.189V692.082V691.975V691.869V691.762V691.655V691.548V691.441V691.334V691.227V691.12V691.012V690.905V690.797V690.689V690.582V690.474V690.366V690.258V690.15V690.042V689.934V689.825V689.717V689.608V689.5V689.391V689.282V689.173V689.064V688.955V688.846V688.737V688.628V688.518V688.409V688.299V688.19V688.08V687.97V687.86V687.75V687.64V687.53V687.42V687.309V687.199V687.088V686.978V686.867V686.756V686.645V686.534V686.423V686.312V686.201V686.09V685.978V685.867V685.755V685.733V685.71V685.688V685.665V685.643V685.62V685.597V685.574V685.552V685.529V685.506V685.483V685.46V685.436V685.413V685.39V685.367V685.343V685.32V685.296V685.273V685.249V685.225V685.202V685.178V685.154V685.13V685.106V685.082V685.058V685.034V685.01V684.986V684.961V684.937V684.913V684.888V684.864V684.839V684.815V684.79V684.765V684.741V684.716V684.691V684.666V684.641V684.616V684.591V684.566V684.541V684.516V684.491V684.466V684.441V684.415V684.39V684.365V684.339V684.314V684.288V684.263V684.237V684.212V684.186V684.16V684.135V684.109V684.083V684.057V684.031V684.006V683.98V683.954V683.928V683.902V683.876V683.849V683.823V683.797V683.771V683.745V683.719V683.692V683.666V683.64V683.613V683.587V683.56V683.534V683.508V683.481V683.454V683.428V683.401V683.375V683.348V683.321V683.295V683.268V683.241V683.215V683.188V683.161V683.134V683.107V683.081V683.054V683.027V683V682.973V682.946V682.919V682.892V682.865V682.838V682.811V682.784V682.757V682.73V682.703V682.676V682.649V682.622V682.594V682.567V682.54V682.513V682.486V682.459V682.431V682.404V682.377V682.35V682.322V682.295V682.268V682.241V682.213V682.186V682.159V682.132V682.104V682.077V682.05V682.022V681.995V681.968V681.94V681.913V681.886V681.859V681.831V681.804V681.777V681.749V681.722V681.695V681.667V681.64V681.613V681.585V681.558V681.531V681.504V681.476V681.449V681.422V681.394V681.367V681.34V681.313V681.285V681.258V681.231V681.204V681.177V681.149V681.122V681.095V681.068V681.041V681.014V680.987V680.959V680.932V680.905V680.878V680.851V680.824V680.797V680.77V680.743V680.716V680.689V680.662V680.635V680.608V680.582V680.555V680.528V680.501V680.474V680.447V680.421V680.394V680.367V680.341V680.314V680.287V680.261V680.234V680.207V680.181V680.154V680.128V680.101V680.075V680.049V680.022V679.996V679.969V679.943V679.917V679.891V679.865V679.838V679.812V679.786V679.76V679.734V679.708V679.682V679.656V679.63V679.604V679.578V679.553V679.527V679.501V679.475V679.45V679.424V679.398V679.373V679.347V679.322V679.296V679.271V679.246V679.22V679.195V679.17V679.145V679.12V679.095V679.069V679.044V679.02V678.995V678.97V678.945V678.92V678.895V678.871V678.846V678.821V678.797V678.772V678.748V678.724V678.699V678.675V678.651V678.626V678.602V678.578V678.554V678.53V678.506V678.482V678.459V678.435V678.411V678.387V678.364V678.34V678.317V678.293V678.27V678.247V678.223V678.2V678.177V678.154V678.131V678.108V678.085V678.062V678.039V678.017V677.994V677.971V677.949V677.927V677.904V677.882V677.86V677.837V677.815V677.793V677.771V677.749V677.727V677.706V677.684V677.662V677.641V677.619V677.598V677.576V677.555V677.534V677.512V677.491V677.47V677.449V677.429V677.408V677.387V677.366V677.346V677.325V677.305V677.285V677.264V677.244V677.224V677.204V677.184V677.164V677.144V677.125V677.105V677.085V677.066V677.047V677.027V677.008V676.989V676.97V676.951V676.932V676.913V676.894V676.876V676.857V676.839V676.82V676.802V676.784V676.766V676.748V676.73V676.712V676.694V676.677V676.659V676.642V676.624V676.607V676.59V676.573V676.555V676.539V676.522V676.505V676.488V676.472V676.455V676.439V676.423V676.407V676.391V676.375V676.359V676.343V676.327V676.312V676.296V676.281V676.266V676.25V676.235V676.22V676.205V676.191V676.176V676.161V676.147V676.133V676.118V676.104V676.09V676.076V676.063V676.049V676.035V676.022V676.008V675.995V675.982V675.969V675.956V675.943V675.93V675.918V675.905V675.893V675.881V675.869V675.856V675.845V675.833V675.821V675.809V675.798V675.787V675.775V675.764V675.753V675.742V675.732V675.721V675.71V675.7V675.69V675.68V675.67V675.66V675.65V675.64V675.631V675.621V675.612V675.603V675.594V675.585V675.576V675.567V675.559V675.55V675.542V675.534V675.526V675.518V675.51V675.502V675.495V675.487V675.48V675.473V675.466V675.459V675.452V675.445V675.439V675.433V675.426V675.42V675.414V675.409V675.403V675.397V675.392V675.387V675.382V675.376V675.372V675.367V675.362V675.358V675.354V675.349V675.345V675.341V675.338V675.334V675.331V675.327V675.324V675.321V675.319C25.7862 614.689 46.2634 556.136 82.2776 507.295C118.285 458.463 168.157 421.585 225.408 401.459C295.01 383.576 365.559 369.607 436.722 359.605C556.134 342.859 674.571 319.786 791.533 290.481C794.487 332.42 781.236 373.927 754.468 406.416C727.324 439.36 688.413 460.432 645.981 465.198L645.972 465.199L645.962 465.2L455.384 489.011L455.375 489.012L455.366 489.013L406.793 495.684C406.789 495.684 406.786 495.685 406.782 495.685C364.286 500.87 323.34 514.868 286.572 536.787C249.8 558.708 218.016 588.075 193.256 622.988L193.251 622.994C177.561 645.369 168.547 671.739 167.254 699.031L167.254 699.032C164.394 760.009 161.058 882.89 158.438 990.51C157.127 1044.32 155.995 1094.33 155.191 1130.88C154.789 1149.15 154.469 1164.06 154.249 1174.41C154.14 1179.58 154.055 1183.61 153.998 1186.34L153.933 1189.46L153.916 1190.26L153.912 1190.46L153.911 1190.51L153.911 1190.52C153.911 1190.52 153.911 1190.52 155.41 1190.56Z" stroke="white" stroke-width="3"/>
<path d="M359.81 605.291L359.103 607.41L361.333 607.262C466.345 600.269 570.651 585.084 673.302 561.889C674.063 585.811 670.079 609.657 661.573 632.043C652.854 654.991 639.564 675.933 622.51 693.596C605.457 711.26 584.995 725.282 562.361 734.809C539.728 744.335 515.393 749.164 490.834 749.015H490.825H430.795H424.124H424.035L423.946 749.026C418.851 749.636 413.928 751.261 409.467 753.791C405.003 756.323 401.091 759.725 397.955 763.782C394.819 767.839 392.518 772.471 391.193 777.427C389.878 782.349 389.551 787.493 390.227 792.541C390.219 818.237 387.383 941.248 385.147 1038.23C383.956 1089.86 382.936 1134.12 382.603 1152.37C382.129 1156.86 382.128 1161.38 382.602 1165.87C382.602 1176.82 382.533 1211.04 354.614 1243.63C327.159 1275.69 272.507 1306.47 163.55 1311.66C188.004 1297.39 208.566 1277.26 223.352 1253.05C239.239 1227.03 247.88 1197.24 248.385 1166.77L248.385 1166.76V1166.74V750.515V750.486L248.384 750.457C247.108 717.8 256.821 685.662 275.971 659.172C295.08 632.74 322.487 613.471 353.824 604.405H360.106L359.81 605.291Z" stroke="white" stroke-width="3"/>
</g>
</svg>
